<svg width="84" height="60" viewBox="0 0 84 60" fill="none" xmlns="http://www.w3.org/2000/svg">
<path d="M46.8208 36.5L46.5085 36.1096L46.8208 36.5ZM73.2626 0.766095C73.1334 0.522041 72.8309 0.428942 72.5868 0.558145L68.6098 2.66365C68.3657 2.79285 68.2726 3.09543 68.4018 3.33948C68.531 3.58354 68.8336 3.67664 69.0777 3.54743L72.6128 1.67588L74.4844 5.21103C74.6136 5.45508 74.9161 5.54818 75.1602 5.41898C75.4042 5.28977 75.4974 4.98719 75.3681 4.74314L73.2626 0.766095ZM6.82088 52.5C6.67621 52.9786 6.67668 52.9788 6.67721 52.9789C6.67746 52.979 6.67804 52.9792 6.67854 52.9793C6.67954 52.9796 6.68076 52.98 6.6822 52.9804C6.68508 52.9813 6.68886 52.9824 6.69352 52.9837C6.70284 52.9864 6.7157 52.99 6.73211 52.9945C6.76491 53.0034 6.81186 53.0157 6.87283 53.0304C6.99477 53.0598 7.17281 53.099 7.40606 53.1409C7.87262 53.2246 8.55988 53.3188 9.4608 53.3663C11.2631 53.4614 13.9178 53.3694 17.3684 52.6343C24.271 51.164 34.3406 47.1245 47.1331 36.8904L46.5085 36.1096C33.8167 46.263 23.8864 50.2235 17.1601 51.6563C13.7962 52.3728 11.2292 52.4582 9.51347 52.3677C8.65536 52.3224 8.00949 52.2332 7.58267 52.1566C7.36925 52.1183 7.21054 52.0832 7.10741 52.0583C7.05584 52.0458 7.01816 52.0359 6.99448 52.0295C6.98264 52.0263 6.9743 52.0239 6.96947 52.0225C6.96706 52.0219 6.96552 52.0214 6.96487 52.0212C6.96454 52.0211 6.96443 52.0211 6.96454 52.0211C6.9646 52.0211 6.96485 52.0212 6.96488 52.0212C6.96518 52.0213 6.96554 52.0214 6.82088 52.5ZM47.1331 36.8904C57.1914 28.8438 63.7292 19.9173 67.7529 13.0015C69.765 9.54321 71.1494 6.58622 72.0316 4.49093C72.4727 3.44322 72.7884 2.61073 72.9943 2.03848C73.0973 1.75234 73.1728 1.53125 73.2229 1.38081C73.2479 1.3056 73.2666 1.24804 73.2791 1.20885C73.2854 1.18926 73.2901 1.17426 73.2934 1.16393C73.295 1.15877 73.2963 1.15477 73.2971 1.15196C73.2976 1.15056 73.2979 1.14945 73.2982 1.14863C73.2983 1.14823 73.2984 1.14784 73.2985 1.14763C73.2986 1.14732 73.2986 1.14708 72.8208 1.00004C72.3429 0.852995 72.3429 0.852905 72.3429 0.852887C72.3429 0.852983 72.3428 0.853042 72.3428 0.853225C72.3427 0.8536 72.3425 0.854268 72.3422 0.855231C72.3416 0.857158 72.3406 0.860266 72.3393 0.864534C72.3366 0.873079 72.3324 0.886287 72.3267 0.904076C72.3153 0.939656 72.2979 0.993552 72.2741 1.06506C72.2265 1.20808 72.1536 1.42156 72.0534 1.69988C71.8531 2.25653 71.5438 3.07248 71.1099 4.10288C70.2422 6.16383 68.8765 9.08184 66.8886 12.4986C62.9124 19.3327 56.4502 28.1562 46.5085 36.1096L47.1331 36.8904Z" fill="#004D40"/>
</svg>
