<svg width="100" height="100" viewBox="0 0 100 100" fill="none" xmlns="http://www.w3.org/2000/svg">
<path d="M99.8192 80.9585C99.35 78.7002 98.0225 76.7707 96.0808 75.5248C94.1391 74.2797 91.8327 73.8777 89.5836 74.3919L79.1603 76.7784V72.5173C81.2508 70.5482 83.4274 67.9771 84.9754 65.6272C87.69 61.5066 89.6111 56.9816 90.6853 52.1804C91.9624 46.4683 91.9899 40.4212 90.7639 34.6908C90.538 33.6364 89.4997 32.9635 88.4453 33.1901C87.3901 33.4152 86.7188 34.4535 86.9438 35.5087C88.0531 40.6913 88.0287 46.1616 86.8729 51.3275C85.9024 55.6655 84.166 59.7541 81.7131 63.478C80.986 64.582 80.1041 65.7401 79.1603 66.8464V45.1972C79.1603 44.1184 78.286 43.2441 77.2072 43.2441H61.7569V22.3869C61.7569 21.3111 60.8864 20.4376 59.8106 20.4337L42.4072 20.375C42.4049 20.375 42.4034 20.375 42.4011 20.375C41.8839 20.375 41.3879 20.5795 41.0225 20.9449C40.6548 21.3111 40.448 21.8086 40.448 22.3281V33.1779H24.9954C23.9174 33.1779 23.0423 34.0522 23.0423 35.131V54.4723H18.6905V51.8195C18.6905 50.7415 17.8162 49.8672 16.7374 49.8672H14.7339C14.3929 47.9896 14.1953 46.0822 14.1487 44.1779C14.0343 39.5477 14.7682 35.0173 16.3292 30.7113C16.6931 29.7073 17.1066 28.7063 17.5575 27.7374C18.013 26.7593 17.5888 25.5973 16.6115 25.1418C15.6334 24.6879 14.4714 25.1106 14.0167 26.0887C13.517 27.1613 13.0592 28.2691 12.6572 29.38C10.9299 34.1445 10.1181 39.1563 10.2432 44.2741C10.2898 46.1448 10.4683 48.0171 10.7712 49.8672H1.95312C0.874328 49.8672 0 50.7415 0 51.8203V86.1511C0 87.2299 0.874328 88.1042 1.95312 88.1042H16.7374C17.8162 88.1042 18.6905 87.2299 18.6905 86.1511V84.2941H26.0376L55.7991 95.967C58.5777 97.0573 61.4883 97.6058 64.4142 97.6058C66.3651 97.6058 68.3243 97.3617 70.2538 96.8711L93.5806 90.9423C98.0087 89.817 100.748 85.4316 99.8192 80.9585ZM75.2548 47.1504V77.6725L70.0333 78.868C69.4717 78.9962 68.9041 79.0977 68.3334 79.177C66.1575 79.4769 63.9374 79.4135 61.7844 78.9871C61.7752 78.9848 61.7661 78.9832 61.7569 78.981V76.0192C63.2462 73.7975 63.7398 70.9808 62.9593 68.4097C62.7419 67.6925 62.4329 67.0005 62.0399 66.3619C61.9507 66.217 61.8576 66.0751 61.7607 65.9362C61.7599 65.9339 61.7584 65.9324 61.7569 65.9301V47.1496H75.2548V47.1504ZM44.3542 24.2881L57.8514 24.3331V62.828L50.3082 59.7061L44.3542 57.241V24.2881ZM26.9485 37.0841H40.4457V55.6228L38.0234 54.6203C37.7861 54.5219 37.532 54.4715 37.2765 54.4715H26.9485V37.0841ZM14.7842 84.1979H3.90625V53.7727H13.121C13.1248 53.7727 13.1294 53.7734 13.134 53.7734C13.1378 53.7734 13.1409 53.7727 13.1447 53.7727H14.7842V84.1979ZM92.6186 87.1566L69.2917 93.0854C65.2649 94.1085 61.0924 93.8468 57.225 92.3309L27.1202 80.5229C26.8929 80.4336 26.651 80.3886 26.4069 80.3886H18.6905V58.3785H36.8874L49.5247 63.6093L56.44 66.4718C58.8867 67.4865 60.0578 70.3567 59.0546 72.8004C58.8531 73.291 58.6037 73.7571 58.2726 74.1729C57.0496 75.7163 55.0362 76.3969 53.1532 75.9391C53.138 75.9353 53.1227 75.9315 53.1075 75.9277C52.9945 75.8994 52.8824 75.8666 52.771 75.83L39.6294 70.7778C39.5226 70.7366 39.4661 70.7153 39.4661 70.7153C38.4598 70.3277 37.3299 70.8305 36.9423 71.8376C36.5555 72.8439 37.0575 73.9745 38.0646 74.3614C38.0646 74.3614 45.4742 77.2102 51.1246 79.3891C51.2383 79.4334 51.3512 79.4746 51.4648 79.5127L55.8037 81.1813C57.1152 81.6856 58.4206 82.1876 59.7855 82.5363C62.1033 83.1283 64.5088 83.3663 66.8983 83.2359C68.2457 83.1626 69.5908 82.9765 70.9061 82.6759L77.6436 81.134C77.6505 81.1324 77.6573 81.1294 77.6642 81.1279L90.4556 78.1997C91.6725 77.9212 92.9214 78.1387 93.9713 78.8123C95.0226 79.4868 95.7405 80.5312 95.9946 81.7535C96.4981 84.1743 95.015 86.5478 92.6186 87.1566Z" fill="#004D40"/>
<path d="M24.977 16.4307C25.4439 16.4307 25.9124 16.2643 26.2854 15.9271C29.7705 12.7792 33.9324 10.2684 38.3231 8.66546C43.08 6.92901 48.2947 6.1882 53.4041 6.52389C57.0609 6.76422 60.6437 7.5447 64.0525 8.84323C65.0596 9.22699 66.1887 8.72192 66.5725 7.71331C66.957 6.70547 66.4512 5.57708 65.4425 5.19333C61.6706 3.75595 57.7063 2.8923 53.6605 2.62603C48.0132 2.25524 42.2461 3.07464 36.9834 4.99649C32.1257 6.76956 27.5214 9.54742 23.6678 13.028C22.8667 13.7512 22.8041 14.9864 23.5274 15.7867C23.9127 16.214 24.4437 16.4307 24.977 16.4307Z" fill="#004D40"/>
<path d="M69.3137 30.3695C69.6837 30.6907 70.14 30.8479 70.5939 30.8479C71.1394 30.8479 71.6826 30.6206 72.0694 30.1765L88.1385 11.6791C88.8465 10.865 88.7595 9.63133 87.9454 8.92409C87.1306 8.21684 85.8977 8.30305 85.1905 9.11711L69.1207 27.6146C68.4127 28.4286 68.4997 29.6623 69.3137 30.3695Z" fill="#004D40"/>
<path d="M83.714 22.019C81.0101 22.019 78.8105 24.2186 78.8105 26.9225C78.8105 29.6263 81.0101 31.8259 83.714 31.8259C86.4178 31.8259 88.6174 29.6256 88.6174 26.9225C88.6174 24.2186 86.4178 22.019 83.714 22.019ZM83.714 27.9196C83.1639 27.9196 82.7168 27.4725 82.7168 26.9225C82.7168 26.3731 83.1639 25.9253 83.714 25.9253C84.2633 25.9253 84.7111 26.3731 84.7111 26.9225C84.7111 27.4725 84.2633 27.9196 83.714 27.9196Z" fill="#004D40"/>
<path d="M72.8682 17.6711C75.5721 17.6711 77.7717 15.4715 77.7717 12.7677C77.7717 10.0638 75.5721 7.86426 72.8682 7.86426C70.1644 7.86426 67.9648 10.0638 67.9648 12.7677C67.9648 15.4715 70.1644 17.6711 72.8682 17.6711ZM72.8682 11.7697C73.4183 11.7697 73.8654 12.2176 73.8654 12.7677C73.8654 13.317 73.4183 13.7648 72.8682 13.7648C72.3182 13.7648 71.8711 13.317 71.8711 12.7677C71.8711 12.2176 72.3182 11.7697 72.8682 11.7697Z" fill="#004D40"/>
<path d="M18.0326 21.0203C18.3454 21.7711 19.1153 22.267 19.9308 22.2242C20.7373 22.1823 21.4437 21.6368 21.6932 20.8708C21.945 20.0979 21.6703 19.2175 21.0241 18.7239C20.3657 18.2219 19.441 18.1906 18.7513 18.6491C17.9861 19.158 17.6794 20.1727 18.0326 21.0203Z" fill="#004D40"/>
</svg>
