<svg width="50" height="50" viewBox="0 0 50 50" fill="none" xmlns="http://www.w3.org/2000/svg">
<path d="M10.1562 35.9375C11.018 35.9375 11.7188 36.6383 11.7188 37.5H13.2812C13.2812 36.0477 12.282 34.8352 10.9375 34.4859V32.8125H9.375V34.4859C8.03047 34.8352 7.03125 36.0477 7.03125 37.5C7.03125 39.2234 8.43281 40.625 10.1562 40.625C11.018 40.625 11.7188 41.3258 11.7188 42.1875C11.7188 43.0492 11.018 43.75 10.1562 43.75C9.29453 43.75 8.59375 43.0492 8.59375 42.1875H7.03125C7.03125 43.6398 8.03047 44.8523 9.375 45.2016V46.875H10.9375V45.2016C12.282 44.8523 13.2812 43.6398 13.2812 42.1875C13.2812 40.4641 11.8797 39.0625 10.1562 39.0625C9.29453 39.0625 8.59375 38.3617 8.59375 37.5C8.59375 36.6383 9.29453 35.9375 10.1562 35.9375Z" fill="#004D40"/>
<path d="M43.1152 4.23358L39.8441 8.81171L36.573 4.23358L35.3027 5.14139L38.884 10.1562H35.9379V11.7187H39.0629V13.2812H35.9379V14.8437H39.0629V16.4062H40.6254V14.8437H43.7504V13.2812H40.6254V11.7187H43.7504V10.1562H40.8043L44.3856 5.14139L43.1152 4.23358Z" fill="#004D40"/>
<path d="M39.8434 0.78125C34.8754 0.78125 30.8098 4.66719 30.4988 9.55859C28.7371 8.92969 26.8965 8.59375 24.9996 8.59375C16.3082 8.59375 9.19336 15.393 8.64648 23.9484L6.80195 22.1039L5.69727 23.2086L8.82227 26.3336C8.97461 26.4859 9.17461 26.5625 9.37461 26.5625C9.57461 26.5625 9.77461 26.4859 9.92695 26.3336L13.052 23.2086L11.9473 22.1039L10.2145 23.8367C10.8121 16.1953 17.2074 10.1562 24.9996 10.1562C26.9184 10.1562 28.7762 10.5312 30.5363 11.2398C31.0754 15.9 35.041 19.5312 39.8434 19.5312C45.0129 19.5312 49.2184 15.3258 49.2184 10.1562C49.2184 4.98672 45.0129 0.78125 39.8434 0.78125ZM39.8434 17.9688C35.5355 17.9688 32.0309 14.4641 32.0309 10.1562C32.0309 5.84844 35.5355 2.34375 39.8434 2.34375C44.1512 2.34375 47.6559 5.84844 47.6559 10.1562C47.6559 14.4641 44.1512 17.9688 39.8434 17.9688Z" fill="#004D40"/>
<path d="M40.0727 22.1039L36.9477 25.2289L38.0523 26.3336L39.8219 24.5641C39.8266 24.7102 39.8438 24.8539 39.8438 25C39.8438 33.1852 33.1852 39.8438 25 39.8438C23.0812 39.8438 21.2234 39.4688 19.4633 38.7602C18.9242 34.1 14.9586 30.4688 10.1562 30.4688C4.98672 30.4688 0.78125 34.6742 0.78125 39.8438C0.78125 45.0133 4.98672 49.2188 10.1562 49.2188C15.1242 49.2188 19.1898 45.3328 19.5008 40.4414C21.2625 41.0703 23.1031 41.4063 25 41.4063C34.0461 41.4063 41.4062 34.0461 41.4062 25C41.4062 24.8391 41.3875 24.6797 41.3828 24.5188L43.1977 26.3336L44.3023 25.2289L41.1773 22.1039C40.8719 21.7984 40.3781 21.7984 40.0727 22.1039ZM10.1562 47.6563C5.84844 47.6563 2.34375 44.1516 2.34375 39.8438C2.34375 35.536 5.84844 32.0313 10.1562 32.0313C14.4641 32.0313 17.9688 35.536 17.9688 39.8438C17.9688 44.1516 14.4641 47.6563 10.1562 47.6563Z" fill="#004D40"/>
</svg>
