<svg width="50" height="50" viewBox="0 0 50 50" fill="none" xmlns="http://www.w3.org/2000/svg">
<path d="M24.7599 35.7678C30.6972 35.7678 35.5274 30.9375 35.5274 25.0002C35.5274 19.0629 30.6972 14.2325 24.7599 14.2325C18.8226 14.2325 13.9922 19.0629 13.9922 25.0002C13.9922 30.9375 18.8226 35.7678 24.7599 35.7678ZM24.7599 15.6974C29.8894 15.6974 34.0626 19.8705 34.0626 25.0002C34.0626 30.1297 29.8895 34.303 24.7599 34.303C19.6303 34.303 15.457 30.1298 15.457 25.0002C15.457 19.8706 19.6303 15.6974 24.7599 15.6974Z" fill="#004D40"/>
<path d="M22.2505 28.9292C22.9048 29.3571 23.3814 29.5226 23.9784 29.5783V30.009C23.9784 30.4136 24.3062 30.7414 24.7108 30.7414C25.1154 30.7414 25.4432 30.4136 25.4432 30.009V29.5094C26.6318 29.2021 27.3936 28.1845 27.5624 27.1808C27.7804 25.884 27.0763 24.7121 25.8104 24.2646C25.6895 24.2219 25.5665 24.1775 25.4432 24.1319V21.8271C25.8937 21.9227 26.2027 22.1047 26.2155 22.1124C26.5572 22.3246 27.0068 22.2221 27.2218 21.8812C27.4377 21.5391 27.3352 21.0868 26.9931 20.871C26.9542 20.8465 26.3333 20.4626 25.4432 20.3409V19.9912C25.4432 19.5866 25.1154 19.2588 24.7108 19.2588C24.3062 19.2588 23.9784 19.5866 23.9784 19.9912V20.4243C23.938 20.435 23.8976 20.4457 23.8569 20.458C23.0027 20.7153 22.3649 21.4444 22.1922 22.3605C22.0337 23.2019 22.3071 24.0162 22.9059 24.4859C23.1852 24.705 23.5252 24.9059 23.9784 25.1143V28.1059C23.6668 28.0589 23.4284 27.9493 23.0525 27.7034C22.7139 27.482 22.26 27.5769 22.0386 27.9153C21.8171 28.2538 21.912 28.7078 22.2505 28.9292ZM26.1178 26.938C26.0547 27.3131 25.8257 27.7068 25.4432 27.9371V25.695C26.1815 26.0203 26.1637 26.6654 26.1178 26.938ZM23.81 23.3333C23.6457 23.2045 23.5758 22.929 23.6317 22.6318C23.6708 22.4246 23.7808 22.1871 23.9785 22.0228V23.453C23.9184 23.4138 23.8617 23.3739 23.81 23.3333Z" fill="#004D40"/>
<path d="M41.1125 9.11608C40.86 8.80016 40.3992 8.7485 40.0831 9.00104C39.7671 9.25348 39.7155 9.71442 39.9681 10.0304L40.7026 10.9499H36.0449C35.6403 10.9499 35.3125 11.2777 35.3125 11.6823C35.3125 12.0869 35.6403 12.4147 36.0449 12.4147H40.7026L39.9681 13.3341C39.7155 13.6502 39.767 14.1111 40.0831 14.3635C40.4012 14.6175 40.8617 14.5625 41.1125 14.2485L42.7975 12.1394C43.0111 11.872 43.0111 11.4924 42.7975 11.2251L41.1125 9.11608Z" fill="#004D40"/>
<path d="M8.8874 40.8841C9.13916 41.1991 9.59981 41.2523 9.9168 40.9991C10.2328 40.7467 10.2844 40.2857 10.0318 39.9697L9.29727 39.0503H13.9549C14.3595 39.0503 14.6873 38.7224 14.6873 38.3178C14.6873 37.9133 14.3595 37.5854 13.9549 37.5854H9.29717L10.0317 36.666C10.2843 36.35 10.2328 35.889 9.9167 35.6366C9.60059 35.3841 9.13965 35.4355 8.88731 35.7516L7.20225 37.8607C6.98857 38.1281 6.98857 38.5077 7.20225 38.7751L8.8874 40.8841Z" fill="#004D40"/>
<path d="M5.80618 43.2489H21.0615C21.4661 43.2489 21.794 42.921 21.794 42.5164C21.794 42.1118 21.4661 41.784 21.0615 41.784H6.055V39.9882C6.055 39.6912 5.87571 39.4238 5.6011 39.3108C5.3262 39.1976 5.01077 39.2619 4.80188 39.4731L0.211743 44.1129C-0.070581 44.3983 -0.070581 44.8577 0.211743 45.1431L4.80188 49.7828C5.00959 49.9929 5.32532 50.0587 5.6011 49.9451C5.87571 49.8322 6.055 49.5647 6.055 49.2677V47.472H21.0615C21.4661 47.472 21.794 47.1442 21.794 46.7396C21.794 46.335 21.4661 46.0072 21.0615 46.0072H5.80618C5.13567 46.0072 4.59016 46.5527 4.59016 47.2231V47.4859L1.76272 44.6279L4.59016 41.7699V42.0326C4.59016 42.7033 5.13567 43.2489 5.80618 43.2489Z" fill="#004D40"/>
<path d="M24.7599 10.6445C16.8441 10.6445 10.4043 17.0844 10.4043 25.0001C10.4043 27.8883 11.2588 30.6734 12.8753 33.0542C13.1025 33.3889 13.5581 33.4759 13.8927 33.2487C14.2273 33.0215 14.3143 32.566 14.0872 32.2314C12.6361 30.0943 11.8691 27.5938 11.8691 25.0001C11.8691 17.8922 17.6519 12.1094 24.7599 12.1094C31.8679 12.1094 37.6507 17.8922 37.6507 25.0001C37.6507 32.1081 31.8679 37.8909 24.7599 37.8909C21.4432 37.8909 18.2923 36.6338 15.8873 34.3512C15.5939 34.0726 15.1303 34.0847 14.8518 34.3781C14.5733 34.6715 14.5853 35.1351 14.8788 35.4136C17.5571 37.9558 21.0662 39.3557 24.7599 39.3557C32.6757 39.3557 39.1155 32.9159 39.1155 25.0001C39.1155 17.0844 32.6757 10.6445 24.7599 10.6445Z" fill="#004D40"/>
<path d="M49.7883 4.85725L45.1981 0.217505C44.9893 0.00637234 44.6737 -0.0580808 44.3989 0.0552005C44.1243 0.168091 43.945 0.435669 43.945 0.732642V2.52834H40.5673C40.1627 2.52834 39.8349 2.85618 39.8349 3.26077C39.8349 3.66536 40.1627 3.99319 40.5673 3.99319H44.1939C44.8643 3.99319 45.4099 3.44768 45.4099 2.77727V2.51448L48.2373 5.37249L45.4099 8.2304V7.9677C45.4099 7.29719 44.8643 6.75168 44.1939 6.75168H28.9385C28.5339 6.75168 28.2061 7.07952 28.2061 7.48411C28.2061 7.8887 28.5339 8.21653 28.9385 8.21653H43.945V10.0122C43.945 10.3092 44.1243 10.5767 44.3989 10.6897C44.6752 10.8034 44.9907 10.737 45.1981 10.5274L49.7883 5.88772C50.0706 5.60208 50.0706 5.1426 49.7883 4.85725Z" fill="#004D40"/>
<path d="M28.9385 3.99316H37.6389C38.0435 3.99316 38.3713 3.66533 38.3713 3.26074C38.3713 2.85615 38.0435 2.52832 37.6389 2.52832H28.9385C28.5339 2.52832 28.2061 2.85615 28.2061 3.26074C28.2061 3.66533 28.534 3.99316 28.9385 3.99316Z" fill="#004D40"/>
</svg>
