<svg width="40" height="40" viewBox="0 0 40 40" fill="none" xmlns="http://www.w3.org/2000/svg">
<g clip-path="url(#clip0)">
<path d="M39.3187 3.50757C39.6951 3.50757 40.0001 3.20249 40.0001 2.82624V0.681327C40.0001 0.305078 39.6951 0 39.3187 0H8.48699C8.11074 0 7.80566 0.305078 7.80566 0.681327V31.5129C7.80566 31.8892 8.11074 32.1942 8.48699 32.1942H39.3186C39.6949 32.1942 39.9999 31.8892 39.9999 31.5129V5.09726C39.9999 4.72101 39.695 4.41593 39.3186 4.41593C38.9423 4.41593 38.6373 4.72101 38.6373 5.09726V16.7704H35.9315C35.5551 16.7704 35.2501 17.0754 35.2501 17.4517C35.2501 17.8279 35.5551 18.133 35.9315 18.133H38.6373V30.8317H19.1713V27.535C19.1713 27.1588 18.8663 26.8537 18.49 26.8537C18.1138 26.8537 17.8087 27.1588 17.8087 27.535V30.8317H9.16832V1.36265H17.8088V22.6296C17.8088 23.0059 18.1138 23.311 18.4901 23.311C18.8663 23.311 19.1714 23.0059 19.1714 22.6296V18.133H31.2987C31.675 18.133 31.98 17.8279 31.98 17.4517C31.98 17.0754 31.6751 16.7704 31.2987 16.7704H19.1713V1.36265H38.6374V2.82624C38.6374 3.20249 38.9423 3.50757 39.3187 3.50757Z" fill="#004D40"/>
<path d="M5.75614 3.9321L3.50794 0.321249C3.38357 0.121484 3.16482 0 2.92958 0C2.69427 0 2.4756 0.121484 2.35122 0.321249L0.102948 3.9321C-0.0278333 4.14218 -0.0344739 4.40663 0.0856821 4.62296C0.205838 4.83929 0.433885 4.97351 0.681306 4.97351H2.24826V7.82256C2.24826 8.19881 2.55333 8.50389 2.92958 8.50389C3.30583 8.50389 3.61091 8.19881 3.61091 7.82256V4.97351H5.17786C5.42528 4.97351 5.65333 4.83937 5.77348 4.62296C5.89364 4.40655 5.887 4.1421 5.75614 3.9321ZM1.9081 3.61085L2.9295 1.97039L3.95091 3.61085H1.9081Z" fill="#004D40"/>
<path d="M5.77341 27.5713C5.65325 27.355 5.4252 27.2209 5.17778 27.2209H3.61083V9.63933C3.61083 9.26309 3.30575 8.95801 2.9295 8.95801C2.55326 8.95801 2.24818 9.26309 2.24818 9.63933V27.2208H0.681306C0.433885 27.2208 0.205838 27.3549 0.0856821 27.5713C-0.0344739 27.7877 -0.0278333 28.0522 0.102948 28.2622L2.35115 31.873C2.47552 32.0728 2.69419 32.1943 2.9295 32.1943C3.16489 32.1943 3.38357 32.0728 3.50786 31.873L5.75606 28.2622C5.887 28.052 5.89364 27.7877 5.77341 27.5713ZM2.92958 30.224L1.9081 28.5835H3.95091L2.92958 30.224Z" fill="#004D40"/>
<path d="M39.6788 36.492L36.068 34.2438C35.8579 34.113 35.5934 34.1064 35.3771 34.2265C35.1608 34.3467 35.0266 34.5747 35.0266 34.8221V36.3891H12.7792V34.8221C12.7792 34.5747 12.645 34.3467 12.4287 34.2265C12.2124 34.1064 11.948 34.113 11.7378 34.2438L8.12691 36.492C7.92715 36.6164 7.80566 36.835 7.80566 37.0703C7.80566 37.3057 7.92715 37.5243 8.12691 37.6487L11.7378 39.8969C11.8478 39.9654 11.9728 39.9998 12.0978 39.9998C12.2117 39.9998 12.3256 39.9714 12.4286 39.9142C12.645 39.794 12.7792 39.566 12.7792 39.3185V37.7516H35.0266V39.3185C35.0266 39.566 35.1608 39.794 35.377 39.9142C35.4801 39.9714 35.594 39.9998 35.7079 39.9998C35.833 39.9998 35.958 39.9653 36.068 39.8969L39.6788 37.6487C39.8786 37.5243 40.0001 37.3057 40.0001 37.0703C40.0001 36.835 39.8786 36.6164 39.6788 36.492ZM11.4165 38.0917L9.77605 37.0703L11.4165 36.0489V38.0917ZM36.3892 38.0917V36.0489L38.0298 37.0703L36.3892 38.0917Z" fill="#004D40"/>
</g>
<defs>
<clipPath id="clip0">
<rect width="40" height="40" fill="white"/>
</clipPath>
</defs>
</svg>
