<svg width="38" height="38" viewBox="0 0 38 38" fill="none" xmlns="http://www.w3.org/2000/svg">
<path d="M32 30.4187C31.7659 30.2442 31.4945 30.1263 31.2071 30.0743C30.9197 30.0222 30.6242 30.0374 30.3438 30.1187L25.875 31.4375V25.875H27.75C27.8736 25.8755 27.9946 25.8388 28.0971 25.7697C28.1996 25.7006 28.279 25.6023 28.325 25.4875C28.3729 25.3737 28.3859 25.2482 28.3626 25.127C28.3392 25.0057 28.2805 24.8941 28.1937 24.8063L23.8187 20.4313C23.7007 20.3142 23.5412 20.2484 23.375 20.2484C23.2088 20.2484 23.0493 20.3142 22.9313 20.4313L18.5563 24.8063C18.4695 24.8941 18.4108 25.0057 18.3874 25.127C18.3641 25.2482 18.3771 25.3737 18.425 25.4875C18.471 25.6023 18.5504 25.7006 18.6529 25.7697C18.7554 25.8388 18.8764 25.8755 19 25.875H20.875V32.75H16.6625L13.2875 30.875H18.375C18.8718 30.8735 19.3479 30.6755 19.6992 30.3242C20.0505 29.9729 20.2485 29.4968 20.25 29V28.6875C20.2489 28.283 20.1176 27.8896 19.8756 27.5654C19.6337 27.2412 19.2938 27.0036 18.9062 26.8875L15.25 25.8125V22.75H17.125C17.2486 22.7505 17.3696 22.7138 17.4721 22.6447C17.5746 22.5756 17.654 22.4773 17.7 22.3625C17.7479 22.2487 17.7609 22.1232 17.7376 22.002C17.7142 21.8807 17.6555 21.7691 17.5687 21.6813L13.1937 17.3063C13.0757 17.1892 12.9162 17.1234 12.75 17.1234C12.5838 17.1234 12.4243 17.1892 12.3063 17.3063L7.93125 21.6813C7.84453 21.7691 7.78578 21.8807 7.76242 22.002C7.73906 22.1232 7.75214 22.2487 7.8 22.3625C7.84597 22.4773 7.92537 22.5756 8.0279 22.6447C8.13043 22.7138 8.25136 22.7505 8.375 22.75H10.25V24.3437L9.175 24.025C9.11844 24.0071 9.05931 23.9987 9 24H5.25V22.75C5.25 22.5842 5.18415 22.4253 5.06694 22.3081C4.94973 22.1908 4.79076 22.125 4.625 22.125H0.875C0.70924 22.125 0.550268 22.1908 0.433058 22.3081C0.315848 22.4253 0.25 22.5842 0.25 22.75V36.5C0.25 36.6658 0.315848 36.8247 0.433058 36.9419C0.550268 37.0592 0.70924 37.125 0.875 37.125H4.625C4.79076 37.125 4.94973 37.0592 5.06694 36.9419C5.18415 36.8247 5.25 36.6658 5.25 36.5V35.4937L11.925 37.7188C11.9899 37.7383 12.0572 37.7488 12.125 37.75H21.5C21.5705 37.7503 21.6404 37.7375 21.7063 37.7125L31.5 34.2562C31.8657 34.1269 32.1823 33.8874 32.4062 33.5706C32.6301 33.2538 32.7502 32.8754 32.75 32.4875V31.9187C32.7508 31.6275 32.6834 31.3402 32.5531 31.0797C32.4229 30.8192 32.2334 30.5929 32 30.4187ZM4 35.875H1.5V23.375H4V35.875ZM20.5063 24.625L23.375 21.7562L26.2437 24.625H25.25C25.0842 24.625 24.9253 24.6908 24.8081 24.8081C24.6908 24.9253 24.625 25.0842 24.625 25.25V31.8063L22.125 32.5375V25.25C22.125 25.0842 22.0592 24.9253 21.9419 24.8081C21.8247 24.6908 21.6658 24.625 21.5 24.625H20.5063ZM9.88125 21.5L12.75 18.6312L15.6187 21.5H14.625C14.4592 21.5 14.3003 21.5658 14.1831 21.6831C14.0658 21.8003 14 21.9592 14 22.125V25.4438L11.5 24.7063V22.125C11.5 21.9592 11.4342 21.8003 11.3169 21.6831C11.1997 21.5658 11.0408 21.5 10.875 21.5H9.88125ZM31.5 32.4875C31.5008 32.6178 31.4608 32.745 31.3858 32.8515C31.3107 32.9579 31.2042 33.0383 31.0813 33.0812L21.3938 36.5H12.225L5.25 34.175V25.25H8.9125L18.55 28.0875C18.6794 28.1261 18.793 28.2052 18.874 28.3132C18.955 28.4213 18.9992 28.5525 19 28.6875V29C19 29.1658 18.9342 29.3247 18.8169 29.4419C18.6997 29.5592 18.5408 29.625 18.375 29.625H10.875C10.7372 29.6254 10.6033 29.6714 10.4943 29.7558C10.3853 29.8402 10.3073 29.9582 10.2723 30.0916C10.2374 30.2249 10.2475 30.3661 10.3011 30.4931C10.3547 30.6201 10.4488 30.7258 10.5688 30.7937L16.1938 33.9187C16.2866 33.9732 16.3924 34.0013 16.5 34H21.5C21.5593 34.0013 21.6184 33.9929 21.675 33.975L30.7 31.3187C30.7931 31.2916 30.8913 31.2865 30.9868 31.3038C31.0823 31.3212 31.1724 31.3605 31.25 31.4187C31.3276 31.477 31.3906 31.5525 31.434 31.6392C31.4774 31.726 31.5 31.8217 31.5 31.9187V32.4875Z" fill="#004D40"/>
<path d="M20.25 0.25C18.3958 0.25 16.5832 0.799834 15.0415 1.82997C13.4998 2.86011 12.2982 4.32429 11.5886 6.03734C10.8791 7.7504 10.6934 9.6354 11.0551 11.454C11.4169 13.2725 12.3098 14.943 13.6209 16.2541C14.932 17.5652 16.6025 18.4581 18.421 18.8199C20.2396 19.1816 22.1246 18.9959 23.8377 18.2864C25.5507 17.5768 27.0149 16.3752 28.045 14.8335C29.0752 13.2918 29.625 11.4792 29.625 9.625C29.622 7.13951 28.6333 4.75667 26.8758 2.99916C25.1183 1.24165 22.7355 0.252977 20.25 0.25ZM28.3438 9H27.0938C27.0201 8.22116 26.8151 7.46041 26.4875 6.75L27.5688 6.11875C28.0024 7.0232 28.2652 8.00003 28.3438 9ZM24.8375 2.925C25.664 3.49521 26.3798 4.21104 26.95 5.0375L25.8625 5.6625C25.4069 5.02561 24.8494 4.46814 24.2125 4.0125L24.8375 2.925ZM20.875 1.53125C21.875 1.60983 22.8518 1.87258 23.7563 2.30625L23.125 3.3875C22.4146 3.05988 21.6538 2.8549 20.875 2.78125V1.53125ZM19.625 1.53125V2.78125C18.8462 2.8549 18.0854 3.05988 17.375 3.3875L16.7438 2.30625C17.6482 1.87258 18.625 1.60983 19.625 1.53125ZM15.6625 2.925L16.2875 4.0125C15.6506 4.46814 15.0931 5.02561 14.6375 5.6625L13.55 5.0375C14.1202 4.21104 14.836 3.49521 15.6625 2.925ZM12.9313 6.11875L14.0125 6.75C13.6849 7.46041 13.4799 8.22116 13.4063 9H12.1563C12.2348 8.00003 12.4976 7.0232 12.9313 6.11875ZM12.1563 10.25H13.4063C13.4799 11.0288 13.6849 11.7896 14.0125 12.5L12.9313 13.1312C12.4976 12.2268 12.2348 11.25 12.1563 10.25ZM15.6625 16.325C14.836 15.7548 14.1202 15.039 13.55 14.2125L14.6375 13.5875C15.0931 14.2244 15.6506 14.7819 16.2875 15.2375L15.6625 16.325ZM19.625 17.7187C18.625 17.6402 17.6482 17.3774 16.7438 16.9437L17.375 15.8625C18.0854 16.1901 18.8462 16.3951 19.625 16.4687V17.7187ZM14.625 9.625C14.625 8.51248 14.9549 7.42494 15.573 6.49992C16.1911 5.57489 17.0696 4.85392 18.0974 4.42818C19.1252 4.00243 20.2562 3.89104 21.3474 4.10808C22.4385 4.32512 23.4408 4.86085 24.2275 5.64752C25.0141 6.43419 25.5499 7.43647 25.7669 8.52762C25.984 9.61876 25.8726 10.7498 25.4468 11.7776C25.0211 12.8054 24.3001 13.6839 23.3751 14.302C22.4501 14.9201 21.3625 15.25 20.25 15.25C18.7589 15.2477 17.3295 14.6543 16.2751 13.5999C15.2207 12.5455 14.6273 11.1161 14.625 9.625ZM20.875 17.7187V16.4687C21.6538 16.3951 22.4146 16.1901 23.125 15.8625L23.7563 16.9437C22.8518 17.3774 21.875 17.6402 20.875 17.7187ZM24.8375 16.325L24.2125 15.2375C24.8494 14.7819 25.4069 14.2244 25.8625 13.5875L26.95 14.2125C26.3798 15.039 25.664 15.7548 24.8375 16.325ZM27.5688 13.1312L26.4875 12.5C26.8151 11.7896 27.0201 11.0288 27.0938 10.25H28.3438C28.2652 11.25 28.0024 12.2268 27.5688 13.1312Z" fill="#004D40"/>
<path d="M19.625 14H20.875V12.75C21.2065 12.75 21.5245 12.6183 21.7589 12.3839C21.9933 12.1495 22.125 11.8315 22.125 11.5V10.25C22.125 9.91848 21.9933 9.60054 21.7589 9.36612C21.5245 9.1317 21.2065 9 20.875 9H19.625V7.75H22.125V6.5H20.875V5.25H19.625V6.5C19.2935 6.5 18.9755 6.6317 18.7411 6.86612C18.5067 7.10054 18.375 7.41848 18.375 7.75V9C18.375 9.33152 18.5067 9.64946 18.7411 9.88388C18.9755 10.1183 19.2935 10.25 19.625 10.25H20.875V11.5H18.375V12.75H19.625V14Z" fill="#004D40"/>
<path d="M37.5667 20.4331L33.1917 16.0581C33.0745 15.941 32.9156 15.8751 32.7499 15.8751C32.5841 15.8751 32.4252 15.941 32.308 16.0581L27.933 20.4331C27.8456 20.5205 27.7861 20.6319 27.762 20.7531C27.7379 20.8743 27.7503 21 27.7976 21.1142C27.8449 21.2283 27.9249 21.3259 28.0277 21.3946C28.1305 21.4633 28.2513 21.5 28.3749 21.5H30.2499V27.75C30.2499 27.9158 30.3157 28.0747 30.4329 28.1919C30.5501 28.3092 30.7091 28.375 30.8749 28.375H34.6249C34.7906 28.375 34.9496 28.3092 35.0668 28.1919C35.184 28.0747 35.2499 27.9158 35.2499 27.75V21.5H37.1249C37.2485 21.5 37.3693 21.4633 37.472 21.3946C37.5748 21.3259 37.6549 21.2283 37.7022 21.1142C37.7495 21 37.7618 20.8743 37.7377 20.7531C37.7136 20.6319 37.6541 20.5205 37.5667 20.4331ZM34.6249 20.25C34.4591 20.25 34.3001 20.3158 34.1829 20.4331C34.0657 20.5503 33.9999 20.7092 33.9999 20.875V27.125H31.4999V20.875C31.4999 20.7092 31.434 20.5503 31.3168 20.4331C31.1996 20.3158 31.0406 20.25 30.8749 20.25H29.8836L32.7499 17.3837L35.6161 20.25H34.6249Z" fill="#004D40"/>
<path d="M0.874867 16.5H2.74987V20.25C2.74987 20.4158 2.81571 20.5747 2.93293 20.6919C3.05014 20.8092 3.20911 20.875 3.37487 20.875H7.12487C7.29063 20.875 7.4496 20.8092 7.56681 20.6919C7.68402 20.5747 7.74987 20.4158 7.74987 20.25V16.5H9.62487C9.74846 16.5 9.86927 16.4633 9.97203 16.3946C10.0748 16.3259 10.1549 16.2283 10.2022 16.1142C10.2495 16 10.2618 15.8743 10.2377 15.7531C10.2136 15.6319 10.1541 15.5205 10.0667 15.4331L5.69174 11.0581C5.57454 10.941 5.41559 10.8751 5.24987 10.8751C5.08414 10.8751 4.9252 10.941 4.80799 11.0581L0.432992 15.4331C0.345611 15.5205 0.286107 15.6319 0.262002 15.7531C0.237897 15.8743 0.250274 16 0.297568 16.1142C0.344862 16.2283 0.424949 16.3259 0.527705 16.3946C0.630461 16.4633 0.751273 16.5 0.874867 16.5ZM5.24987 12.3837L8.11612 15.25H7.12487C6.95911 15.25 6.80014 15.3158 6.68293 15.4331C6.56572 15.5503 6.49987 15.7092 6.49987 15.875V19.625H3.99987V15.875C3.99987 15.7092 3.93402 15.5503 3.81681 15.4331C3.6996 15.3158 3.54063 15.25 3.37487 15.25H2.38362L5.24987 12.3837Z" fill="#004D40"/>
</svg>
