<svg width="40" height="40" viewBox="0 0 40 40" fill="none" xmlns="http://www.w3.org/2000/svg">
<path d="M22.1021 16.9481C22.6694 16.9481 23.1309 17.3346 23.1309 17.8096C23.1309 18.241 23.4808 18.5909 23.9122 18.5909C24.3436 18.5909 24.6935 18.241 24.6935 17.8096C24.6935 16.7276 23.9316 15.809 22.8833 15.4983V15.3897C22.8833 14.9583 22.5335 14.6085 22.1021 14.6085C21.6707 14.6085 21.3208 14.9583 21.3208 15.3897V15.4983C20.2726 15.8091 19.5107 16.7276 19.5107 17.8096C19.5107 19.1462 20.6732 20.2336 22.1021 20.2336C22.6694 20.2336 23.1309 20.6201 23.1309 21.0951C23.1309 21.5701 22.6694 21.9565 22.1021 21.9565C21.5348 21.9565 21.0733 21.5701 21.0733 21.0951C21.0733 20.6637 20.7234 20.3138 20.292 20.3138C19.8606 20.3138 19.5107 20.6637 19.5107 21.0951C19.5107 22.1771 20.2726 23.0955 21.3208 23.4062V23.5148C21.3208 23.9463 21.6707 24.2961 22.1021 24.2961C22.5335 24.2961 22.8833 23.9463 22.8833 23.5148V23.4062C23.9316 23.0955 24.6935 22.1771 24.6935 21.0951C24.6935 19.7585 23.5309 18.671 22.1021 18.671C21.5348 18.671 21.0733 18.2846 21.0733 17.8096C21.0733 17.3346 21.5348 16.9481 22.1021 16.9481Z" fill="#004D40"/>
<path d="M39.8824 26.0994C39.5761 25.0371 38.714 24.2345 37.6327 24.0045C36.9403 23.8571 36.2201 23.9647 35.6051 24.2916C35.9612 22.077 35.7742 19.7863 35.0414 17.651C34.9013 17.2428 34.4568 17.0259 34.0488 17.1656C33.6407 17.3056 33.4234 17.75 33.5634 18.1582C34.4289 20.6799 34.4359 23.4462 33.588 25.971L27.3619 31.5006C26.9778 31.8417 26.5565 32.131 26.1088 32.3658C26.2353 31.8537 26.2267 31.3114 26.0747 30.7962C25.8346 29.9826 25.2581 29.3059 24.4931 28.9395L18.9776 26.2977C16.5663 25.1428 13.744 25.0092 11.2344 25.9305L10.6737 26.1364C9.11757 21.7404 10.2007 16.8652 13.5332 13.5328L19.0488 8.0172H25.1551L29.8284 12.6906C30.1336 12.9956 30.6281 12.9956 30.9334 12.6906C31.2385 12.3855 31.2385 11.8908 30.9334 11.5856L26.4681 7.12053L28.0823 2.47522C28.2987 1.85247 28.0597 1.17307 27.5011 0.8229C26.9426 0.47281 26.2268 0.553984 25.7606 1.01994L25.751 1.02955C25.4281 1.3526 24.9025 1.3526 24.5796 1.02955C23.2084 -0.341514 20.9774 -0.341514 19.6062 1.02955C19.4498 1.18604 19.2417 1.27213 19.0205 1.27213C18.7992 1.27213 18.5912 1.18596 18.4348 1.02955C17.9681 0.562891 17.2519 0.482107 16.693 0.833291C16.1341 1.1844 15.8961 1.86473 16.1141 2.48772L17.7354 7.121L12.4283 12.428C10.4643 14.3921 9.15866 16.8684 8.65287 19.5892C8.20918 21.9752 8.40137 24.4082 9.2057 26.6756L7.97402 27.1278C7.56416 26.5949 6.92078 26.2505 6.19817 26.2505H2.23968C1.00472 26.2506 0 27.2553 0 28.4902V37.7613C0 38.9963 1.00472 40.001 2.23968 40.001H22.8313C26.0656 40.001 29.1243 38.7596 31.4436 36.5053L39.0938 29.0703C39.8866 28.3 40.1887 27.1616 39.8824 26.0994ZM19.0204 2.83476C19.659 2.83476 20.2594 2.58608 20.7111 2.13451C21.473 1.37261 22.7127 1.37261 23.4746 2.13451C23.9262 2.58608 24.5267 2.83476 25.1653 2.83476C25.6187 2.83476 26.0528 2.70945 26.4281 2.47506L25.0453 6.45473H19.1577L17.7672 2.481C18.1403 2.71148 18.5708 2.83476 19.0204 2.83476ZM1.56255 37.7614V28.4902C1.56255 28.1169 1.86631 27.8131 2.23968 27.8131H6.1981C6.57147 27.8131 6.87523 28.1169 6.87523 28.4902V37.7613C6.87523 38.1347 6.57147 38.4384 6.1981 38.4384H2.23968C1.86631 38.4385 1.56255 38.1348 1.56255 37.7614ZM38.0048 27.9499L30.3546 35.3849C28.3284 37.354 25.6566 38.4385 22.8313 38.4385H8.33286C8.40083 38.2248 8.43778 37.9973 8.43778 37.7614V28.6221L11.7729 27.3975C13.8891 26.6206 16.2693 26.7332 18.3026 27.7072L23.8181 30.3489C24.1901 30.527 24.4593 30.843 24.576 31.2387C24.6927 31.6343 24.6382 32.046 24.4225 32.3975C24.076 32.9623 23.3927 33.2164 22.7613 33.0158L15.434 30.6858C15.0229 30.5551 14.5835 30.7823 14.4527 31.1936C14.322 31.6048 14.5492 32.0442 14.9605 32.175L22.2878 34.505C22.5896 34.6009 22.8969 34.647 23.2002 34.647C23.2368 34.647 23.2732 34.6448 23.3096 34.6435C25.1887 34.6164 26.9922 33.9189 28.3994 32.6691L36.0642 25.8615C36.4015 25.5621 36.8665 25.4393 37.3075 25.533C37.8312 25.6444 38.2324 26.018 38.3808 26.5325C38.5294 27.0468 38.3888 27.5767 38.0048 27.9499Z" fill="#004D40"/>
<path d="M32.7148 15.5466C32.9203 15.5466 33.1219 15.4637 33.2671 15.3176C33.4124 15.1723 33.4961 14.9715 33.4961 14.7653C33.4961 14.5598 33.4125 14.3591 33.2671 14.213C33.1219 14.0677 32.9203 13.9841 32.7148 13.9841C32.5093 13.9841 32.3086 14.0677 32.1625 14.213C32.0172 14.3591 31.9336 14.5598 31.9336 14.7653C31.9336 14.9716 32.0171 15.1723 32.1625 15.3176C32.3077 15.4638 32.5093 15.5466 32.7148 15.5466Z" fill="#004D40"/>
</svg>
