<svg width="76" height="56" viewBox="0 0 76 56" fill="none" xmlns="http://www.w3.org/2000/svg">
<path d="M68.7503 38.3879C58.1819 48.9439 50.3328 38.2199 44.3898 44.1559C43.5629 44.9819 41.979 42.3499 41.124 41.5099C40.3531 40.7399 37.718 38.9899 38.4609 38.2479C44.6421 32.0739 33.5552 24.5979 44.2497 13.9299C51.0196 7.1679 61.9804 7.1679 68.7503 13.9299C75.5202 20.6779 75.5202 31.6259 68.7503 38.3879Z" fill="white"/>
<path d="M44.0255 44.9967C43.9974 44.9967 43.9834 44.9967 43.9554 44.9967C43.0443 44.9407 42.1893 43.8767 41.3624 42.8407C41.0961 42.5047 40.8297 42.1827 40.6475 41.9867C40.4933 41.8327 40.199 41.5947 39.8906 41.3427C38.6011 40.2787 37.6901 39.4667 37.648 38.6127C37.634 38.2907 37.7461 37.9967 37.9704 37.7587C40.3812 35.3507 39.8906 32.7607 39.2739 29.4847C38.447 25.1447 37.4378 19.7547 43.7592 13.4407C50.7814 6.42668 62.2047 6.42668 69.2269 13.4407C76.2491 20.4547 76.2491 31.8647 69.2269 38.8787C62.9336 45.1647 57.4392 44.1847 53.024 43.4007C49.7442 42.8127 47.1651 42.3647 44.8665 44.6467C44.6282 44.8707 44.3479 44.9967 44.0255 44.9967ZM39.0356 38.6267C39.2459 39.0467 40.2971 39.9147 40.7597 40.2927C41.1101 40.5727 41.4044 40.8247 41.6006 41.0207C41.8389 41.2587 42.1192 41.6087 42.4136 41.9867C42.8061 42.4767 43.577 43.4427 43.9554 43.6107C46.7447 40.8807 49.8983 41.4547 53.2483 42.0427C57.5653 42.8127 62.471 43.6807 68.2598 37.8987C74.7494 31.4167 74.7494 20.8747 68.2598 14.3927C61.7702 7.91068 51.2159 7.91068 44.7263 14.3927C38.9095 20.2027 39.8206 24.9907 40.6195 29.2327C41.2502 32.5787 41.8529 35.7287 39.0356 38.6267Z" fill="#7681A0"/>
<path d="M52.7297 35.9095L36.2464 52.3735C35.4335 53.1855 34.0879 53.1855 33.275 52.3735L30.2474 49.3495C29.4345 48.5375 29.4345 47.1935 30.2474 46.3815L46.7307 29.9175L52.7297 35.9095Z" fill="white"/>
<path d="M34.7607 53.4943C33.9337 53.4943 33.1068 53.1863 32.476 52.5563L30.0792 50.1623C29.4765 49.5603 29.1401 48.7483 29.1401 47.8803C29.1401 47.0123 29.4765 46.2143 30.0792 45.5983L46.7307 28.9663L53.6969 35.9243L37.0454 52.5423C36.4147 53.1723 35.5877 53.4943 34.7607 53.4943ZM46.7307 30.8703L31.0324 46.5503C30.6819 46.9003 30.4857 47.3763 30.4857 47.8663C30.4857 48.3703 30.6819 48.8323 31.0324 49.1823L33.4292 51.5763C34.158 52.3043 35.3494 52.3043 36.0783 51.5763L51.7766 35.8963L46.7307 30.8703Z" fill="#7681A0"/>
<path d="M49.7721 37.1139C52.1177 37.1139 54.0191 35.2147 54.0191 32.8719C54.0191 30.5291 52.1177 28.6299 49.7721 28.6299C47.4266 28.6299 45.5251 30.5291 45.5251 32.8719C45.5251 35.2147 47.4266 37.1139 49.7721 37.1139Z" fill="white"/>
<path d="M49.7722 37.7855C48.4546 37.7855 47.2212 37.2675 46.2961 36.3435C45.371 35.4194 44.8524 34.1734 44.8524 32.8714C44.8524 31.5554 45.371 30.3234 46.2961 29.3994C48.2164 27.4814 51.342 27.4814 53.2623 29.3994C55.1825 31.3174 55.1825 34.4394 53.2623 36.3575C52.3232 37.2815 51.0897 37.7855 49.7722 37.7855ZM49.7722 29.3154C48.8611 29.3154 47.95 29.6654 47.2492 30.3514C46.5764 31.0234 46.198 31.9194 46.198 32.8714C46.198 33.8234 46.5624 34.7194 47.2492 35.3914C47.922 36.0634 48.8191 36.4414 49.7722 36.4414C50.7253 36.4414 51.6223 36.0774 52.2951 35.3914C53.6828 34.0054 53.6828 31.7374 52.2951 30.3514C51.5943 29.6514 50.6832 29.3154 49.7722 29.3154Z" fill="#7681A0"/>
<path d="M69.1709 37.968C76.3613 30.786 76.7117 19.488 69.9418 12.726C63.1719 5.96397 51.8607 6.31397 44.6702 13.496C42.0071 16.156 40.2831 19.39 39.5122 22.75L59.9201 43.12C63.27 42.35 66.5078 40.628 69.1709 37.968Z" fill="white"/>
<path d="M59.6957 43.8626L59.4294 43.5966L38.7693 22.9606L38.8534 22.5966C39.6804 18.9986 41.5305 15.6806 44.1936 13.0206C51.6363 5.58661 63.4101 5.23661 70.4323 12.2506C77.4545 19.2646 77.1041 31.0106 69.6614 38.4586C66.9843 41.1326 63.6764 42.9666 60.0742 43.7926L59.6957 43.8626ZM40.269 22.5266L60.1303 42.3786C63.34 41.5666 66.2975 39.8866 68.7083 37.4926C75.6184 30.5906 75.9688 19.6846 69.4792 13.2026C62.9756 6.72061 52.0708 7.05661 45.1608 13.9726C42.764 16.3666 41.068 19.3206 40.269 22.5266Z" fill="#7681A0"/>
<path d="M47.3481 36.2024L46.3867 35.2422L37.0208 44.5972L37.9822 45.5574L47.3481 36.2024Z" fill="#7681A0"/>
<path d="M38.7274 45.8221L35.84 48.7061C35.3074 49.2381 34.4524 49.2381 33.9197 48.7061C33.3871 48.1741 33.3871 47.3201 33.9197 46.7881L36.8071 43.9041C37.3397 43.3721 38.1947 43.3721 38.7274 43.9041C39.246 44.4361 39.246 45.3041 38.7274 45.8221Z" fill="#7681A0"/>
<path d="M34.8869 49.7839C34.3683 49.7839 33.8497 49.5879 33.4432 49.1819C32.6443 48.3839 32.6443 47.0959 33.4432 46.2979L36.3306 43.4139C37.1295 42.6159 38.419 42.6159 39.2179 43.4139C40.0168 44.2119 40.0168 45.4999 39.2179 46.2979L36.3306 49.1819C35.9241 49.5879 35.4055 49.7839 34.8869 49.7839ZM37.7602 44.1839C37.592 44.1839 37.4098 44.2539 37.2837 44.3799L34.3963 47.2639C34.13 47.5299 34.13 47.9639 34.3963 48.2299C34.6626 48.4959 35.0971 48.4959 35.3634 48.2299L38.2508 45.3459C38.5171 45.0799 38.5171 44.6459 38.2508 44.3799C38.1106 44.2539 37.9424 44.1839 37.7602 44.1839Z" fill="#7681A0"/>
<path d="M43.7452 23.1975C44.1167 23.1975 44.418 22.8966 44.418 22.5255C44.418 22.1544 44.1167 21.8535 43.7452 21.8535C43.3736 21.8535 43.0724 22.1544 43.0724 22.5255C43.0724 22.8966 43.3736 23.1975 43.7452 23.1975Z" fill="#7681A0"/>
<path d="M46.6185 25.4101C46.3522 25.6762 45.9177 25.6762 45.6514 25.4101C45.3851 25.1441 45.3851 24.7101 45.6514 24.4441C45.9177 24.1781 46.3522 24.1781 46.6185 24.4441C46.8848 24.7101 46.8848 25.1441 46.6185 25.4101Z" fill="#7681A0"/>
<path d="M49.0294 27.8042C48.7631 28.0702 48.3286 28.0702 48.0623 27.8042C47.796 27.5382 47.796 27.1042 48.0623 26.8382C48.3286 26.5722 48.7631 26.5722 49.0294 26.8382C49.2957 27.1182 49.2957 27.5382 49.0294 27.8042Z" fill="#7681A0"/>
<path d="M51.4261 30.2119C51.1598 30.4779 50.7253 30.4779 50.459 30.2119C50.1927 29.9459 50.1927 29.5119 50.459 29.2459C50.7253 28.9799 51.1598 28.9799 51.4261 29.2459C51.6924 29.5119 51.6924 29.9459 51.4261 30.2119Z" fill="#7681A0"/>
<path d="M53.823 32.6059C53.5567 32.8719 53.1222 32.8719 52.8559 32.6059C52.5896 32.3399 52.5896 31.9059 52.8559 31.6399C53.1222 31.3739 53.5567 31.3739 53.823 31.6399C54.0893 31.9059 54.0893 32.3399 53.823 32.6059Z" fill="#7681A0"/>
<path d="M56.2338 35.0005C55.9675 35.2665 55.533 35.2665 55.2666 35.0005C55.0003 34.7345 55.0003 34.3005 55.2666 34.0345C55.533 33.7685 55.9675 33.7685 56.2338 34.0345C56.5001 34.3145 56.5001 34.7345 56.2338 35.0005Z" fill="#7681A0"/>
<path d="M58.154 37.5901C58.5256 37.5901 58.8268 37.2892 58.8268 36.9181C58.8268 36.547 58.5256 36.2461 58.154 36.2461C57.7824 36.2461 57.4812 36.547 57.4812 36.9181C57.4812 37.2892 57.7824 37.5901 58.154 37.5901Z" fill="#7681A0"/>
<path d="M61.0414 39.8022C60.7751 40.0682 60.3406 40.0682 60.0743 39.8022C59.8079 39.5362 59.8079 39.1022 60.0743 38.8362C60.3406 38.5702 60.7751 38.5702 61.0414 38.8362C61.3077 39.1022 61.3077 39.5362 61.0414 39.8022Z" fill="#7681A0"/>
<path d="M44.8244 20.0054C44.5581 20.2714 44.1236 20.2714 43.8573 20.0054C43.591 19.7394 43.591 19.3054 43.8573 19.0393C44.1236 18.7733 44.5581 18.7733 44.8244 19.0393C45.0908 19.3194 45.0908 19.7394 44.8244 20.0054Z" fill="#7681A0"/>
<path d="M47.2213 22.414C46.955 22.68 46.5205 22.68 46.2542 22.414C45.9879 22.148 45.9879 21.714 46.2542 21.448C46.5205 21.182 46.955 21.182 47.2213 21.448C47.4876 21.714 47.4876 22.148 47.2213 22.414Z" fill="#7681A0"/>
<path d="M49.632 24.8081C49.3657 25.0741 48.9311 25.0741 48.6648 24.8081C48.3985 24.5421 48.3985 24.1081 48.6648 23.8421C48.9311 23.5761 49.3657 23.5761 49.632 23.8421C49.8843 24.1081 49.8843 24.5421 49.632 24.8081Z" fill="#7681A0"/>
<path d="M51.5522 27.3977C51.9238 27.3977 52.2251 27.0968 52.2251 26.7257C52.2251 26.3546 51.9238 26.0537 51.5522 26.0537C51.1806 26.0537 50.8794 26.3546 50.8794 26.7257C50.8794 27.0968 51.1806 27.3977 51.5522 27.3977Z" fill="#7681A0"/>
<path d="M53.9491 29.7913C54.3207 29.7913 54.6219 29.4904 54.6219 29.1193C54.6219 28.7481 54.3207 28.4473 53.9491 28.4473C53.5776 28.4473 53.2764 28.7481 53.2764 29.1193C53.2764 29.4904 53.5776 29.7913 53.9491 29.7913Z" fill="#7681A0"/>
<path d="M56.8364 32.0044C56.5701 32.2704 56.1356 32.2704 55.8693 32.0044C55.603 31.7384 55.603 31.3044 55.8693 31.0384C56.1356 30.7724 56.5701 30.7724 56.8364 31.0384C57.1027 31.3044 57.1027 31.7384 56.8364 32.0044Z" fill="#7681A0"/>
<path d="M58.7568 34.594C59.1283 34.594 59.4296 34.2932 59.4296 33.922C59.4296 33.5509 59.1283 33.25 58.7568 33.25C58.3852 33.25 58.084 33.5509 58.084 33.922C58.084 34.2932 58.3852 34.594 58.7568 34.594Z" fill="#7681A0"/>
<path d="M61.63 36.8052C61.3637 37.0712 60.9292 37.0712 60.6629 36.8052C60.3966 36.5392 60.3966 36.1052 60.6629 35.8392C60.9292 35.5731 61.3637 35.5731 61.63 35.8392C61.8963 36.1052 61.8963 36.5392 61.63 36.8052Z" fill="#7681A0"/>
<path d="M63.5644 39.3967C63.936 39.3967 64.2372 39.0959 64.2372 38.7247C64.2372 38.3536 63.936 38.0527 63.5644 38.0527C63.1928 38.0527 62.8916 38.3536 62.8916 38.7247C62.8916 39.0959 63.1928 39.3967 63.5644 39.3967Z" fill="#7681A0"/>
<path d="M47.3473 19.6004C47.7189 19.6004 48.0201 19.2995 48.0201 18.9284C48.0201 18.5572 47.7189 18.2563 47.3473 18.2563C46.9758 18.2563 46.6746 18.5572 46.6746 18.9284C46.6746 19.2995 46.9758 19.6004 47.3473 19.6004Z" fill="#7681A0"/>
<path d="M45.4271 17.0107C45.1608 17.2767 44.7263 17.2767 44.46 17.0107C44.1937 16.7447 44.1937 16.3107 44.46 16.0447C44.7263 15.7787 45.1608 15.7787 45.4271 16.0447C45.6934 16.3107 45.6934 16.7447 45.4271 17.0107Z" fill="#7681A0"/>
<path d="M50.2209 21.8115C49.9545 22.0775 49.52 22.0775 49.2537 21.8115C48.9874 21.5455 48.9874 21.1115 49.2537 20.8455C49.52 20.5795 49.9545 20.5795 50.2209 20.8455C50.4872 21.1115 50.4872 21.5455 50.2209 21.8115Z" fill="#7681A0"/>
<path d="M52.155 24.4016C52.5265 24.4016 52.8278 24.1008 52.8278 23.7296C52.8278 23.3585 52.5265 23.0576 52.155 23.0576C51.7834 23.0576 51.4822 23.3585 51.4822 23.7296C51.4822 24.1008 51.7834 24.4016 52.155 24.4016Z" fill="#7681A0"/>
<path d="M55.0284 26.6001C54.7621 26.8661 54.3276 26.8661 54.0613 26.6001C53.795 26.3341 53.795 25.9001 54.0613 25.6341C54.3276 25.3681 54.7621 25.3681 55.0284 25.6341C55.2947 25.9141 55.2947 26.3481 55.0284 26.6001Z" fill="#7681A0"/>
<path d="M56.9487 29.2039C57.3202 29.2039 57.6214 28.903 57.6214 28.5319C57.6214 28.1607 57.3202 27.8599 56.9487 27.8599C56.5771 27.8599 56.2759 28.1607 56.2759 28.5319C56.2759 28.903 56.5771 29.2039 56.9487 29.2039Z" fill="#7681A0"/>
<path d="M59.3593 31.5979C59.7309 31.5979 60.0321 31.297 60.0321 30.9259C60.0321 30.5548 59.7309 30.2539 59.3593 30.2539C58.9877 30.2539 58.6865 30.5548 58.6865 30.9259C58.6865 31.297 58.9877 31.5979 59.3593 31.5979Z" fill="#7681A0"/>
<path d="M62.2328 33.8105C61.9665 34.0765 61.532 34.0765 61.2657 33.8105C60.9993 33.5445 60.9993 33.1105 61.2657 32.8445C61.532 32.5785 61.9665 32.5785 62.2328 32.8445C62.4991 33.1105 62.4991 33.5445 62.2328 33.8105Z" fill="#7681A0"/>
<path d="M64.6437 36.2046C64.3774 36.4706 63.9428 36.4706 63.6765 36.2046C63.4102 35.9386 63.4102 35.5046 63.6765 35.2386C63.9428 34.9726 64.3774 34.9726 64.6437 35.2386C64.91 35.5046 64.91 35.9386 64.6437 36.2046Z" fill="#7681A0"/>
<path d="M48.6649 16.1704C48.3986 16.4364 47.9641 16.4364 47.6978 16.1704C47.4315 15.9044 47.4315 15.4704 47.6978 15.2044C47.9641 14.9384 48.3986 14.9384 48.6649 15.2044C48.9312 15.4704 48.9312 15.9044 48.6649 16.1704Z" fill="#7681A0"/>
<path d="M51.0616 18.5644C50.7953 18.8304 50.3608 18.8304 50.0945 18.5644C49.8282 18.2984 49.8282 17.8644 50.0945 17.5984C50.3608 17.3324 50.7953 17.3324 51.0616 17.5984C51.3279 17.8784 51.3279 18.2984 51.0616 18.5644Z" fill="#7681A0"/>
<path d="M53.4726 20.9717C53.2063 21.2377 52.7717 21.2377 52.5054 20.9717C52.2391 20.7057 52.2391 20.2717 52.5054 20.0057C52.7717 19.7397 53.2063 19.7397 53.4726 20.0057C53.7389 20.2717 53.7389 20.7057 53.4726 20.9717Z" fill="#7681A0"/>
<path d="M55.8693 23.3652C55.603 23.6312 55.1685 23.6312 54.9022 23.3652C54.6359 23.0992 54.6359 22.6652 54.9022 22.3992C55.1685 22.1332 55.603 22.1332 55.8693 22.3992C56.1356 22.6652 56.1356 23.0992 55.8693 23.3652Z" fill="#7681A0"/>
<path d="M57.7896 25.9568C58.1612 25.9568 58.4624 25.6559 58.4624 25.2848C58.4624 24.9137 58.1612 24.6128 57.7896 24.6128C57.418 24.6128 57.1168 24.9137 57.1168 25.2848C57.1168 25.6559 57.418 25.9568 57.7896 25.9568Z" fill="#7681A0"/>
<path d="M60.6769 28.168C60.4106 28.434 59.9761 28.434 59.7097 28.168C59.4434 27.902 59.4434 27.4679 59.7097 27.2019C59.9761 26.9359 60.4106 26.9359 60.6769 27.2019C60.9432 27.4679 60.9432 27.902 60.6769 28.168Z" fill="#7681A0"/>
<path d="M62.5972 30.7575C62.9687 30.7575 63.2699 30.4567 63.2699 30.0856C63.2699 29.7144 62.9687 29.4136 62.5972 29.4136C62.2256 29.4136 61.9244 29.7144 61.9244 30.0856C61.9244 30.4567 62.2256 30.7575 62.5972 30.7575Z" fill="#7681A0"/>
<path d="M65.4845 32.9707C65.2182 33.2367 64.7837 33.2367 64.5174 32.9707C64.251 32.7047 64.251 32.2707 64.5174 32.0047C64.7837 31.7387 65.2182 31.7387 65.4845 32.0047C65.7508 32.2707 65.7508 32.7047 65.4845 32.9707Z" fill="#7681A0"/>
<path d="M51.1879 15.7639C51.5595 15.7639 51.8607 15.4631 51.8607 15.0919C51.8607 14.7208 51.5595 14.4199 51.1879 14.4199C50.8164 14.4199 50.5151 14.7208 50.5151 15.0919C50.5151 15.4631 50.8164 15.7639 51.1879 15.7639Z" fill="#7681A0"/>
<path d="M49.2677 13.1743C49.0014 13.4403 48.5669 13.4403 48.3006 13.1743C48.0343 12.9083 48.0343 12.4743 48.3006 12.2083C48.5669 11.9423 49.0014 11.9423 49.2677 12.2083C49.534 12.4743 49.534 12.9083 49.2677 13.1743Z" fill="#7681A0"/>
<path d="M54.0753 17.9619C53.809 18.2279 53.3745 18.2279 53.1082 17.9619C52.8419 17.6959 52.8419 17.2619 53.1082 16.9959C53.3745 16.7299 53.809 16.7299 54.0753 16.9959C54.3416 17.2759 54.3416 17.7099 54.0753 17.9619Z" fill="#7681A0"/>
<path d="M55.9955 20.5667C56.3671 20.5667 56.6683 20.2658 56.6683 19.8947C56.6683 19.5235 56.3671 19.2227 55.9955 19.2227C55.624 19.2227 55.3228 19.5235 55.3228 19.8947C55.3228 20.2658 55.624 20.5667 55.9955 20.5667Z" fill="#7681A0"/>
<path d="M58.8688 22.7646C58.6025 23.0306 58.1679 23.0306 57.9016 22.7646C57.6353 22.4986 57.6353 22.0646 57.9016 21.7986C58.1679 21.5326 58.6025 21.5326 58.8688 21.7986C59.1351 22.0786 59.1351 22.4986 58.8688 22.7646Z" fill="#7681A0"/>
<path d="M61.2796 25.1718C61.0133 25.4378 60.5788 25.4378 60.3125 25.1718C60.0462 24.9058 60.0462 24.4718 60.3125 24.2058C60.5788 23.9398 61.0133 23.9398 61.2796 24.2058C61.546 24.4718 61.546 24.9058 61.2796 25.1718Z" fill="#7681A0"/>
<path d="M63.6764 27.5654C63.4101 27.8314 62.9756 27.8314 62.7093 27.5654C62.4429 27.2994 62.4429 26.8654 62.7093 26.5994C62.9756 26.3334 63.4101 26.3334 63.6764 26.5994C63.9427 26.8654 63.9427 27.2994 63.6764 27.5654Z" fill="#7681A0"/>
<path d="M65.5967 30.156C65.9683 30.156 66.2695 29.8551 66.2695 29.484C66.2695 29.1129 65.9683 28.812 65.5967 28.812C65.2252 28.812 64.924 29.1129 64.924 29.484C64.924 29.8551 65.2252 30.156 65.5967 30.156Z" fill="#7681A0"/>
<path d="M68.0076 32.5501C68.3791 32.5501 68.6803 32.2492 68.6803 31.8781C68.6803 31.5069 68.3791 31.2061 68.0076 31.2061C67.636 31.2061 67.3348 31.5069 67.3348 31.8781C67.3348 32.2492 67.636 32.5501 68.0076 32.5501Z" fill="#7681A0"/>
<path d="M52.2673 12.5718C52.0009 12.8378 51.5664 12.8378 51.3001 12.5718C51.0338 12.3058 51.0338 11.8718 51.3001 11.6058C51.5664 11.3397 52.0009 11.3397 52.2673 11.6058C52.5336 11.8718 52.5336 12.3058 52.2673 12.5718Z" fill="#7681A0"/>
<path d="M54.6639 14.9658C54.3976 15.2318 53.9631 15.2318 53.6968 14.9658C53.4305 14.6998 53.4305 14.2658 53.6968 13.9998C53.9631 13.7338 54.3976 13.7338 54.6639 13.9998C54.9302 14.2798 54.9302 14.6998 54.6639 14.9658Z" fill="#7681A0"/>
<path d="M57.0748 17.3745C56.8085 17.6405 56.374 17.6405 56.1077 17.3745C55.8414 17.1085 55.8414 16.6745 56.1077 16.4085C56.374 16.1425 56.8085 16.1425 57.0748 16.4085C57.3411 16.6745 57.3411 17.1085 57.0748 17.3745Z" fill="#7681A0"/>
<path d="M58.9951 19.9641C59.3666 19.9641 59.6678 19.6633 59.6678 19.2921C59.6678 18.921 59.3666 18.6201 58.9951 18.6201C58.6235 18.6201 58.3223 18.921 58.3223 19.2921C58.3223 19.6633 58.6235 19.9641 58.9951 19.9641Z" fill="#7681A0"/>
<path d="M61.3918 22.3582C61.7634 22.3582 62.0646 22.0573 62.0646 21.6862C62.0646 21.315 61.7634 21.0142 61.3918 21.0142C61.0202 21.0142 60.719 21.315 60.719 21.6862C60.719 22.0573 61.0202 22.3582 61.3918 22.3582Z" fill="#7681A0"/>
<path d="M64.2792 24.5708C64.0128 24.8368 63.5783 24.8368 63.312 24.5708C63.0457 24.3048 63.0457 23.8708 63.312 23.6048C63.5783 23.3388 64.0128 23.3388 64.2792 23.6048C64.5455 23.8708 64.5455 24.3048 64.2792 24.5708Z" fill="#7681A0"/>
<path d="M66.6759 26.9639C66.4096 27.2299 65.9751 27.2299 65.7088 26.9639C65.4425 26.6979 65.4425 26.2638 65.7088 25.9978C65.9751 25.7318 66.4096 25.7318 66.6759 25.9978C66.9423 26.2778 66.9423 26.6979 66.6759 26.9639Z" fill="#7681A0"/>
<path d="M69.0868 29.3716C68.8205 29.6376 68.386 29.6376 68.1197 29.3716C67.8533 29.1056 67.8533 28.6716 68.1197 28.4056C68.386 28.1396 68.8205 28.1396 69.0868 28.4056C69.3531 28.6716 69.3531 29.1056 69.0868 29.3716Z" fill="#7681A0"/>
<path d="M67.4048 35.5603C67.7764 35.5603 68.0776 35.2594 68.0776 34.8883C68.0776 34.5172 67.7764 34.2163 67.4048 34.2163C67.0333 34.2163 66.7321 34.5172 66.7321 34.8883C66.7321 35.2594 67.0333 35.5603 67.4048 35.5603Z" fill="#7681A0"/>
<path d="M71.007 31.9617C71.3786 31.9617 71.6798 31.6608 71.6798 31.2897C71.6798 30.9185 71.3786 30.6177 71.007 30.6177C70.6354 30.6177 70.3342 30.9185 70.3342 31.2897C70.3342 31.6608 70.6354 31.9617 71.007 31.9617Z" fill="#7681A0"/>
<path d="M58.2802 11.3681C58.0138 11.6341 57.5793 11.6341 57.313 11.3681C57.0467 11.1021 57.0467 10.6681 57.313 10.4021C57.5793 10.1361 58.0138 10.1361 58.2802 10.4021C58.5325 10.6821 58.5325 11.1021 58.2802 11.3681Z" fill="#7681A0"/>
<path d="M60.2004 13.9578C60.5719 13.9578 60.8732 13.6569 60.8732 13.2858C60.8732 12.9146 60.5719 12.6138 60.2004 12.6138C59.8288 12.6138 59.5276 12.9146 59.5276 13.2858C59.5276 13.6569 59.8288 13.9578 60.2004 13.9578Z" fill="#7681A0"/>
<path d="M63.0738 16.1704C62.8075 16.4364 62.373 16.4364 62.1067 16.1704C61.8404 15.9044 61.8404 15.4704 62.1067 15.2044C62.373 14.9384 62.8075 14.9384 63.0738 15.2044C63.3401 15.4704 63.3401 15.9044 63.0738 16.1704Z" fill="#7681A0"/>
<path d="M65.4845 18.5644C65.2182 18.8304 64.7837 18.8304 64.5174 18.5644C64.251 18.2984 64.251 17.8644 64.5174 17.5984C64.7837 17.3324 65.2182 17.3324 65.4845 17.5984C65.7508 17.8784 65.7508 18.2984 65.4845 18.5644Z" fill="#7681A0"/>
<path d="M67.8815 20.9717C67.6151 21.2377 67.1806 21.2377 66.9143 20.9717C66.648 20.7057 66.648 20.2717 66.9143 20.0057C67.1806 19.7397 67.6151 19.7397 67.8815 20.0057C68.1478 20.2717 68.1478 20.7057 67.8815 20.9717Z" fill="#7681A0"/>
<path d="M70.2782 23.3652C70.0119 23.6312 69.5774 23.6312 69.3111 23.3652C69.0448 23.0992 69.0448 22.6652 69.3111 22.3992C69.5774 22.1332 70.0119 22.1332 70.2782 22.3992C70.5445 22.6652 70.5445 23.0992 70.2782 23.3652Z" fill="#7681A0"/>
<path d="M66.6759 12.5718C66.4096 12.8378 65.9751 12.8378 65.7088 12.5718C65.4425 12.3058 65.4425 11.8718 65.7088 11.6058C65.9751 11.3397 66.4096 11.3397 66.6759 11.6058C66.9423 11.8718 66.9423 12.3058 66.6759 12.5718Z" fill="#7681A0"/>
<path d="M69.0868 14.9658C68.8205 15.2318 68.386 15.2318 68.1197 14.9658C67.8533 14.6998 67.8533 14.2658 68.1197 13.9998C68.386 13.7338 68.8205 13.7338 69.0868 13.9998C69.3531 14.2798 69.3531 14.6998 69.0868 14.9658Z" fill="#7681A0"/>
<path d="M71.007 17.5564C71.3786 17.5564 71.6798 17.2555 71.6798 16.8844C71.6798 16.5133 71.3786 16.2124 71.007 16.2124C70.6354 16.2124 70.3342 16.5133 70.3342 16.8844C70.3342 17.2555 70.6354 17.5564 71.007 17.5564Z" fill="#7681A0"/>
<path d="M72.1984 25.9568C72.57 25.9568 72.8712 25.6559 72.8712 25.2848C72.8712 24.9137 72.57 24.6128 72.1984 24.6128C71.8269 24.6128 71.5256 24.9137 71.5256 25.2848C71.5256 25.6559 71.8269 25.9568 72.1984 25.9568Z" fill="#7681A0"/>
<path d="M54.7901 12.1663C55.1617 12.1663 55.4629 11.8654 55.4629 11.4943C55.4629 11.1231 55.1617 10.8223 54.7901 10.8223C54.4185 10.8223 54.1173 11.1231 54.1173 11.4943C54.1173 11.8654 54.4185 12.1663 54.7901 12.1663Z" fill="#7681A0"/>
<path d="M57.6775 14.3642C57.4112 14.6302 56.9767 14.6302 56.7104 14.3642C56.444 14.0982 56.444 13.6642 56.7104 13.3982C56.9767 13.1322 57.4112 13.1322 57.6775 13.3982C57.9439 13.6782 57.9439 14.1122 57.6775 14.3642Z" fill="#7681A0"/>
<path d="M60.0742 16.7715C59.8079 17.0375 59.3734 17.0375 59.1071 16.7715C58.8408 16.5055 58.8408 16.0715 59.1071 15.8055C59.3734 15.5395 59.8079 15.5395 60.0742 15.8055C60.3405 16.0715 60.3405 16.5055 60.0742 16.7715Z" fill="#7681A0"/>
<path d="M62.4711 19.166C62.2048 19.432 61.7703 19.432 61.5039 19.166C61.2376 18.9 61.2376 18.466 61.5039 18.2C61.7703 17.934 62.2048 17.934 62.4711 18.2C62.7374 18.48 62.7374 18.9 62.4711 19.166Z" fill="#7681A0"/>
<path d="M64.8819 21.5747C64.6156 21.8407 64.1811 21.8407 63.9148 21.5747C63.6485 21.3087 63.6485 20.8747 63.9148 20.6087C64.1811 20.3427 64.6156 20.3427 64.8819 20.6087C65.1482 20.8747 65.1482 21.3087 64.8819 21.5747Z" fill="#7681A0"/>
<path d="M66.8022 24.1638C67.1737 24.1638 67.475 23.863 67.475 23.4918C67.475 23.1207 67.1737 22.8198 66.8022 22.8198C66.4306 22.8198 66.1294 23.1207 66.1294 23.4918C66.1294 23.863 66.4306 24.1638 66.8022 24.1638Z" fill="#7681A0"/>
<path d="M69.1989 26.5574C69.5705 26.5574 69.8717 26.2565 69.8717 25.8854C69.8717 25.5142 69.5705 25.2134 69.1989 25.2134C68.8273 25.2134 68.5261 25.5142 68.5261 25.8854C68.5261 26.2565 68.8273 26.5574 69.1989 26.5574Z" fill="#7681A0"/>
<path d="M58.8688 8.37204C58.6025 8.63804 58.1679 8.63804 57.9016 8.37204C57.6353 8.10604 57.6353 7.67204 57.9016 7.40604C58.1679 7.14004 58.6025 7.14004 58.8688 7.40604C59.1351 7.67204 59.1351 8.10604 58.8688 8.37204Z" fill="#7681A0"/>
<path d="M61.2796 10.7656C61.0133 11.0316 60.5788 11.0316 60.3125 10.7656C60.0462 10.4996 60.0462 10.0656 60.3125 9.7996C60.5788 9.5336 61.0133 9.5336 61.2796 9.7996C61.546 10.0796 61.546 10.4996 61.2796 10.7656Z" fill="#7681A0"/>
<path d="M63.6764 13.1743C63.4101 13.4403 62.9756 13.4403 62.7093 13.1743C62.4429 12.9083 62.4429 12.4743 62.7093 12.2083C62.9756 11.9423 63.4101 11.9423 63.6764 12.2083C63.9427 12.4743 63.9427 12.9083 63.6764 13.1743Z" fill="#7681A0"/>
<path d="M65.5967 15.7639C65.9683 15.7639 66.2695 15.4631 66.2695 15.0919C66.2695 14.7208 65.9683 14.4199 65.5967 14.4199C65.2252 14.4199 64.924 14.7208 64.924 15.0919C64.924 15.4631 65.2252 15.7639 65.5967 15.7639Z" fill="#7681A0"/>
<path d="M68.484 17.9619C68.2177 18.2279 67.7832 18.2279 67.5169 17.9619C67.2506 17.6959 67.2506 17.2619 67.5169 16.9959C67.7832 16.7299 68.2177 16.7299 68.484 16.9959C68.7503 17.2759 68.7503 17.7099 68.484 17.9619Z" fill="#7681A0"/>
<path d="M70.8808 20.3706C70.6145 20.6366 70.18 20.6366 69.9137 20.3706C69.6474 20.1046 69.6474 19.6706 69.9137 19.4046C70.18 19.1386 70.6145 19.1386 70.8808 19.4046C71.1471 19.6706 71.1471 20.1046 70.8808 20.3706Z" fill="#7681A0"/>
<path d="M73.2918 22.7646C73.0255 23.0306 72.5909 23.0306 72.3246 22.7646C72.0583 22.4986 72.0583 22.0646 72.3246 21.7986C72.5909 21.5326 73.0255 21.5326 73.2918 21.7986C73.5581 22.0786 73.5581 22.4986 73.2918 22.7646Z" fill="#7681A0"/>
<path d="M72.0863 28.7705C71.82 29.0365 71.3855 29.0365 71.1192 28.7705C70.8529 28.5045 70.8529 28.0705 71.1192 27.8045C71.3855 27.5385 71.82 27.5385 72.0863 27.8045C72.3527 28.0705 72.3527 28.5045 72.0863 28.7705Z" fill="#7681A0"/>
<path d="M31.2286 14.56C41.7969 25.116 31.0604 32.956 37.0033 38.8921C37.8303 39.7181 35.1952 41.3001 34.3542 42.1541C33.5833 42.9241 31.8313 45.5561 31.0884 44.8141C24.9072 38.6401 17.4224 49.7141 6.74192 39.0321C-0.0420086 32.284 -0.042008 21.322 6.72791 14.56C13.4978 7.81202 24.4586 7.81202 31.2286 14.56Z" fill="white"/>
<path d="M31.3966 45.6258C31.1023 45.6258 30.822 45.5138 30.5977 45.2898C28.1869 42.8818 25.5938 43.3718 22.314 43.9878C17.9689 44.8138 12.5726 45.8218 6.25122 39.5078C2.84524 36.1198 0.967041 31.5978 0.967041 26.7958C0.967041 21.9938 2.84524 17.4718 6.2372 14.0838C9.64319 10.6818 14.1705 8.81982 18.9781 8.81982C23.7857 8.81982 28.313 10.6958 31.705 14.0838C37.9983 20.3698 37.0172 25.8578 36.2323 30.2678C35.6436 33.5438 35.1951 36.1198 37.4797 38.4158C37.732 38.6678 37.8582 38.9898 37.8301 39.3258C37.7741 40.2358 36.7088 41.0898 35.6716 41.9158C35.3352 42.1818 35.0129 42.4478 34.8166 42.6298C34.6624 42.7838 34.4242 43.0778 34.1719 43.3858C33.1066 44.6738 32.2937 45.5838 31.4387 45.6258C31.4387 45.6258 31.4106 45.6258 31.3966 45.6258ZM26.1965 42.1258C28.0327 42.1258 29.7847 42.6158 31.4667 44.2398C31.8872 44.0298 32.7562 42.9798 33.1347 42.5178C33.415 42.1818 33.6673 41.8738 33.8635 41.6778C34.1018 41.4398 34.4522 41.1598 34.8306 40.8658C35.3212 40.4738 36.2883 39.7038 36.4565 39.3258C33.7233 36.5538 34.298 33.3898 34.8867 30.0438C35.6576 25.7318 36.5266 20.8318 30.7379 15.0498C27.5982 11.9138 23.4073 10.1778 18.9641 10.1778C14.5209 10.1778 10.344 11.9138 7.19032 15.0498C4.03663 18.1858 2.31261 22.3718 2.31261 26.8098C2.31261 31.2478 4.05065 35.4198 7.19032 38.5698C13.0071 44.3798 17.8007 43.4698 22.0477 42.6718C23.4774 42.3918 24.851 42.1258 26.1965 42.1258Z" fill="#7681A0"/>
<path d="M46.8708 45.7797L37.9283 36.8477L29.042 45.7237L37.9844 54.6557C38.8534 55.5237 40.0028 55.9997 41.2222 55.9997C42.4556 55.9997 43.605 55.5237 44.46 54.6557L46.8568 52.2617C47.7258 51.3937 48.2023 50.2457 48.2023 49.0277C48.2163 47.7957 47.7398 46.6477 46.8708 45.7797Z" fill="white"/>
<path d="M28.7477 30.562L45.2309 47.026C46.0439 47.838 46.0439 49.182 45.2309 49.9939L42.2034 53.0179C41.3904 53.8299 40.0449 53.8299 39.2319 53.0179L22.7487 36.554L28.7477 30.562Z" fill="white"/>
<path d="M40.7176 54.1382C39.8486 54.1382 39.0497 53.8022 38.433 53.2002L21.7815 36.5542L28.7476 29.5962L45.3991 46.2282C46.0018 46.8302 46.3382 47.6422 46.3382 48.5102C46.3382 49.3782 46.0018 50.1762 45.3991 50.7922L43.0023 53.1862C42.3856 53.8022 41.5867 54.1382 40.7176 54.1382ZM23.7017 36.5542L39.4001 52.2342C39.7505 52.5842 40.2271 52.7802 40.7176 52.7802C41.2222 52.7802 41.6848 52.5842 42.0352 52.2342L44.432 49.8402C44.7824 49.4902 44.9786 49.0142 44.9786 48.5242C44.9786 48.0202 44.7824 47.5582 44.432 47.2082L28.7336 31.5282L23.7017 36.5542Z" fill="#7681A0"/>
<path d="M25.7061 37.7574C28.0516 37.7574 29.953 35.8582 29.953 33.5154C29.953 31.1726 28.0516 29.2734 25.7061 29.2734C23.3605 29.2734 21.4591 31.1726 21.4591 33.5154C21.4591 35.8582 23.3605 37.7574 25.7061 37.7574Z" fill="white"/>
<path d="M25.706 38.4306C24.4445 38.4306 23.183 37.9546 22.2159 36.9886C21.2908 36.0646 20.7722 34.8186 20.7722 33.5166C20.7722 32.2006 21.2908 30.9685 22.2159 30.0445C23.141 29.1205 24.3884 28.6025 25.692 28.6025C26.9955 28.6025 28.243 29.1205 29.168 30.0445C30.0931 30.9685 30.6117 32.2146 30.6117 33.5166C30.6117 34.8326 30.0931 36.0646 29.168 36.9886C28.2289 37.9546 26.9675 38.4306 25.706 38.4306ZM25.706 29.9605C24.7529 29.9605 23.8558 30.3245 23.183 31.0105C22.5102 31.6826 22.1318 32.5786 22.1318 33.5306C22.1318 34.4826 22.4962 35.3786 23.183 36.0506C24.5707 37.4366 26.8413 37.4366 28.2289 36.0506C28.9017 35.3786 29.2802 34.4826 29.2802 33.5306C29.2802 32.5786 28.9157 31.6826 28.2289 31.0105C27.5561 30.3245 26.6591 29.9605 25.706 29.9605Z" fill="#7681A0"/>
<path d="M37.4098 8.988C34.9289 8.988 32.9105 6.972 32.9105 4.494C32.9105 2.016 34.9289 0 37.4098 0C39.8907 0 41.909 2.016 41.909 4.494C41.909 6.972 39.8907 8.988 37.4098 8.988ZM37.4098 1.358C35.6717 1.358 34.2701 2.772 34.2701 4.494C34.2701 6.23 35.6858 7.63 37.4098 7.63C39.1478 7.63 40.5494 6.216 40.5494 4.494C40.5494 2.772 39.1478 1.358 37.4098 1.358Z" fill="#7681A0"/>
<path d="M30.794 14.1395C23.6036 6.95752 12.2923 6.60752 5.52242 13.3695C-1.2475 20.1315 -0.897088 31.4295 6.29332 38.6115C8.95644 41.2715 12.1942 42.9935 15.5582 43.7635L35.952 23.3935C35.1951 20.0335 33.4711 16.7995 30.794 14.1395Z" fill="white"/>
<path d="M15.7824 44.5054L15.418 44.4214C11.8158 43.5954 8.49388 41.7474 5.83077 39.0874C-1.62595 31.6534 -1.97636 19.8934 5.04585 12.8794C12.0681 5.87935 23.8278 6.21535 31.2845 13.6634C33.9617 16.3374 35.7978 19.6414 36.6248 23.2394L36.7089 23.6034L15.7824 44.5054ZM17.4504 9.19735C13.2314 9.19735 9.11061 10.7374 5.99897 13.8454C-0.476607 20.3274 -0.140214 31.2194 6.78388 38.1354C9.18069 40.5294 12.1381 42.2234 15.3619 43.0214L35.2231 23.1834C34.4102 19.9774 32.7282 17.0234 30.3314 14.6154C26.7152 11.0174 22.0337 9.19735 17.4504 9.19735Z" fill="#7681A0"/>
<path d="M29.0333 35.9441L28.0719 36.9043L37.4378 46.2592L38.3991 45.299L29.0333 35.9441Z" fill="#7681A0"/>
<path d="M38.6713 44.5616L41.5587 47.4456C42.0913 47.9776 42.0913 48.8316 41.5587 49.3636C41.0261 49.8956 40.1711 49.8956 39.6384 49.3636L36.751 46.4796C36.2184 45.9476 36.2184 45.0936 36.751 44.5616C37.2837 44.0296 38.1527 44.0296 38.6713 44.5616Z" fill="white"/>
<path d="M40.5914 50.4277C40.0728 50.4277 39.5542 50.2317 39.1477 49.8257L36.2603 46.9417C35.4614 46.1437 35.4614 44.8557 36.2603 44.0577C36.6388 43.6797 37.1574 43.4697 37.704 43.4697C38.2507 43.4697 38.7553 43.6797 39.1477 44.0577L42.0351 46.9417C42.4135 47.3197 42.6238 47.8377 42.6238 48.3837C42.6238 48.9297 42.4135 49.4337 42.0351 49.8257C41.6426 50.2317 41.124 50.4277 40.5914 50.4277ZM37.718 44.8417C37.5358 44.8417 37.3676 44.9117 37.2415 45.0377C36.9752 45.3037 36.9752 45.7377 37.2415 46.0037L40.1289 48.8877C40.3952 49.1537 40.8297 49.1537 41.096 48.8877C41.2221 48.7617 41.2922 48.5937 41.2922 48.4117C41.2922 48.2297 41.2221 48.0617 41.096 47.9357L38.2086 45.0517C38.0685 44.9117 37.9003 44.8417 37.718 44.8417Z" fill="#7681A0"/>
<path d="M15.8245 39.0598C16.0908 39.3258 16.0908 39.7598 15.8245 40.0258C15.5581 40.2918 15.1236 40.2918 14.8573 40.0258C14.591 39.7598 14.591 39.3258 14.8573 39.0598C15.1377 38.7939 15.5581 38.7939 15.8245 39.0598Z" fill="#7681A0"/>
<path d="M18.2352 36.6653C18.5015 36.9313 18.5015 37.3653 18.2352 37.6313C17.9689 37.8973 17.5344 37.8973 17.2681 37.6313C17.0018 37.3653 17.0018 36.9313 17.2681 36.6653C17.5344 36.3993 17.9689 36.3993 18.2352 36.6653Z" fill="#7681A0"/>
<path d="M20.6322 34.2722C20.8985 34.5382 20.8985 34.9722 20.6322 35.2382C20.3659 35.5042 19.9314 35.5042 19.6651 35.2382C19.3988 34.9722 19.3988 34.5382 19.6651 34.2722C19.9314 34.0063 20.3659 34.0063 20.6322 34.2722Z" fill="#7681A0"/>
<path d="M22.5524 33.0115C22.924 33.0115 23.2252 32.7106 23.2252 32.3395C23.2252 31.9683 22.924 31.6675 22.5524 31.6675C22.1809 31.6675 21.8796 31.9683 21.8796 32.3395C21.8796 32.7106 22.1809 33.0115 22.5524 33.0115Z" fill="#7681A0"/>
<path d="M24.9492 30.6174C25.3207 30.6174 25.6219 30.3165 25.6219 29.9454C25.6219 29.5743 25.3207 29.2734 24.9492 29.2734C24.5776 29.2734 24.2764 29.5743 24.2764 29.9454C24.2764 30.3165 24.5776 30.6174 24.9492 30.6174Z" fill="#7681A0"/>
<path d="M27.8365 27.0616C28.1028 27.3276 28.1028 27.7616 27.8365 28.0276C27.5702 28.2936 27.1357 28.2936 26.8694 28.0276C26.6031 27.7616 26.6031 27.3276 26.8694 27.0616C27.1497 26.8096 27.5702 26.8096 27.8365 27.0616Z" fill="#7681A0"/>
<path d="M29.7568 25.8167C30.1284 25.8167 30.4296 25.5158 30.4296 25.1447C30.4296 24.7735 30.1284 24.4727 29.7568 24.4727C29.3852 24.4727 29.084 24.7735 29.084 25.1447C29.084 25.5158 29.3852 25.8167 29.7568 25.8167Z" fill="#7681A0"/>
<path d="M32.6442 22.2742C32.9105 22.5402 32.9105 22.9742 32.6442 23.2402C32.3779 23.5062 31.9433 23.5062 31.677 23.2402C31.4107 22.9742 31.4107 22.5402 31.677 22.2742C31.9433 22.0082 32.3779 22.0082 32.6442 22.2742Z" fill="#7681A0"/>
<path d="M12.8251 38.458C13.0914 38.724 13.0914 39.1581 12.8251 39.4241C12.5588 39.6901 12.1242 39.6901 11.8579 39.4241C11.5916 39.1581 11.5916 38.724 11.8579 38.458C12.1242 38.206 12.5588 38.206 12.8251 38.458Z" fill="#7681A0"/>
<path d="M14.7452 37.2117C15.1167 37.2117 15.418 36.9108 15.418 36.5397C15.418 36.1685 15.1167 35.8677 14.7452 35.8677C14.3736 35.8677 14.0724 36.1685 14.0724 36.5397C14.0724 36.9108 14.3736 37.2117 14.7452 37.2117Z" fill="#7681A0"/>
<path d="M17.6327 33.6692C17.899 33.9352 17.899 34.3692 17.6327 34.6352C17.3664 34.9012 16.9319 34.9012 16.6656 34.6352C16.3992 34.3692 16.3992 33.9352 16.6656 33.6692C16.9319 33.4032 17.3664 33.4032 17.6327 33.6692Z" fill="#7681A0"/>
<path d="M19.5529 32.4241C19.9245 32.4241 20.2257 32.1232 20.2257 31.7521C20.2257 31.3809 19.9245 31.0801 19.5529 31.0801C19.1813 31.0801 18.8801 31.3809 18.8801 31.7521C18.8801 32.1232 19.1813 32.4241 19.5529 32.4241Z" fill="#7681A0"/>
<path d="M22.4403 28.868C22.7066 29.1339 22.7066 29.5679 22.4403 29.8339C22.174 30.0999 21.7395 30.0999 21.4732 29.8339C21.2069 29.5679 21.2069 29.1339 21.4732 28.868C21.7395 28.602 22.174 28.602 22.4403 28.868Z" fill="#7681A0"/>
<path d="M24.3605 27.6213C24.7321 27.6213 25.0333 27.3205 25.0333 26.9493C25.0333 26.5782 24.7321 26.2773 24.3605 26.2773C23.989 26.2773 23.6877 26.5782 23.6877 26.9493C23.6877 27.3205 23.989 27.6213 24.3605 27.6213Z" fill="#7681A0"/>
<path d="M27.2339 24.0657C27.5002 24.3317 27.5002 24.7657 27.2339 25.0317C26.9676 25.2977 26.5331 25.2977 26.2668 25.0317C26.0004 24.7657 26.0004 24.3317 26.2668 24.0657C26.5471 23.7997 26.9676 23.7997 27.2339 24.0657Z" fill="#7681A0"/>
<path d="M29.6447 21.6717C29.911 21.9377 29.911 22.3717 29.6447 22.6377C29.3784 22.9037 28.9438 22.9037 28.6775 22.6377C28.4112 22.3717 28.4112 21.9377 28.6775 21.6717C28.9438 21.4057 29.3784 21.4057 29.6447 21.6717Z" fill="#7681A0"/>
<path d="M32.0414 19.2642C32.3077 19.5302 32.3077 19.9642 32.0414 20.2302C31.7751 20.4962 31.3406 20.4962 31.0742 20.2302C30.8079 19.9642 30.8079 19.5302 31.0742 19.2642C31.3406 19.0122 31.7751 19.0122 32.0414 19.2642Z" fill="#7681A0"/>
<path d="M12.2223 35.4622C12.4886 35.7282 12.4886 36.1622 12.2223 36.4282C11.956 36.6942 11.5215 36.6942 11.2552 36.4282C10.9888 36.1622 10.9888 35.7282 11.2552 35.4622C11.5355 35.1962 11.956 35.1962 12.2223 35.4622Z" fill="#7681A0"/>
<path d="M9.34881 39.0178C9.72038 39.0178 10.0216 38.717 10.0216 38.3458C10.0216 37.9747 9.72038 37.6738 9.34881 37.6738C8.97724 37.6738 8.67603 37.9747 8.67603 38.3458C8.67603 38.717 8.97724 39.0178 9.34881 39.0178Z" fill="#7681A0"/>
<path d="M14.1425 34.2161C14.5141 34.2161 14.8153 33.9153 14.8153 33.5441C14.8153 33.173 14.5141 32.8721 14.1425 32.8721C13.7709 32.8721 13.4697 33.173 13.4697 33.5441C13.4697 33.9153 13.7709 34.2161 14.1425 34.2161Z" fill="#7681A0"/>
<path d="M16.5534 31.8216C16.925 31.8216 17.2262 31.5207 17.2262 31.1496C17.2262 30.7784 16.925 30.4775 16.5534 30.4775C16.1818 30.4775 15.8806 30.7784 15.8806 31.1496C15.8806 31.5207 16.1818 31.8216 16.5534 31.8216Z" fill="#7681A0"/>
<path d="M19.4266 28.2659C19.6929 28.5319 19.6929 28.9659 19.4266 29.2319C19.1603 29.4979 18.7258 29.4979 18.4595 29.2319C18.1932 28.9659 18.1932 28.5319 18.4595 28.2659C18.7398 27.9999 19.1603 27.9999 19.4266 28.2659Z" fill="#7681A0"/>
<path d="M21.8375 25.8719C22.1038 26.1379 22.1038 26.5719 21.8375 26.8378C21.5712 27.1038 21.1367 27.1038 20.8704 26.8378C20.6041 26.5719 20.6041 26.1379 20.8704 25.8719C21.1367 25.6059 21.5712 25.6059 21.8375 25.8719Z" fill="#7681A0"/>
<path d="M24.2342 23.4641C24.5005 23.7301 24.5005 24.1641 24.2342 24.4301C23.9679 24.6961 23.5334 24.6961 23.2671 24.4301C23.0008 24.1641 23.0008 23.7301 23.2671 23.4641C23.5334 23.1981 23.9679 23.1981 24.2342 23.4641Z" fill="#7681A0"/>
<path d="M26.6312 21.0696C26.8976 21.3356 26.8976 21.7696 26.6312 22.0356C26.3649 22.3016 25.9304 22.3016 25.6641 22.0356C25.3978 21.7696 25.3978 21.3356 25.6641 21.0696C25.9444 20.8036 26.3789 20.8036 26.6312 21.0696Z" fill="#7681A0"/>
<path d="M28.5654 19.824C28.9369 19.824 29.2382 19.5231 29.2382 19.152C29.2382 18.7808 28.9369 18.48 28.5654 18.48C28.1938 18.48 27.8926 18.7808 27.8926 19.152C27.8926 19.5231 28.1938 19.824 28.5654 19.824Z" fill="#7681A0"/>
<path d="M8.98449 34.6219C9.2508 34.8879 9.2508 35.3219 8.98449 35.5879C8.71818 35.8539 8.28367 35.8539 8.01736 35.5879C7.75105 35.3219 7.75105 34.8879 8.01736 34.6219C8.28367 34.3559 8.71818 34.3559 8.98449 34.6219Z" fill="#7681A0"/>
<path d="M10.9047 33.3767C11.2763 33.3767 11.5775 33.0758 11.5775 32.7047C11.5775 32.3336 11.2763 32.0327 10.9047 32.0327C10.5332 32.0327 10.2319 32.3336 10.2319 32.7047C10.2319 33.0758 10.5332 33.3767 10.9047 33.3767Z" fill="#7681A0"/>
<path d="M13.3016 30.9812C13.6731 30.9812 13.9744 30.6803 13.9744 30.3092C13.9744 29.9381 13.6731 29.6372 13.3016 29.6372C12.93 29.6372 12.6288 29.9381 12.6288 30.3092C12.6288 30.6803 12.93 30.9812 13.3016 30.9812Z" fill="#7681A0"/>
<path d="M15.7123 28.574C16.0839 28.574 16.3851 28.2731 16.3851 27.902C16.3851 27.5308 16.0839 27.23 15.7123 27.23C15.3408 27.23 15.0396 27.5308 15.0396 27.902C15.0396 28.2731 15.3408 28.574 15.7123 28.574Z" fill="#7681A0"/>
<path d="M18.5856 25.032C18.8519 25.298 18.8519 25.732 18.5856 25.998C18.3192 26.264 17.8847 26.264 17.6184 25.998C17.3521 25.732 17.3521 25.298 17.6184 25.032C17.8988 24.766 18.3192 24.766 18.5856 25.032Z" fill="#7681A0"/>
<path d="M20.9966 22.6248C21.2629 22.8908 21.2629 23.3248 20.9966 23.5908C20.7303 23.8568 20.2958 23.8568 20.0294 23.5908C19.7631 23.3248 19.7631 22.8908 20.0294 22.6248C20.2958 22.3588 20.7303 22.3588 20.9966 22.6248Z" fill="#7681A0"/>
<path d="M23.3933 20.2293C23.6596 20.4953 23.6596 20.9293 23.3933 21.1953C23.127 21.4613 22.6925 21.4613 22.4262 21.1953C22.1599 20.9293 22.1599 20.4953 22.4262 20.2293C22.6925 19.9633 23.127 19.9633 23.3933 20.2293Z" fill="#7681A0"/>
<path d="M25.3136 18.9841C25.6852 18.9841 25.9864 18.6833 25.9864 18.3121C25.9864 17.941 25.6852 17.6401 25.3136 17.6401C24.9421 17.6401 24.6409 17.941 24.6409 18.3121C24.6409 18.6833 24.9421 18.9841 25.3136 18.9841Z" fill="#7681A0"/>
<path d="M8.38196 31.6258C8.64827 31.8918 8.64827 32.3258 8.38196 32.5918C8.11564 32.8578 7.68113 32.8578 7.41482 32.5918C7.14851 32.3258 7.14851 31.8918 7.41482 31.6258C7.68113 31.3598 8.11564 31.3598 8.38196 31.6258Z" fill="#7681A0"/>
<path d="M5.98498 34.0201C6.2513 34.2861 6.2513 34.7201 5.98498 34.9861C5.71867 35.2521 5.28416 35.2521 5.01785 34.9861C4.75154 34.7201 4.75154 34.2861 5.01785 34.0201C5.28416 33.7681 5.71867 33.7681 5.98498 34.0201Z" fill="#7681A0"/>
<path d="M10.7786 29.2317C11.0449 29.4977 11.0449 29.9317 10.7786 30.1977C10.5123 30.4638 10.0777 30.4638 9.81143 30.1977C9.54512 29.9317 9.54512 29.4977 9.81143 29.2317C10.0918 28.9657 10.5123 28.9657 10.7786 29.2317Z" fill="#7681A0"/>
<path d="M13.1893 26.824C13.4556 27.09 13.4556 27.524 13.1893 27.79C12.923 28.056 12.4885 28.056 12.2222 27.79C11.9559 27.524 11.9559 27.09 12.2222 26.824C12.4885 26.558 12.923 26.558 13.1893 26.824Z" fill="#7681A0"/>
<path d="M15.5863 24.4295C15.8526 24.6955 15.8526 25.1295 15.5863 25.3955C15.32 25.6615 14.8855 25.6615 14.6192 25.3955C14.3529 25.1295 14.3529 24.6955 14.6192 24.4295C14.8995 24.1635 15.32 24.1635 15.5863 24.4295Z" fill="#7681A0"/>
<path d="M17.5065 23.1843C17.8781 23.1843 18.1793 22.8835 18.1793 22.5123C18.1793 22.1412 17.8781 21.8403 17.5065 21.8403C17.135 21.8403 16.8337 22.1412 16.8337 22.5123C16.8337 22.8835 17.135 23.1843 17.5065 23.1843Z" fill="#7681A0"/>
<path d="M20.3939 19.6277C20.6603 19.8937 20.6603 20.3277 20.3939 20.5937C20.1276 20.8597 19.6931 20.8597 19.4268 20.5937C19.1605 20.3277 19.1605 19.8937 19.4268 19.6277C19.6931 19.3617 20.1276 19.3617 20.3939 19.6277Z" fill="#7681A0"/>
<path d="M22.7907 17.2347C23.057 17.5007 23.057 17.9346 22.7907 18.2006C22.5243 18.4666 22.0898 18.4666 21.8235 18.2006C21.5572 17.9346 21.5572 17.5007 21.8235 17.2347C22.1038 16.9687 22.5243 16.9687 22.7907 17.2347Z" fill="#7681A0"/>
<path d="M25.2015 14.8262C25.4678 15.0922 25.4678 15.5262 25.2015 15.7922C24.9352 16.0582 24.5007 16.0582 24.2344 15.7922C23.9681 15.5262 23.9681 15.0922 24.2344 14.8262C24.5007 14.5742 24.9352 14.5742 25.2015 14.8262Z" fill="#7681A0"/>
<path d="M5.38219 31.0242C5.6485 31.2902 5.6485 31.7242 5.38219 31.9902C5.11588 32.2562 4.68138 32.2562 4.41506 31.9902C4.14875 31.7242 4.14875 31.2902 4.41506 31.0242C4.68138 30.7582 5.11588 30.7582 5.38219 31.0242Z" fill="#7681A0"/>
<path d="M7.30255 29.7781C7.67412 29.7781 7.97534 29.4773 7.97534 29.1061C7.97534 28.735 7.67412 28.4341 7.30255 28.4341C6.93098 28.4341 6.62976 28.735 6.62976 29.1061C6.62976 29.4773 6.93098 29.7781 7.30255 29.7781Z" fill="#7681A0"/>
<path d="M10.1899 26.2212C10.4562 26.4872 10.4562 26.9212 10.1899 27.1872C9.92362 27.4532 9.48911 27.4532 9.2228 27.1872C8.95649 26.9212 8.95649 26.4872 9.2228 26.2212C9.48911 25.9692 9.92362 25.9692 10.1899 26.2212Z" fill="#7681A0"/>
<path d="M12.1103 24.9763C12.4819 24.9763 12.7831 24.6755 12.7831 24.3043C12.7831 23.9332 12.4819 23.6323 12.1103 23.6323C11.7387 23.6323 11.4375 23.9332 11.4375 24.3043C11.4375 24.6755 11.7387 24.9763 12.1103 24.9763Z" fill="#7681A0"/>
<path d="M14.9835 21.4349C15.2498 21.7008 15.2498 22.1348 14.9835 22.4008C14.7172 22.6668 14.2827 22.6668 14.0164 22.4008C13.7501 22.1348 13.7501 21.7008 14.0164 21.4349C14.2967 21.1689 14.7172 21.1689 14.9835 21.4349Z" fill="#7681A0"/>
<path d="M16.9037 20.1877C17.2753 20.1877 17.5765 19.8869 17.5765 19.5157C17.5765 19.1446 17.2753 18.8438 16.9037 18.8438C16.5322 18.8438 16.231 19.1446 16.231 19.5157C16.231 19.8869 16.5322 20.1877 16.9037 20.1877Z" fill="#7681A0"/>
<path d="M19.3146 17.7801C19.6862 17.7801 19.9874 17.4792 19.9874 17.108C19.9874 16.7369 19.6862 16.436 19.3146 16.436C18.9431 16.436 18.6418 16.7369 18.6418 17.108C18.6418 17.4792 18.9431 17.7801 19.3146 17.7801Z" fill="#7681A0"/>
<path d="M21.7114 15.3864C22.0829 15.3864 22.3841 15.0856 22.3841 14.7145C22.3841 14.3433 22.0829 14.0425 21.7114 14.0425C21.3398 14.0425 21.0386 14.3433 21.0386 14.7145C21.0386 15.0856 21.3398 15.3864 21.7114 15.3864Z" fill="#7681A0"/>
<path d="M27.7244 16.5901C28.096 16.5901 28.3972 16.2892 28.3972 15.9181C28.3972 15.547 28.096 15.2461 27.7244 15.2461C27.3529 15.2461 27.0516 15.547 27.0516 15.9181C27.0516 16.2892 27.3529 16.5901 27.7244 16.5901Z" fill="#7681A0"/>
<path d="M24.5987 11.8299C24.865 12.0959 24.865 12.5299 24.5987 12.7959C24.3324 13.0619 23.8979 13.0619 23.6316 12.7959C23.3653 12.5299 23.3653 12.0959 23.6316 11.8299C23.8979 11.5639 24.3324 11.5639 24.5987 11.8299Z" fill="#7681A0"/>
<path d="M4.17687 25.032C4.44319 25.298 4.44319 25.732 4.17687 25.998C3.91056 26.264 3.47605 26.264 3.20974 25.998C2.94343 25.732 2.94343 25.298 3.20974 25.032C3.47605 24.766 3.91056 24.766 4.17687 25.032Z" fill="#7681A0"/>
<path d="M6.5736 22.6248C6.83991 22.8908 6.83991 23.3248 6.5736 23.5908C6.30729 23.8568 5.87278 23.8568 5.60647 23.5908C5.34016 23.3248 5.34016 22.8908 5.60647 22.6248C5.8868 22.3588 6.3213 22.3588 6.5736 22.6248Z" fill="#7681A0"/>
<path d="M8.98449 20.2293C9.2508 20.4953 9.2508 20.9293 8.98449 21.1953C8.71818 21.4613 8.28367 21.4613 8.01736 21.1953C7.75105 20.9293 7.75105 20.4953 8.01736 20.2293C8.28367 19.9633 8.71818 19.9633 8.98449 20.2293Z" fill="#7681A0"/>
<path d="M10.9047 18.9841C11.2763 18.9841 11.5775 18.6833 11.5775 18.3121C11.5775 17.941 11.2763 17.6401 10.9047 17.6401C10.5332 17.6401 10.2319 17.941 10.2319 18.3121C10.2319 18.6833 10.5332 18.9841 10.9047 18.9841Z" fill="#7681A0"/>
<path d="M13.3016 16.5901C13.6731 16.5901 13.9744 16.2892 13.9744 15.9181C13.9744 15.547 13.6731 15.2461 13.3016 15.2461C12.93 15.2461 12.6288 15.547 12.6288 15.9181C12.6288 16.2892 12.93 16.5901 13.3016 16.5901Z" fill="#7681A0"/>
<path d="M16.1888 13.0345C16.4552 13.3005 16.4552 13.7345 16.1888 14.0005C15.9225 14.2665 15.488 14.2665 15.2217 14.0005C14.9554 13.7345 14.9554 13.3005 15.2217 13.0345C15.488 12.7685 15.9225 12.7685 16.1888 13.0345Z" fill="#7681A0"/>
<path d="M5.38219 16.6321C5.6485 16.8981 5.6485 17.3321 5.38219 17.5981C5.11588 17.8641 4.68138 17.8641 4.41506 17.5981C4.14875 17.3321 4.14875 16.8981 4.41506 16.6321C4.68138 16.3661 5.11588 16.3661 5.38219 16.6321Z" fill="#7681A0"/>
<path d="M7.30255 15.3864C7.67412 15.3864 7.97534 15.0856 7.97534 14.7145C7.97534 14.3433 7.67412 14.0425 7.30255 14.0425C6.93098 14.0425 6.62976 14.3433 6.62976 14.7145C6.62976 15.0856 6.93098 15.3864 7.30255 15.3864Z" fill="#7681A0"/>
<path d="M10.1899 11.8299C10.4562 12.0959 10.4562 12.5299 10.1899 12.7959C9.92362 13.0619 9.48911 13.0619 9.2228 12.7959C8.95649 12.5299 8.95649 12.0959 9.2228 11.8299C9.48911 11.5639 9.92362 11.5639 10.1899 11.8299Z" fill="#7681A0"/>
<path d="M18.5856 10.6399C18.8519 10.9059 18.8519 11.3399 18.5856 11.6059C18.3192 11.8719 17.8847 11.8719 17.6184 11.6059C17.3521 11.3399 17.3521 10.9059 17.6184 10.6399C17.8988 10.3739 18.3192 10.3739 18.5856 10.6399Z" fill="#7681A0"/>
<path d="M4.30292 29.1765C4.67449 29.1765 4.9757 28.8757 4.9757 28.5045C4.9757 28.1334 4.67449 27.8325 4.30292 27.8325C3.93134 27.8325 3.63013 28.1334 3.63013 28.5045C3.63013 28.8757 3.93134 29.1765 4.30292 29.1765Z" fill="#7681A0"/>
<path d="M6.69989 26.782C7.07146 26.782 7.37267 26.4811 7.37267 26.11C7.37267 25.7389 7.07146 25.438 6.69989 25.438C6.32832 25.438 6.0271 25.7389 6.0271 26.11C6.0271 26.4811 6.32832 26.782 6.69989 26.782Z" fill="#7681A0"/>
<path d="M9.09661 24.3875C9.46818 24.3875 9.7694 24.0866 9.7694 23.7155C9.7694 23.3443 9.46818 23.0435 9.09661 23.0435C8.72504 23.0435 8.42383 23.3443 8.42383 23.7155C8.42383 24.0866 8.72504 24.3875 9.09661 24.3875Z" fill="#7681A0"/>
<path d="M11.984 20.8318C12.2503 21.0978 12.2503 21.5318 11.984 21.7978C11.7177 22.0638 11.2832 22.0638 11.0169 21.7978C10.7506 21.5318 10.7506 21.0978 11.0169 20.8318C11.2832 20.5658 11.7177 20.5658 11.984 20.8318Z" fill="#7681A0"/>
<path d="M14.3807 18.4378C14.647 18.7038 14.647 19.1378 14.3807 19.4038C14.1144 19.6698 13.6799 19.6698 13.4136 19.4038C13.1473 19.1378 13.1473 18.7038 13.4136 18.4378C13.6939 18.1718 14.1284 18.1718 14.3807 18.4378Z" fill="#7681A0"/>
<path d="M16.7916 16.0291C17.0579 16.2951 17.0579 16.7291 16.7916 16.9951C16.5253 17.2611 16.0908 17.2611 15.8245 16.9951C15.5582 16.7291 15.5582 16.2951 15.8245 16.0291C16.0908 15.7631 16.5253 15.7631 16.7916 16.0291Z" fill="#7681A0"/>
<path d="M19.1883 13.636C19.4547 13.902 19.4547 14.336 19.1883 14.602C18.922 14.868 18.4875 14.868 18.2212 14.602C17.9549 14.336 17.9549 13.902 18.2212 13.636C18.5015 13.37 18.922 13.37 19.1883 13.636Z" fill="#7681A0"/>
<path d="M0.700863 25.5779C1.07243 25.5779 1.37365 25.277 1.37365 24.9059C1.37365 24.5347 1.07243 24.2339 0.700863 24.2339C0.329293 24.2339 0.0280762 24.5347 0.0280762 24.9059C0.0280762 25.277 0.329293 25.5779 0.700863 25.5779Z" fill="#7681A0"/>
<path d="M3.57421 22.0354C3.84052 22.3014 3.84052 22.7354 3.57421 23.0014C3.3079 23.2674 2.87339 23.2674 2.60708 23.0014C2.34077 22.7354 2.34077 22.3014 2.60708 22.0354C2.88741 21.7694 3.3079 21.7694 3.57421 22.0354Z" fill="#7681A0"/>
<path d="M5.98498 19.6277C6.2513 19.8937 6.2513 20.3277 5.98498 20.5937C5.71867 20.8597 5.28416 20.8597 5.01785 20.5937C4.75154 20.3277 4.75154 19.8937 5.01785 19.6277C5.28416 19.3617 5.71867 19.3617 5.98498 19.6277Z" fill="#7681A0"/>
<path d="M7.90521 18.3816C8.27678 18.3816 8.578 18.0807 8.578 17.7096C8.578 17.3385 8.27678 17.0376 7.90521 17.0376C7.53364 17.0376 7.23242 17.3385 7.23242 17.7096C7.23242 18.0807 7.53364 18.3816 7.90521 18.3816Z" fill="#7681A0"/>
<path d="M10.7786 14.8262C11.0449 15.0922 11.0449 15.5262 10.7786 15.7922C10.5123 16.0582 10.0777 16.0582 9.81143 15.7922C9.54512 15.5262 9.54512 15.0922 9.81143 14.8262C10.0918 14.5742 10.5123 14.5742 10.7786 14.8262Z" fill="#7681A0"/>
<path d="M12.6989 13.5798C13.0705 13.5798 13.3717 13.279 13.3717 12.9078C13.3717 12.5367 13.0705 12.2358 12.6989 12.2358C12.3273 12.2358 12.0261 12.5367 12.0261 12.9078C12.0261 13.279 12.3273 13.5798 12.6989 13.5798Z" fill="#7681A0"/>
<path d="M15.1097 11.1868C15.4812 11.1868 15.7825 10.8859 15.7825 10.5148C15.7825 10.1436 15.4812 9.84277 15.1097 9.84277C14.7381 9.84277 14.4369 10.1436 14.4369 10.5148C14.4369 10.8859 14.7381 11.1868 15.1097 11.1868Z" fill="#7681A0"/>
<path d="M21.1088 12.3899C21.4804 12.3899 21.7816 12.089 21.7816 11.7179C21.7816 11.3468 21.4804 11.0459 21.1088 11.0459C20.7373 11.0459 20.436 11.3468 20.436 11.7179C20.436 12.089 20.7373 12.3899 21.1088 12.3899Z" fill="#7681A0"/>
</svg>
