<svg width="56" height="56" viewBox="0 0 56 56" fill="none" xmlns="http://www.w3.org/2000/svg">
<g clip-path="url(#clip0)">
<path d="M27.7343 23.9045C23.388 23.9045 19.794 20.3941 19.794 15.9642C19.794 11.618 23.3045 8.02393 27.7343 8.02393C32.0806 8.02393 35.6746 11.5344 35.6746 15.9642C35.591 20.3941 32.0806 23.9045 27.7343 23.9045ZM27.7343 10.4478C24.6418 10.4478 22.2179 12.9553 22.2179 15.9642C22.2179 19.0568 24.7253 21.4806 27.7343 21.4806C30.8268 21.4806 33.2507 18.9732 33.2507 15.9642C33.2507 12.9553 30.7433 10.4478 27.7343 10.4478Z" fill="#7681A0" stroke="white"/>
<path d="M27.7343 45.0508C27.4 45.0508 27.0657 44.8836 26.8985 44.7165C26.2299 44.0478 12.3552 29.1702 12.3552 15.7971C12.3552 7.35528 19.209 0.417969 27.7343 0.417969C36.2597 0.417969 43.1134 7.35528 43.1134 15.7971C43.1134 29.0866 29.1552 44.0478 28.5702 44.6329C28.3194 44.8836 28.0687 45.0508 27.7343 45.0508ZM27.7343 2.75827C20.5463 2.75827 14.6955 8.60901 14.6955 15.7971C14.6955 25.7433 23.4716 37.1105 27.2328 41.5404C27.3164 41.7075 27.4836 41.7075 27.6507 41.7075C27.8179 41.7075 27.9851 41.6239 28.0687 41.5404C31.8299 37.1105 40.606 25.7433 40.606 15.7971C40.7731 8.60901 34.9224 2.75827 27.7343 2.75827Z" fill="#7681A0" stroke="white"/>
<path d="M27.7343 50.3165C21.2149 50.3165 14.194 48.0598 14.194 43.8807C14.194 42.7942 14.7791 40.7046 18.4567 39.1165C18.6239 39.033 18.791 39.033 18.9582 39.033C19.4597 39.033 19.8776 39.2837 20.0448 39.7016C20.2119 39.9524 20.2119 40.2867 20.0448 40.621C19.9612 40.9553 19.7104 41.1225 19.4597 41.2897C17.7045 42.0419 16.6179 43.0449 16.6179 43.8807C16.6179 45.8031 21.3821 47.9762 27.7343 47.9762C34.0866 47.9762 38.8507 45.8031 38.8507 43.8807C38.8507 43.0449 37.7642 42.0419 36.009 41.2897C35.7582 41.1225 35.5075 40.9553 35.3403 40.621C35.2567 40.2867 35.2567 40.0359 35.3403 39.7016C35.5075 39.2837 35.9254 39.033 36.4269 39.033C36.594 39.033 36.7612 39.033 36.9284 39.1165C40.606 40.7046 41.191 42.7942 41.191 43.8807C41.191 48.0598 34.2537 50.3165 27.7343 50.3165Z" fill="#7681A0" stroke="white"/>
<path d="M27.7343 55.5821C15.0298 55.5821 5.41791 50.9015 5.41791 44.7164C5.41791 40.9552 9.01194 37.6955 15.197 35.6895C15.2806 35.6895 15.4478 35.606 15.5313 35.606C16.0328 35.606 16.5343 35.9403 16.6179 36.4418C16.7851 37.0269 16.4507 37.6955 15.8657 37.9463C10.7672 39.6179 7.67462 42.1254 7.67462 44.7164C7.67462 48.8119 15.6985 53.2418 27.6507 53.2418C39.603 53.2418 47.6269 48.8119 47.6269 44.7164C47.6269 42.1254 44.6179 39.6179 39.603 37.9463C39.2687 37.8627 39.1015 37.6119 38.9343 37.3612C38.7672 37.1104 38.7672 36.7761 38.8507 36.4418C39.0179 35.9403 39.4358 35.606 39.9373 35.606C40.1045 35.606 40.1881 35.606 40.3552 35.6895C46.4567 37.6955 49.9672 40.9552 49.9672 44.7164C50.0507 50.9015 40.4388 55.5821 27.7343 55.5821Z" fill="#7681A0" stroke="white"/>
</g>
<defs>
<clipPath id="clip0">
<rect width="56" height="56" fill="white"/>
</clipPath>
</defs>
</svg>
