<svg width="56" height="56" viewBox="0 0 56 56" fill="none" xmlns="http://www.w3.org/2000/svg">
<path d="M33.1774 19.1671C31.435 19.1612 29.7551 19.816 28.4761 20.9994C25.6991 18.4822 21.4239 18.6297 18.8269 21.3322C16.2299 24.0347 16.2528 28.3125 18.8785 30.9871L27.2752 39.3837C27.5949 39.7086 28.0306 39.8932 28.4864 39.8969C28.9427 39.8955 29.3792 39.7105 29.6977 39.3837L38.0686 31.0025C40.055 29.0219 40.6513 26.0391 39.579 23.4471C38.5067 20.8552 35.9774 19.1654 33.1723 19.1671H33.1774ZM36.9806 29.9144L28.6045 38.2956C28.537 38.3601 28.4307 38.3601 28.3632 38.2956L19.9717 29.9041C18.5555 28.5549 17.9815 26.5443 18.4721 24.6508C18.9626 22.7572 20.4407 21.2782 22.3339 20.7864C24.227 20.2946 26.2381 20.8672 27.5882 22.2825L27.9321 22.6264C28.2381 22.9132 28.7142 22.9132 29.0202 22.6264L29.3589 22.2876C30.7213 20.9262 32.7065 20.3949 34.5668 20.894C36.4271 21.3932 37.8798 22.8468 38.3776 24.7074C38.8755 26.568 38.343 28.5529 36.9806 29.9144ZM52.2238 25.6596C52.8838 24.747 53.12 23.595 52.8726 22.4963C52.6252 21.3976 51.9179 20.4581 50.9305 19.9164L49.8424 19.3211C48.9434 18.8279 48.4599 17.8155 48.6414 16.8062L48.8621 15.5847C48.903 15.3543 48.9237 15.1207 48.9237 14.8867C48.9237 12.7989 47.2878 11.0772 45.2027 10.9706L43.9606 10.9039C42.9368 10.8502 42.0622 10.1473 41.7896 9.15891L41.456 7.98358C41.1526 6.90321 40.4013 6.0043 39.392 5.51385C38.3826 5.02341 37.2117 4.98828 36.1748 5.41736L35.0302 5.89468C34.0847 6.29076 32.9918 6.03871 32.3152 5.26852L31.494 4.33444C30.7505 3.48841 29.6794 3.0024 28.5531 3C27.431 2.99997 26.3625 3.48005 25.6174 4.31903L24.7705 5.23773C24.091 6.00394 22.9977 6.24987 22.0555 5.84848L20.911 5.36606C19.8741 4.92556 18.698 4.95163 17.6817 5.43768C16.6654 5.92374 15.9068 6.82293 15.5989 7.90659L15.2602 9.10245C14.979 10.0862 14.1009 10.7803 13.0789 10.8269L11.8369 10.8885C9.74252 10.9819 8.09324 12.7082 8.09532 14.8046C8.09472 15.0316 8.11361 15.2582 8.15178 15.482L8.36734 16.7087C8.54137 17.7181 8.05188 18.726 7.15095 19.2133L6.06288 19.7881C5.06884 20.3241 4.35374 21.2622 4.10023 22.3627C3.84672 23.4632 4.07936 24.6196 4.73872 25.5364L5.46239 26.5629C6.06112 27.3954 6.06112 28.5173 5.46239 29.3498L4.73359 30.3763C4.08776 31.2857 3.85921 32.4269 4.10501 33.5149C4.35081 34.6029 5.04776 35.535 6.02183 36.0784L7.1099 36.6738C8.01016 37.1659 8.49408 38.1792 8.31088 39.1887L8.09019 40.4102C8.04924 40.6406 8.02864 40.8742 8.0286 41.1082C8.02861 43.196 9.66453 44.9177 11.7496 45.0242L12.9916 45.0909C14.0141 45.1439 14.8882 45.8445 15.1627 46.8308L15.4963 48.0164C15.7997 49.0968 16.551 49.9957 17.5603 50.4861C18.5696 50.9766 19.7406 51.0117 20.7775 50.5826L21.922 50.1053C22.8676 49.7092 23.9605 49.9613 24.6371 50.7315L25.4583 51.6656C26.2018 52.5116 27.2728 52.9976 28.3992 53C29.5213 53 30.5898 52.52 31.3349 51.681L32.1612 50.752C32.8408 49.9858 33.9341 49.7398 34.8763 50.1412L36.0208 50.6237C37.0577 51.0642 38.2338 51.0381 39.2501 50.552C40.2664 50.066 41.0249 49.1668 41.3328 48.0831L41.6716 46.8873C41.9602 45.9016 42.8471 45.2112 43.8734 45.1731L45.1154 45.1166C47.2086 45.0206 48.8564 43.2959 48.857 41.2006C48.8575 40.9735 48.8386 40.7469 48.8005 40.5231L48.5798 39.2913C48.4058 38.2819 48.8953 37.274 49.7962 36.7867L50.8894 36.2119C51.8834 35.6759 52.5986 34.7378 52.8521 33.6373C53.1056 32.5368 52.8729 31.3804 52.2136 30.4636L51.4899 29.4371C50.8912 28.6046 50.8912 27.4827 51.4899 26.6502L52.2238 25.6596ZM50.9767 24.7563L50.2479 25.7828C49.2637 27.152 49.2637 28.9968 50.2479 30.3661L50.9715 31.3925C51.2613 31.7946 51.4175 32.2775 51.418 32.7731C51.4197 33.6516 50.9386 34.4599 50.1657 34.8774L49.0725 35.4677C47.5947 36.2663 46.7898 37.9175 47.0709 39.5736L47.2813 40.7951C47.3052 40.9324 47.3172 41.0715 47.3172 41.2108C47.3158 42.4831 46.3146 43.5296 45.0436 43.5872L43.8015 43.6436C42.1164 43.7227 40.6701 44.8694 40.2088 46.4921L39.8701 47.688C39.6819 48.3457 39.2205 48.891 38.603 49.1855C37.9856 49.48 37.2714 49.4953 36.6418 49.2277L35.4973 48.7452C33.9416 48.0893 32.1407 48.5028 31.027 49.7717L30.2006 50.7007C29.7471 51.2107 29.097 51.5021 28.4146 51.5013C27.7305 51.4995 27.0801 51.2042 26.6285 50.6904L25.8073 49.7563C24.6935 48.4912 22.8965 48.0781 21.3421 48.7298L20.1976 49.2072C19.5691 49.4713 18.8577 49.454 18.2428 49.1598C17.6279 48.8656 17.1682 48.3225 16.9795 47.6674L16.6459 46.4716C16.1916 44.8418 14.7432 43.6873 13.0532 43.6077L11.8112 43.541C10.5442 43.4781 9.54897 42.4331 9.5478 41.1646C9.54738 41.0219 9.5594 40.8793 9.58372 40.7386L9.80441 39.5172C10.102 37.8584 9.30649 36.1951 7.82844 35.3856L6.76089 34.7286C6.16112 34.3992 5.73159 33.8282 5.58138 33.1606C5.43118 32.493 5.57475 31.7931 5.97563 31.2386L6.70444 30.2121C7.68864 28.8428 7.68864 26.9981 6.70444 25.6288L5.98077 24.6023C5.58331 24.0455 5.44396 23.3448 5.59808 22.6783C5.75221 22.0117 6.18499 21.4433 6.78655 21.1174L7.87976 20.5272C9.35638 19.7274 10.1609 18.0771 9.8814 16.4213L9.67097 15.1998C9.64709 15.0625 9.63507 14.9234 9.63505 14.784C9.63649 13.5117 10.6377 12.4653 11.9087 12.4077L13.1507 12.3461C14.8365 12.2686 16.2836 11.1213 16.7434 9.49765L17.0822 8.30179C17.2704 7.64408 17.7318 7.09876 18.3493 6.80426C18.9667 6.50976 19.6809 6.49438 20.3105 6.76205L21.455 7.24451C23.0107 7.90042 24.8116 7.48689 25.9253 6.21802L26.7517 5.28906C27.2043 4.77497 27.8579 4.48281 28.5429 4.4884C29.2317 4.50203 29.881 4.81266 30.3238 5.34039L31.145 6.27448C32.2579 7.54104 34.0559 7.95438 35.6102 7.30096L36.7547 6.82364C37.3832 6.55953 38.0945 6.57675 38.7095 6.87097C39.3244 7.16519 39.7841 7.70832 39.9728 8.36337L40.3064 9.55923C40.7588 11.191 42.2076 12.348 43.8991 12.4283L45.1411 12.495C46.408 12.5578 47.4033 13.6028 47.4045 14.8713C47.4049 15.014 47.3929 15.1566 47.3686 15.2973L47.1479 16.5188C46.8512 18.1788 47.6462 19.8431 49.1239 20.6555L50.2119 21.2509C50.9803 21.6817 51.4496 22.5001 51.4334 23.3808C51.4299 23.8776 51.2701 24.3606 50.9767 24.7614V24.7563Z" fill="#7681A0"/>
</svg>
