<svg width="56" height="56" viewBox="0 0 56 56" fill="none" xmlns="http://www.w3.org/2000/svg">
<path d="M55.4538 53.982C55.2844 53.9267 42.8185 49.9099 24.1698 50.7036L22.5901 44.4668C23.3824 44.0935 24.0489 43.4982 24.51 42.7592C25.3106 44.0416 26.7279 44.8996 28.345 44.8996C29.962 44.8996 31.3793 44.0423 32.1799 42.7592C32.9805 44.0416 34.3978 44.8996 36.0149 44.8996C37.632 44.8996 39.0493 44.0423 39.8498 42.7592C40.6504 44.0416 42.0677 44.8996 43.6848 44.8996C45.3019 44.8996 46.7192 44.0423 47.5198 42.7592C48.3204 44.0416 49.7377 44.8996 51.3547 44.8996C53.8505 44.8996 55.8811 42.8629 55.8811 40.3588C55.8811 39.9764 55.5713 39.6674 55.1897 39.6674C54.8081 39.6674 54.4983 39.9764 54.4983 40.3588C54.4983 42.1003 53.088 43.5169 51.3547 43.5169C49.6215 43.5169 48.2111 42.0996 48.2111 40.3588C48.2111 39.9764 47.9014 39.6674 47.5198 39.6674C47.1381 39.6674 46.8284 39.9764 46.8284 40.3588C46.8284 42.1003 45.418 43.5169 43.6848 43.5169C41.9516 43.5169 40.5412 42.0996 40.5412 40.3588C40.5412 39.9764 40.2315 39.6674 39.8498 39.6674C39.4682 39.6674 39.1585 39.9764 39.1585 40.3588C39.1585 42.1003 37.7481 43.5169 36.0149 43.5169C34.2817 43.5169 32.8713 42.0996 32.8713 40.3588C32.8713 39.9764 32.5616 39.6674 32.1799 39.6674C31.7983 39.6674 31.4886 39.9764 31.4886 40.3588C31.4886 42.1003 30.0782 43.5169 28.345 43.5169C26.6117 43.5169 25.2014 42.0996 25.2014 40.3588C25.2014 39.9764 24.8916 39.6674 24.51 39.6674C24.1284 39.6674 23.8186 39.9764 23.8186 40.3588C23.8186 41.5258 23.1784 42.5352 22.2389 43.082L18.6134 28.7668C20.7594 28.3215 23.4107 28.2745 25.079 30.0541C25.2511 30.238 25.5097 30.314 25.7537 30.2518C25.9978 30.1896 26.1886 30.0002 26.2522 29.7561C26.8862 27.3336 29.0654 25.3162 31.8038 24.6172C32.4413 24.4548 33.1126 24.3677 33.797 24.3587C34.021 24.3552 34.2298 24.2439 34.357 24.0593C34.4842 23.8747 34.5139 23.6404 34.4372 23.4295C31.7997 16.2152 23.5207 12.3429 14.9796 14.1964L14.6146 12.7535C14.5206 12.383 14.1431 12.1576 13.7746 12.2523C13.4047 12.3463 13.1807 12.7224 13.274 13.0923L13.6356 14.5213C5.20728 16.9501 -0.270345 24.3483 0.827531 31.9685C0.859334 32.189 0.995531 32.3812 1.19326 32.4835C1.39099 32.5865 1.62536 32.5865 1.82516 32.4863C2.40106 32.1938 2.99148 31.9698 3.57844 31.8198C6.37775 31.1049 9.28699 31.8682 10.987 33.7653C11.1198 33.9139 11.3078 33.9955 11.5021 33.9955C11.5588 33.9955 11.6162 33.9886 11.6722 33.9748C11.9211 33.9112 12.1153 33.7148 12.1748 33.4646C12.7576 31.0185 15.1414 29.7561 17.2749 29.1076L20.9177 43.4913C20.8368 43.4975 20.7587 43.5162 20.6757 43.5162C18.9425 43.5162 17.5321 42.0989 17.5321 40.3581C17.5321 39.9758 17.2224 39.6667 16.8408 39.6667C16.4591 39.6667 16.1494 39.9758 16.1494 40.3581C16.1494 42.0996 14.739 43.5162 13.0058 43.5162C11.2726 43.5162 9.8622 42.0989 9.8622 40.3581C9.8622 39.9758 9.55247 39.6667 9.17084 39.6667C8.78921 39.6667 8.47948 39.9758 8.47948 40.3581C8.47948 42.0996 7.06911 43.5162 5.33588 43.5162C3.60264 43.5162 2.19227 42.0989 2.19227 40.3581C2.19227 39.9758 1.88254 39.6667 1.50091 39.6667C1.11928 39.6667 0.809556 39.9758 0.809556 40.3581C0.809556 42.8622 2.84007 44.8989 5.33588 44.8989C6.95227 44.8989 8.37025 44.0416 9.17084 42.7585C9.97143 44.0409 11.3894 44.8989 13.0058 44.8989C14.6222 44.8989 16.0402 44.0416 16.8408 42.7585C17.6414 44.0409 19.0586 44.8989 20.6757 44.8989C20.8755 44.8989 21.0705 44.8816 21.2634 44.8561L22.7602 50.7672C16.2614 51.1239 9.05331 52.0725 1.38131 53.9675C1.01074 54.0587 0.784667 54.4341 0.875926 54.8047C0.953359 55.1193 1.23612 55.3301 1.54654 55.3301C1.60185 55.3301 1.65716 55.3232 1.71316 55.3101C31.9193 47.8503 54.7915 55.2202 55.0189 55.2956C55.3805 55.4145 55.7725 55.2202 55.8928 54.8566C56.0124 54.4929 55.8161 54.1016 55.4538 53.982ZM32.7821 23.0375C32.3334 23.0873 31.8916 23.1675 31.4623 23.2774C29.1013 23.8796 27.1496 25.2803 25.9501 27.1186C25.6086 25.9218 25.0465 24.2833 24.1643 22.557C22.3924 19.0898 19.9878 16.6065 17.1235 15.241C23.8739 14.5034 30.298 17.629 32.7821 23.0375ZM5.66081 30.1744C4.85884 30.1744 4.04304 30.2746 3.23622 30.48C2.85598 30.5767 2.47573 30.6998 2.09825 30.8485C1.68827 24.7991 5.81222 19.0456 12.2142 16.4772C10.3385 19.0518 9.40244 22.3925 9.49509 26.2966C9.54348 28.3312 9.85528 30.1142 10.136 31.3365C8.82239 30.5816 7.27099 30.1744 5.66081 30.1744ZM11.5705 31.376C10.846 28.3921 9.59395 20.597 14.6464 15.7969C21.3989 17.6027 24.0039 25.1413 24.7713 28.0692C22.9724 27.0093 20.5347 26.8296 17.5999 27.5797C14.7059 28.3181 12.6622 29.6158 11.5705 31.376ZM50.1103 11.3459C50.1103 8.39867 47.7203 6.00104 44.7834 6.00104C41.8465 6.00104 39.4565 8.39936 39.4565 11.3459C39.4565 14.2925 41.8465 16.6901 44.7834 16.6901C47.7203 16.6901 50.1103 14.2925 50.1103 11.3459ZM44.7834 15.3074C42.6084 15.3074 40.8392 13.5306 40.8392 11.3459C40.8392 9.16124 42.6084 7.38376 44.7834 7.38376C46.9584 7.38376 48.7276 9.16124 48.7276 11.3459C48.7276 13.5306 46.9584 15.3074 44.7834 15.3074ZM45.4747 2.95146V0.721143C45.4747 0.338822 45.165 0.0297852 44.7834 0.0297852C44.4017 0.0297852 44.092 0.338822 44.092 0.721143V2.95146C44.092 3.33379 44.4017 3.64282 44.7834 3.64282C45.165 3.64282 45.4747 3.33379 45.4747 2.95146ZM48.1842 4.36875C48.449 4.36875 48.702 4.21527 48.8168 3.95739L49.7204 1.92065C49.8752 1.57151 49.7176 1.16292 49.3692 1.00875C49.0221 0.853884 48.6121 1.01151 48.4566 1.36065L47.553 3.39739C47.3981 3.74653 47.5557 4.15512 47.9042 4.30929C47.9947 4.35008 48.0901 4.36875 48.1842 4.36875ZM51.4612 6.24233L53.1122 4.75038C53.3956 4.49388 53.4177 4.05695 53.1613 3.77349C52.9055 3.49141 52.4678 3.46791 52.1851 3.7244L50.5341 5.21635C50.2506 5.47285 50.2285 5.90978 50.485 6.19324C50.6212 6.34396 50.8093 6.4207 50.998 6.4207C51.1625 6.4207 51.3292 6.36193 51.4612 6.24233ZM52.9504 9.40875L55.0632 8.71946C55.4261 8.60124 55.6246 8.21132 55.5063 7.84766C55.3881 7.48539 54.9996 7.28628 54.6345 7.40519L52.5217 8.09448C52.1588 8.2127 51.9604 8.60262 52.0786 8.96628C52.174 9.25803 52.4443 9.44262 52.7361 9.44262C52.8066 9.44332 52.8792 9.43225 52.9504 9.40875ZM55.3812 11.769L53.1723 11.5354C52.8017 11.496 52.4526 11.7704 52.4118 12.15C52.3717 12.5302 52.6469 12.8704 53.0271 12.9105L55.236 13.1442C55.2609 13.1469 55.2851 13.1483 55.3093 13.1483C55.6584 13.1483 55.9578 12.8842 55.9958 12.5295C56.0366 12.1493 55.7608 11.8091 55.3812 11.769ZM53.948 17.3483C54.1865 17.3483 54.4188 17.2246 54.5467 17.0033C54.7382 16.6728 54.6255 16.2497 54.2951 16.0589L52.371 14.9445C52.0399 14.7516 51.6175 14.8656 51.4259 15.1961C51.2344 15.5266 51.3471 15.9497 51.6776 16.1405L53.6016 17.255C53.7109 17.3186 53.8305 17.3483 53.948 17.3483ZM50.4442 20.3453C50.5797 20.5327 50.7906 20.6316 51.0049 20.6316C51.1453 20.6316 51.287 20.5887 51.4094 20.5009C51.7184 20.2769 51.7875 19.8448 51.5642 19.5358L50.2582 17.732C50.0342 17.423 49.6028 17.3531 49.2931 17.5765C48.9841 17.8005 48.9149 18.2325 49.1382 18.5416L50.4442 20.3453ZM46.3783 18.8797C46.0043 18.9585 45.7658 19.3263 45.8453 19.6996L46.3071 21.8802C46.3763 22.2058 46.6632 22.4284 46.9833 22.4284C47.0303 22.4284 47.0787 22.4236 47.1271 22.4139C47.5011 22.3351 47.7396 21.9673 47.6601 21.5939L47.1983 19.4134C47.1188 19.0401 46.7537 18.7995 46.3783 18.8797ZM42.3685 19.4134L41.9066 21.5939C41.8278 21.9673 42.0663 22.3344 42.4397 22.4139C42.4881 22.4243 42.5358 22.4284 42.5835 22.4284C42.9029 22.4284 43.1905 22.2058 43.2596 21.8802L43.7215 19.6996C43.8003 19.3263 43.5617 18.9592 43.1884 18.8797C42.8151 18.8022 42.4473 19.0394 42.3685 19.4134ZM38.5618 20.6316C38.7762 20.6316 38.9877 20.532 39.1225 20.3453L40.4278 18.5416C40.6518 18.2325 40.5827 17.8005 40.273 17.5765C39.9639 17.3538 39.5311 17.4223 39.3078 17.732L38.0025 19.5358C37.7785 19.8448 37.8477 20.2769 38.1574 20.5009C38.2798 20.5894 38.4215 20.6316 38.5618 20.6316ZM35.6187 17.3483C35.7363 17.3483 35.8559 17.3186 35.9644 17.255L37.8878 16.1405C38.2182 15.949 38.3309 15.5259 38.1394 15.1961C37.9479 14.8649 37.5255 14.7509 37.1943 14.9445L35.271 16.0589C34.9405 16.2504 34.8278 16.6735 35.0193 17.0033C35.1479 17.2252 35.3802 17.3483 35.6187 17.3483ZM33.5702 12.5295C33.6083 12.8842 33.9076 13.1483 34.2568 13.1483C34.281 13.1483 34.3058 13.1469 34.33 13.1442L36.5389 12.9105C36.9185 12.8704 37.1943 12.5302 37.1542 12.15C37.1141 11.7704 36.7761 11.4994 36.3937 11.5354L34.1849 11.769C33.8053 11.8091 33.5301 12.1493 33.5702 12.5295ZM34.0611 7.84766C33.9429 8.21062 34.1406 8.60124 34.5043 8.71946L36.6171 9.40875C36.6883 9.43225 36.7609 9.44332 36.8314 9.44332C37.1224 9.44332 37.3935 9.25803 37.4889 8.96697C37.6071 8.60401 37.4094 8.21339 37.0457 8.09517L34.9329 7.40588C34.5693 7.28628 34.1793 7.48539 34.0611 7.84766ZM38.5688 6.4207C38.7575 6.4207 38.9456 6.34396 39.0817 6.19324C39.3382 5.90978 39.3154 5.47285 39.0327 5.21635L37.3817 3.7244C37.0982 3.46791 36.6613 3.49141 36.4055 3.77349C36.149 4.05695 36.1718 4.49388 36.4546 4.75038L38.1056 6.24233C38.2383 6.36193 38.4035 6.4207 38.5688 6.4207ZM41.3826 4.36875C41.4759 4.36875 41.5713 4.35008 41.6626 4.30929C42.0117 4.15443 42.1694 3.74653 42.0145 3.39739L41.1109 1.36065C40.956 1.01151 40.5481 0.853884 40.199 1.00875C39.8498 1.16361 39.6922 1.57151 39.8471 1.92065L40.7507 3.95739C40.8648 4.21527 41.1178 4.36875 41.3826 4.36875Z" fill="#7681A0"/>
</svg>
