<svg width="56" height="56" viewBox="0 0 56 56" fill="none" xmlns="http://www.w3.org/2000/svg">
<path d="M44.7318 27.3401C44.7318 36.3353 39.2565 44.0278 31.5177 47.1916C29.1012 48.1532 26.5012 48.7115 23.7482 48.7115C19.4965 48.7115 15.5506 47.4397 12.2471 45.2064L2 49.2388L5.97647 38.7237C3.95765 35.4048 2.76471 31.5275 2.76471 27.3401C2.76471 15.5533 12.1553 5.99976 23.7482 5.99976C32.6188 5.99976 40.2047 11.614 43.2635 19.5236C44.2118 21.943 44.7318 24.5795 44.7318 27.3401Z" stroke="#7681A0" stroke-width="1.6" stroke-miterlimit="10" stroke-linecap="round" stroke-linejoin="round"/>
<path d="M13.4094 30.2867C15.0143 30.2867 16.3153 28.9674 16.3153 27.34C16.3153 25.7126 15.0143 24.3933 13.4094 24.3933C11.8045 24.3933 10.5035 25.7126 10.5035 27.34C10.5035 28.9674 11.8045 30.2867 13.4094 30.2867Z" stroke="#7681A0" stroke-width="1.6" stroke-miterlimit="10" stroke-linecap="round" stroke-linejoin="round"/>
<path d="M23.7483 30.2867C25.3532 30.2867 26.6542 28.9674 26.6542 27.34C26.6542 25.7126 25.3532 24.3933 23.7483 24.3933C22.1434 24.3933 20.8424 25.7126 20.8424 27.34C20.8424 28.9674 22.1434 30.2867 23.7483 30.2867Z" stroke="#7681A0" stroke-width="1.6" stroke-miterlimit="10" stroke-linecap="round" stroke-linejoin="round"/>
<path d="M34.0871 30.2867C35.692 30.2867 36.993 28.9674 36.993 27.34C36.993 25.7126 35.692 24.3933 34.0871 24.3933C32.4822 24.3933 31.1812 25.7126 31.1812 27.34C31.1812 28.9674 32.4822 30.2867 34.0871 30.2867Z" stroke="#7681A0" stroke-width="1.6" stroke-miterlimit="10" stroke-linecap="round" stroke-linejoin="round"/>
<path d="M54 49.2386L46.6589 46.416C44.3036 47.9669 41.4589 48.8664 38.4306 48.8664C35.953 48.8664 33.5977 48.2771 31.5483 47.1915C39.2871 44.0586 44.7624 36.3352 44.7624 27.34C44.7624 24.5794 44.2424 21.9428 43.2942 19.5234C49.2283 21.5396 53.48 27.1849 53.48 33.7917C53.48 36.7384 52.6236 39.468 51.1859 41.7943L54 49.2386Z" stroke="#7681A0" stroke-width="1.6" stroke-miterlimit="10" stroke-linecap="round" stroke-linejoin="round"/>
</svg>
