<svg width="56" height="56" viewBox="0 0 56 56" fill="none" xmlns="http://www.w3.org/2000/svg">
<path d="M10.3395 42.0116C10.4003 42.0724 10.5218 42.0724 10.5826 42.0724C10.8256 42.0724 11.0686 41.9508 11.1294 41.7078L14.1674 34.6596C14.2889 34.6596 14.3497 34.6596 14.4712 34.6596C15.7472 34.6596 16.9624 33.9912 17.6307 32.8976L20.2434 28.6443C20.5472 28.7659 20.851 28.8266 21.1548 28.8266C21.8232 28.8266 22.4916 28.5836 23.0384 28.0367L27.96 23.1152C28.6891 22.386 28.9321 21.2924 28.5676 20.3202L32.8208 17.7075C34.036 16.9784 34.7043 15.5809 34.5828 14.2442L41.631 11.2062C41.9348 11.0847 42.0563 10.7201 41.9348 10.4163C40.7196 7.43904 38.8968 5.677 36.7702 5.43396C36.2234 5.3732 35.6158 5.43396 35.0082 5.61624L31.5448 6.64916L30.8765 5.13016C30.5727 4.40103 29.9651 3.85419 29.1144 3.42887C27.5954 2.76051 25.8334 2.88203 24.3144 3.73267L19.089 6.77068C18.7852 6.46688 18.4206 6.16308 17.8738 5.9808C16.2333 5.31244 14.4105 5.43396 12.8307 6.2846L12.7699 6.34536C12.5876 6.46688 12.3446 6.5884 12.1623 6.70992C12.0408 6.77068 11.98 6.8922 11.8585 6.95296C11.737 7.07448 11.6155 7.13524 11.5547 7.196L7.30151 11.4492C7.17999 11.5707 7.11923 11.6923 6.99771 11.8138C6.93695 11.8745 6.81543 11.9961 6.75467 12.0568C6.63315 12.2391 6.51163 12.4214 6.39011 12.6644C6.39011 12.6644 6.39011 12.7252 6.32935 12.7252C5.4787 14.2442 5.29642 16.1277 6.02555 17.7683C6.26859 18.2544 6.51163 18.6797 6.81543 18.9835L3.77742 24.2089C2.86602 25.7279 2.7445 27.5507 3.47362 29.0089C3.89894 29.9203 4.44578 30.4672 5.1749 30.8317L6.69391 31.5001L5.66098 34.9634C5.4787 35.571 5.41794 36.1786 5.4787 36.7255C5.60022 38.9736 7.36227 40.7964 10.3395 42.0116ZM7.78759 12.9075C7.90911 12.7859 8.03063 12.6644 8.15215 12.5429L12.4054 8.28969C13.3168 7.37828 14.4712 6.95296 15.6257 6.95296C16.1117 6.95296 16.5978 7.01372 17.0231 7.196C17.6307 7.37828 17.9953 7.62132 18.2383 7.92512L18.2991 8.04664C18.2991 8.1074 18.2991 8.10741 18.3599 8.16817L23.646 15.5201L27.2309 20.5632C27.6562 21.1101 27.5954 21.9 27.0486 22.4468L22.1878 27.3076C21.7017 27.7937 20.9118 27.8545 20.3042 27.4899L15.3219 23.9658L7.90911 18.6189C7.90911 18.6189 7.84835 18.6189 7.78759 18.5582L7.66607 18.4974C7.36227 18.2544 7.11923 17.8898 6.93695 17.2822C6.45087 15.8239 6.75467 14.3049 7.66607 13.1505C7.72683 12.9682 7.78759 12.9075 7.78759 12.9075ZM35.3727 6.8922C35.8588 6.77068 36.2841 6.70992 36.6487 6.77068C38.593 6.95296 39.869 8.95805 40.5981 10.4163L34.279 13.0897L32.0309 7.86436L35.3727 6.8922ZM24.8612 4.88711C26.0156 4.21875 27.4131 4.09723 28.5676 4.64407C29.1752 4.94788 29.5397 5.25168 29.722 5.73776L33.1246 13.6366C33.6107 14.791 33.1853 16.1278 32.1524 16.7354L27.8992 19.348L19.7573 7.86436L24.8612 4.88711ZM4.50654 28.7051C3.9597 27.5507 4.08122 26.1532 4.74958 24.9987L7.72683 19.8949L19.1497 28.0367L16.5371 32.29C15.8687 33.3229 14.532 33.7482 13.4383 33.2621L5.53946 29.8596C5.1749 29.6773 4.81034 29.3127 4.50654 28.7051ZM6.75467 35.4495L7.78759 32.1077L13.013 34.3558L10.3395 40.6141C8.88127 39.9457 6.87619 38.6698 6.69391 36.6647C6.57239 36.3609 6.63315 35.9356 6.75467 35.4495ZM50.9311 25.1089L49.4121 24.4405L50.445 20.9769C50.6273 20.3692 50.6881 19.7616 50.6273 19.2147C50.3843 17.0879 48.6222 15.265 45.645 14.0497C45.3412 13.9282 44.9766 14.0497 44.8551 14.3535L41.8171 21.4022C40.4804 21.2807 39.0829 21.9491 38.3538 23.1644L35.7411 27.418C34.7689 27.0534 33.6752 27.2964 32.9461 28.0256L28.0245 32.9476C27.2954 33.6768 27.0524 34.7705 27.4169 35.7428L23.1637 38.3557C21.9485 39.0848 21.2801 40.4824 21.4017 41.8193L14.3535 44.8575C14.0497 44.979 13.9282 45.3436 14.0497 45.6474C15.2649 48.6249 17.0877 50.3871 19.2143 50.6302C19.3358 50.6302 19.4573 50.6302 19.5789 50.6302C20.0042 50.6302 20.4903 50.5694 20.9156 50.3871L24.3789 49.3541L25.0473 50.8732C25.3511 51.6024 25.9587 52.1493 26.8701 52.5746C27.5384 52.8785 28.2068 53 28.9359 53C29.8473 53 30.8195 52.7569 31.6701 52.2101L36.8955 49.1718C37.1993 49.4756 37.5639 49.7795 38.1107 49.9618C38.7791 50.2656 39.5082 50.3871 40.2373 50.3871C41.7563 50.3871 43.2753 49.7795 44.369 48.6857L48.6222 44.4321C48.7437 44.3106 48.8045 44.1891 48.926 44.1283C48.9868 44.0676 49.1083 43.946 49.1691 43.8853C49.2906 43.703 49.4121 43.5207 49.5336 43.2776C49.5336 43.2776 49.5336 43.2168 49.5944 43.2168C50.445 41.6977 50.6273 39.814 49.8982 38.1734C49.6552 37.6872 49.4121 37.2619 49.1083 36.9581L52.1463 31.7323C53.0577 30.2132 53.1792 28.3902 52.4501 26.9319C52.2071 26.0204 51.6602 25.4127 50.9311 25.1089ZM45.7665 15.4473C47.2247 16.1157 49.2298 17.3918 49.4121 19.397C49.4729 19.7616 49.4121 20.1869 49.2906 20.6731L48.2577 24.0151L43.0323 21.7668L45.7665 15.4473ZM20.6725 49.2326C20.1865 49.3541 19.7611 49.4149 19.3966 49.3541C17.4523 49.1718 16.1763 47.1666 15.4472 45.7082L21.7662 43.0346L24.0144 48.2603L20.6725 49.2326ZM31.1233 51.2378C29.9689 51.9062 28.5714 52.0278 27.4169 51.4809C26.8093 51.1771 26.4448 50.8732 26.2625 50.3871L22.8599 42.4877C22.3738 41.3331 22.7992 39.9963 23.8321 39.3887L28.0853 36.7758L36.2271 48.1996L31.1233 51.2378ZM43.6399 47.835C43.5184 47.9565 43.3969 48.078 43.2753 48.1996C43.2146 48.1996 43.2146 48.2603 43.1538 48.3211C41.9386 49.2326 40.4196 49.4756 39.0221 49.0503C38.4145 48.868 38.05 48.6249 37.8069 48.3211L37.7462 48.1996C37.7462 48.1388 37.7462 48.1388 37.6854 48.078L32.3993 40.6647L28.8144 35.6212C28.3891 35.0744 28.4498 34.2844 28.9967 33.7375L33.8575 28.8763C34.1613 28.5725 34.5259 28.451 34.8904 28.451C35.1942 28.451 35.498 28.5117 35.7411 28.694L40.6626 32.2184L48.1361 37.5657C48.1969 37.5657 48.1969 37.6265 48.2577 37.6265L48.3184 37.6872C48.6222 37.9303 48.8653 38.2949 49.0475 38.9025C49.5336 40.3609 49.2298 41.88 48.3184 43.0346C48.3184 43.0953 48.2577 43.0953 48.2577 43.1561C48.1361 43.2776 48.0146 43.3991 47.8931 43.5207L43.6399 47.835ZM51.2349 31.1246L48.2577 36.2289L36.8348 28.0256L39.4474 23.7721C40.1158 22.7391 41.4525 22.3137 42.5462 22.7998L50.445 26.2027C50.9311 26.385 51.2349 26.7496 51.5387 27.3572C52.0248 28.5117 51.964 29.9093 51.2349 31.1246Z" fill="#7681A0"/>
</svg>
