<svg width="24" height="25" viewBox="0 0 24 25" fill="none" xmlns="http://www.w3.org/2000/svg">
<g clip-path="url(#clip0)">
<path d="M24 12.5C24 19.1273 18.6273 24.5 12 24.5C5.37267 24.5 0 19.1273 0 12.5C0 5.87267 5.37267 0.5 12 0.5C18.6273 0.5 24 5.87267 24 12.5Z" fill="#FFCC4D"/>
<path d="M12 14.4999C9.58463 14.4999 7.98196 14.2186 5.99996 13.8332C5.54729 13.7459 4.66663 13.8332 4.66663 15.1666C4.66663 17.8332 7.72996 21.1666 12 21.1666C16.2693 21.1666 19.3333 17.8332 19.3333 15.1666C19.3333 13.8332 18.4526 13.7452 18 13.8332C16.018 14.2186 14.4153 14.4999 12 14.4999Z" fill="#664500"/>
<path d="M6 15.1667C6 15.1667 8 15.8334 12 15.8334C16 15.8334 18 15.1667 18 15.1667C18 15.1667 16.6667 17.8334 12 17.8334C7.33333 17.8334 6 15.1667 6 15.1667Z" fill="white"/>
<path d="M10.4546 3.44202L7.42664 3.97602L5.86664 1.14069C5.69464 0.82802 5.3413 0.660686 4.99197 0.72202C4.64064 0.78402 4.3673 1.06269 4.31264 1.41469L3.81597 4.61269L0.787971 5.14669C0.431305 5.20935 0.155971 5.49669 0.107305 5.85602C0.0586381 6.21535 0.247971 6.56469 0.575971 6.72069L3.2893 8.00869L2.79064 11.2167C2.7353 11.574 2.91664 11.926 3.2393 12.0894C3.35864 12.1494 3.48664 12.178 3.61397 12.178C3.83197 12.178 4.0473 12.0927 4.20797 11.93L6.5493 9.55602L9.5613 10.986C9.88797 11.1407 10.2773 11.068 10.5253 10.8047C10.7733 10.5414 10.8226 10.1487 10.6486 9.83202L9.0833 6.98669L11.1933 4.84802C11.448 4.59002 11.506 4.19669 11.338 3.87535C11.1686 3.55402 10.8093 3.38002 10.4546 3.44202ZM13.5453 3.44202L16.5733 3.97602L18.1333 1.14069C18.3053 0.82802 18.6586 0.660686 19.008 0.72202C19.3586 0.78402 19.632 1.06269 19.6866 1.41469L20.1833 4.61269L23.2113 5.14669C23.5686 5.20935 23.844 5.49602 23.892 5.85535C23.94 6.21469 23.7513 6.56402 23.4233 6.72002L20.71 8.00802L21.2086 11.216C21.264 11.5734 21.0826 11.9254 20.76 12.0887C20.6406 12.1487 20.5126 12.1774 20.3853 12.1774C20.1673 12.1774 19.952 12.092 19.7913 11.9294L17.45 9.55535L14.438 10.9854C14.1113 11.14 13.722 11.0674 13.474 10.804C13.226 10.5407 13.1766 10.148 13.3506 9.83135L14.916 6.98669L12.806 4.84802C12.5513 4.59002 12.4933 4.19669 12.6613 3.87535C12.8313 3.55402 13.1906 3.38002 13.5453 3.44202Z" fill="#E95F28"/>
</g>
<defs>
<clipPath id="clip0">
<rect width="24" height="24" fill="white" transform="translate(0 0.5)"/>
</clipPath>
</defs>
</svg>
