<svg width="24" height="25" viewBox="0 0 24 25" fill="none" xmlns="http://www.w3.org/2000/svg">
<g clip-path="url(#clip0)">
<path d="M23.304 12.444C23.304 12.1086 23.2239 11.794 23.0899 11.508C22.1959 8.62398 18.0106 8.83465 12.0573 8.69398C11.062 8.67064 11.6313 7.49531 11.9806 4.91531C12.208 3.23731 11.126 0.660645 9.30728 0.660645C6.30862 0.660645 9.19328 3.02598 6.54195 8.87531C5.12528 12.0006 1.95862 10.25 1.95862 13.3893V20.5353C1.95862 21.7573 2.07862 22.932 3.79728 23.1253C5.46328 23.3126 5.08862 24.5 7.49195 24.5H19.5213C20.7466 24.5 21.7433 23.5026 21.7433 22.2773C21.7433 21.7693 21.5653 21.3066 21.278 20.932C21.958 20.5513 22.4246 19.8326 22.4246 18.9993C22.4246 18.4926 22.2473 18.03 21.9606 17.656C22.6426 17.276 23.1106 16.5566 23.1106 15.722C23.1106 15.116 22.8653 14.5666 22.47 14.1646C22.9746 13.7573 23.304 13.1413 23.304 12.444Z" fill="#FFDB5E"/>
<path d="M15.3466 14.6659H21.0826C21.8626 14.6659 22.5946 14.2486 22.9933 13.5773C23.1573 13.3006 23.066 12.9426 22.7886 12.7779C22.512 12.6133 22.154 12.7059 21.9893 12.9826C21.8006 13.3019 21.452 13.4993 21.082 13.4993H15.2086C14.6266 13.4993 14.1533 13.0259 14.1533 12.4439C14.1533 11.8619 14.6266 11.3886 15.2086 11.3886H19.1333C19.4553 11.3886 19.7166 11.1273 19.7166 10.8053C19.7166 10.4833 19.4553 10.2219 19.1333 10.2219H15.208C13.9826 10.2219 12.986 11.2186 12.986 12.4439C12.986 13.1273 13.3026 13.7319 13.7893 14.1399C13.3793 14.5433 13.124 15.1033 13.124 15.7219C13.124 16.4073 13.4426 17.0139 13.932 17.4213C13.5246 17.8239 13.272 18.3819 13.272 18.9993C13.272 19.7459 13.6446 20.4046 14.2113 20.8079C13.862 21.2006 13.6433 21.7119 13.6433 22.2773C13.6433 23.5026 14.64 24.4993 15.8653 24.4993H19.5213C20.3013 24.4993 21.034 24.0826 21.4326 23.4113C21.5973 23.1346 21.506 22.7766 21.2293 22.6119C20.952 22.4486 20.594 22.5386 20.43 22.8153C20.24 23.1346 19.8913 23.3326 19.5213 23.3326H15.8653C15.2833 23.3326 14.81 22.8593 14.81 22.2773C14.81 21.6953 15.2833 21.2219 15.8653 21.2219H20.2026C20.9826 21.2219 21.716 20.8046 22.114 20.1333C22.2786 19.8559 22.1873 19.4979 21.9106 19.3339C21.6313 19.1666 21.2746 19.2606 21.1113 19.5373C20.9186 19.8619 20.5786 20.0553 20.2026 20.0553H15.494C14.912 20.0553 14.4386 19.5813 14.4386 18.9993C14.4386 18.4173 14.912 17.9439 15.494 17.9439H20.888C21.668 17.9439 22.4006 17.5273 22.7993 16.8559C22.964 16.5793 22.8726 16.2213 22.596 16.0566C22.318 15.8926 21.9606 15.9833 21.7966 16.2599C21.604 16.5839 21.264 16.7773 20.888 16.7773H15.3466C14.7646 16.7773 14.2913 16.3039 14.2913 15.7219C14.2913 15.1399 14.764 14.6659 15.3466 14.6659Z" fill="#EE9547"/>
</g>
<defs>
<clipPath id="clip0">
<rect width="24" height="24" fill="white" transform="translate(0 0.5)"/>
</clipPath>
</defs>
</svg>
