<svg width="24" height="24" viewBox="0 0 24 24" fill="none" xmlns="http://www.w3.org/2000/svg">
<path d="M23.3333 12.4126C23.3333 9.88325 21.2833 7.83325 18.754 7.83325C18.1013 7.83325 16.9193 8.21859 16.9193 8.21859L8.16863 9.14125C8.16863 9.14125 6.35729 8.08725 5.24663 8.08725C2.71663 8.08725 0.666626 10.1373 0.666626 12.6666C0.666626 12.8246 0.674626 12.9806 0.689959 13.1346C0.937293 19.1753 5.89929 23.9999 12 23.9999C18.2593 23.9999 23.3333 18.9259 23.3333 12.6666C23.3333 12.6319 23.3273 12.5993 23.3253 12.5646C23.3273 12.5139 23.3333 12.4639 23.3333 12.4126Z" fill="#FFCB4C"/>
<path d="M20.084 9.16743C19.4567 9.00477 19.4113 9.42477 18.616 9.33143C17.8373 9.2401 18.902 8.83877 18.486 8.60343C18.346 8.5241 18.1453 8.50743 17.898 8.5381C17.1967 8.6241 6.59533 8.90077 6.2 9.09143C5.84867 9.26077 5.64067 9.45677 5.32133 9.15877C4.91933 8.7841 4.344 9.0001 4.17733 9.12477C3.96267 9.2861 3.918 9.6061 4.33333 9.9761C4.74733 10.2561 5.44867 10.5488 6.64333 10.7488C6.77467 10.7708 6.88667 10.7794 6.99133 10.7834C7.80933 10.8108 7.92267 9.6701 9.078 9.63943C9.83533 9.61943 16.5133 10.3528 17.0633 10.2781C17.1307 10.2688 17.2013 10.2621 17.2827 10.2621C18.3247 10.2621 18.5667 11.2288 19.6753 10.4728C20.1453 10.0908 20.8827 9.3741 20.084 9.16743Z" fill="#F19020"/>
<path d="M3.95862 6.07666C4.97395 7.09466 5.69462 8.17333 6.19995 9.09199C6.57728 9.77799 6.83729 10.378 6.99129 10.784C7.80929 10.8113 7.92262 10.3373 9.07795 10.3067C9.83528 10.2867 10.2666 10.8193 10.8266 11.126C11.828 11.674 12.5393 10.6393 13.306 10.6393C13.8726 10.6393 14.7853 11.444 15.4233 11.1487C16.348 10.72 16.5133 10.3547 17.0633 10.2793C17.278 9.75199 17.5573 9.14866 17.898 8.53999C18.3913 7.65733 19.0166 6.76333 19.792 6.07799H3.95862V6.07666Z" fill="#F36C24"/>
<path d="M19.5374 6.28998C20.3914 5.44798 4.17804 6.30065 4.64338 6.81532C5.30204 7.54465 6.11004 8.91732 6.11004 8.91732C6.11004 8.91732 9.28138 10.5206 11.6774 8.49998C13.344 9.49998 15.6774 9.14598 16.7187 7.42732C16.7187 7.42732 17.53 7.72932 18.3527 7.78132C18.3527 7.78132 18.988 6.83132 19.5374 6.28998Z" fill="#CE5C1F"/>
<path d="M12.0001 22.392C13.5951 22.392 14.8881 20.9145 14.8881 19.092C14.8881 17.2695 13.5951 15.792 12.0001 15.792C10.4051 15.792 9.11206 17.2695 9.11206 19.092C9.11206 20.9145 10.4051 22.392 12.0001 22.392Z" fill="#65471B"/>
<path d="M9.33329 13.7374C9.33329 14.7194 8.73596 15.5154 7.99996 15.5154C7.26329 15.5154 6.66663 14.7194 6.66663 13.7374C6.66663 12.7554 7.26329 11.9594 7.99996 11.9594C8.73596 11.9594 9.33329 12.7554 9.33329 13.7374ZM17.3333 13.7367C17.3333 14.7187 16.7366 15.5147 16 15.5147C15.2633 15.5147 14.6666 14.7187 14.6666 13.7367C14.6666 12.7554 15.264 11.9587 16 11.9587C16.7366 11.9594 17.3333 12.7554 17.3333 13.7367Z" fill="#65471B"/>
<path d="M20.75 2.48323C20.59 2.48323 20.4387 2.51323 20.2927 2.5559C19.834 1.99257 19.144 1.62523 18.3607 1.62523C18.3027 1.62523 18.248 1.63857 18.1907 1.64257C17.7013 1.09123 16.9947 0.736567 16.1993 0.736567C15.196 0.736567 14.3327 1.2959 13.8753 2.1139C13.6447 1.5819 13.116 1.20923 12.4993 1.20923C12.0207 1.20923 11.6 1.43723 11.3253 1.7859C10.9867 0.8059 10.0667 0.0979004 8.972 0.0979004C8.09 0.0979004 7.31867 0.557234 6.87334 1.24657C6.75067 1.22723 6.62801 1.2079 6.5 1.2079C5.54534 1.2079 4.726 1.74923 4.30467 2.5359C4.16934 2.51057 4.03134 2.4939 3.88867 2.4939C2.64601 2.4939 1.63867 3.50123 1.63867 4.7439C1.63867 5.98657 2.64601 6.9939 3.88867 6.9939C4.28067 6.9939 4.64534 6.8879 4.96467 6.71057C5.21534 6.89857 5.52334 7.01457 5.86134 7.01457C5.958 7.01457 6.05134 7.0039 6.14267 6.9859C6.71267 7.90523 7.72067 8.52123 8.882 8.52123C10.0213 8.52123 11.0193 7.93123 11.5973 7.04323C12.0773 7.63123 12.7987 8.01457 13.6167 8.01457C14.8267 8.01457 15.8347 7.18923 16.134 6.0739C16.1567 6.07457 16.1773 6.08057 16.2 6.08057C16.3887 6.08057 16.5727 6.0599 16.7507 6.02257C17.1867 6.39323 17.7447 6.62523 18.362 6.62523C19.1447 6.62523 19.8353 6.2579 20.2933 5.69457C20.4393 5.73723 20.5907 5.76723 20.7507 5.76723C21.6573 5.76723 22.3927 5.0319 22.3927 4.12523C22.3927 3.21857 21.6567 2.48323 20.75 2.48323Z" fill="#CCD6DD"/>
<path d="M18.53 5.25866C19.3109 5.25866 19.944 4.62559 19.944 3.84466C19.944 3.06373 19.3109 2.43066 18.53 2.43066C17.749 2.43066 17.116 3.06373 17.116 3.84466C17.116 4.62559 17.749 5.25866 18.53 5.25866Z" fill="#E1E8ED"/>
<path d="M13.2506 3.93544C13.2506 3.1401 12.606 2.49477 11.8106 2.49477C11.5653 2.49477 11.3373 2.5621 11.1353 2.6701C10.968 2.26944 10.5726 1.98744 10.1106 1.98744C9.73264 1.98744 9.39931 2.17744 9.19864 2.4661C8.75197 2.05077 8.15797 1.79077 7.49997 1.79077C6.32997 1.79077 5.35597 2.59744 5.08331 3.68277C4.83997 3.4381 4.50331 3.2861 4.13064 3.2861C3.38997 3.2861 2.78931 3.88677 2.78931 4.62744C2.78931 5.3681 3.38997 5.96877 4.13064 5.96877C4.59931 5.96877 5.00997 5.7281 5.24997 5.3641C5.59464 6.08477 6.26931 6.61277 7.08264 6.7501C7.34264 7.19677 7.82064 7.5001 8.37464 7.5001C9.09064 7.5001 9.68731 6.99744 9.83664 6.32677C10.0526 6.44677 10.2973 6.52144 10.5613 6.52144C11.2746 6.52144 11.8693 6.0221 12.0213 5.35477C12.716 5.25144 13.2506 4.65877 13.2506 3.93544Z" fill="#E1E8ED"/>
</svg>
