<svg width="24" height="25" viewBox="0 0 24 25" fill="none" xmlns="http://www.w3.org/2000/svg">
<g clip-path="url(#clip0)">
<path d="M22.6667 11.1667C22.6667 17.056 17.8894 21.8333 12 21.8333C6.10937 21.8333 1.33337 17.056 1.33337 11.1667C1.33337 5.276 6.10937 0.5 12 0.5C17.8894 0.5 22.6667 5.276 22.6667 11.1667Z" fill="#FFCC4D"/>
<path d="M17.2406 11.2527C17.1406 11.1454 16.9913 11.1387 16.884 11.2334C16.862 11.2527 14.682 13.1667 12 13.1667C9.32463 13.1667 7.13796 11.2527 7.11596 11.2334C7.00796 11.1387 6.8593 11.1467 6.7593 11.2527C6.65996 11.3594 6.63796 11.5354 6.70663 11.6714C6.77863 11.8147 8.51263 15.1667 12 15.1667C15.4873 15.1667 17.222 11.8147 17.2933 11.6714C17.362 11.5347 17.34 11.3594 17.2406 11.2527Z" fill="#664500"/>
<path d="M8.92867 15.9359L7.90267 14.4566C7.90267 14.4566 7.54067 13.8786 6.96201 14.2399C6.38401 14.6006 6.74601 15.1793 6.74601 15.1793L7.91801 17.4326C7.91801 17.4326 8.01401 17.9446 7.30601 17.3719C6.99734 17.1226 7.17467 17.2633 7.17467 17.2633L6.88134 17.0226L3.22067 14.0173C3.22067 14.0173 2.74801 13.5186 2.31467 14.0453C1.88267 14.5726 2.46334 14.9393 2.46334 14.9393L5.92534 17.7833C5.84534 17.8633 5.60401 18.1393 5.52534 18.2253L1.82067 15.1853C1.82067 15.1853 1.34734 14.6859 0.915341 15.2126C0.482008 15.7399 1.06334 16.1066 1.06334 16.1066L4.76667 19.1479C4.69801 19.2413 4.52467 19.4653 4.46067 19.5573L1.26601 16.9346C1.26601 16.9346 0.792675 16.4359 0.360675 16.9626C-0.0733255 17.4899 0.508675 17.8573 0.508675 17.8573L3.90467 20.6466C3.86201 20.7653 3.66267 21.0773 3.63134 21.1933L1.18334 19.1853C1.18334 19.1853 0.710675 18.6839 0.278675 19.2126C-0.154659 19.7399 0.426675 20.1066 0.426675 20.1066L4.38001 23.3519L4.64334 23.5693C6.39001 25.0033 8.96934 24.7499 10.4033 23.0033C11.7173 21.4013 11.6147 19.1013 10.2433 17.6239C9.75734 17.1026 9.33667 16.5219 8.92867 15.9359ZM23.722 19.2133C23.29 18.6846 22.8173 19.1859 22.8173 19.1859L20.3693 21.1939C20.338 21.0779 20.1387 20.7653 20.096 20.6473L23.492 17.8579C23.492 17.8579 24.074 17.4906 23.6407 16.9633C23.2087 16.4366 22.7353 16.9353 22.7353 16.9353L19.5407 19.5579C19.4767 19.4653 19.3027 19.2413 19.2347 19.1486L22.938 16.1073C22.938 16.1073 23.52 15.7406 23.0867 15.2133C22.6547 14.6866 22.182 15.1859 22.182 15.1859L18.4767 18.2259C18.3987 18.1399 18.1573 17.8639 18.0767 17.7839L21.5387 14.9399C21.5387 14.9399 22.1187 14.5733 21.6873 14.0459C21.254 13.5193 20.7813 14.0179 20.7813 14.0179L17.1207 17.0233L16.828 17.2639C16.828 17.2639 17.488 16.7033 16.6967 17.3726C15.9047 18.0419 16.0847 17.4333 16.0847 17.4333L17.2567 15.1799C17.2567 15.1799 17.6187 14.6013 17.0407 14.2406C16.4613 13.8793 16.1 14.4573 16.1 14.4573L15.0747 15.9366C14.666 16.5226 14.2453 17.1033 13.7587 17.6253C12.3867 19.1033 12.284 21.4026 13.5993 23.0046C15.0327 24.7513 17.6127 25.0046 19.3593 23.5706L19.6233 23.3533L23.5767 20.1079C23.5733 20.1073 24.1547 19.7406 23.722 19.2133Z" fill="#F4900C"/>
<path d="M18.4513 7.82192C18.4173 7.74059 17.5946 5.83325 15.904 5.83325C14.2146 5.83325 13.392 7.74059 13.358 7.82192C13.3046 7.94725 13.3393 8.09259 13.44 8.17925C13.5393 8.26459 13.6833 8.26725 13.7886 8.18725C13.7953 8.18125 14.5093 7.64325 15.904 7.64325C17.29 7.64325 18.0033 8.17459 18.02 8.18725C18.07 8.22659 18.13 8.24659 18.19 8.24659C18.2533 8.24659 18.316 8.22392 18.368 8.18059C18.47 8.09459 18.5046 7.94725 18.4513 7.82192ZM11.118 7.82192C11.0833 7.74059 10.2613 5.83325 8.57063 5.83325C6.8813 5.83325 6.05863 7.74059 6.02397 7.82192C5.9713 7.94725 6.0053 8.09259 6.10663 8.17925C6.20663 8.26459 6.35063 8.26725 6.4553 8.18725C6.46263 8.18125 7.17597 7.64325 8.57063 7.64325C9.9573 7.64325 10.67 8.17459 10.686 8.18725C10.7366 8.22659 10.796 8.24659 10.856 8.24659C10.9193 8.24659 10.982 8.22392 11.034 8.18059C11.1366 8.09459 11.1706 7.94725 11.118 7.82192Z" fill="#664500"/>
<path d="M7.45461 17.4854C7.45461 17.4854 5.72594 19.6947 7.77728 22.4587C7.91861 22.6487 8.27728 22.556 8.12461 22.3334C7.95794 22.0907 6.29128 19.736 7.85794 17.6287C7.85794 17.6287 7.60394 17.5974 7.45461 17.4854ZM16.5099 17.5507C16.5099 17.5507 18.2393 19.76 16.1873 22.524C16.0459 22.714 15.6873 22.6214 15.8399 22.3987C16.0066 22.156 17.6733 19.8014 16.1066 17.694C16.1059 17.6947 16.3606 17.6634 16.5099 17.5507Z" fill="#B55005"/>
</g>
<defs>
<clipPath id="clip0">
<rect width="24" height="24" fill="white" transform="translate(0 0.5)"/>
</clipPath>
</defs>
</svg>
