<svg width="24" height="25" viewBox="0 0 24 25" fill="none" xmlns="http://www.w3.org/2000/svg">
<path d="M11.3333 12.5C11.3333 12.5 7.31268 16.016 6.17335 17.0547C5.29135 17.8567 6.76001 19.3867 7.59668 18.6893C9.81868 16.8327 11.9253 15.456 11.9253 15.456L12.17 15.8067C11.2973 16.3333 9.04135 17.712 7.87068 18.7653C6.98801 19.5587 8.38201 21.134 9.26601 20.342C10.4807 19.2527 13.2627 17.2987 13.2627 17.2987L13.508 17.5547C12.788 18.0073 11.66 18.848 10.1847 20.1933C9.29668 21.0033 10.5973 21.85 11.3607 21.216C13.438 19.492 13.5153 18.294 15.8013 17.316C19.29 15.824 11.3333 12.5 11.3333 12.5Z" fill="#EF9645"/>
<path d="M19.986 6.39061C20.5734 6.09861 21.088 6.48661 21.39 7.09261C21.6887 7.69995 23.078 10.4359 23.3587 11.0053C23.642 11.5733 23.486 12.4073 22.8794 12.7073C22.272 13.0093 21.39 13.4099 20.818 14.3819C20.508 14.9113 19.2207 16.3066 15.732 17.8013C13.4474 18.7759 11.622 20.4266 10.8914 21.0013C10.3007 21.4666 9.10937 20.5766 9.99604 19.7679C11.472 18.4213 12.6 17.5806 13.3194 17.1293L13.074 16.8719C13.074 16.8719 10.1534 18.9093 8.91537 19.9719C8.0747 20.6953 6.9567 19.3366 7.84004 18.5439C9.01137 17.4906 11.108 15.9079 11.9807 15.3813L11.7367 15.0286C11.7367 15.0286 9.45004 16.5159 7.2267 18.3753C6.4847 18.9953 5.3287 17.6026 6.21004 16.7993C7.35004 15.7626 9.57204 13.9039 10.9387 13.1333L10.808 12.7273C10.808 12.7273 8.6627 13.9306 6.8107 15.7233C6.14804 16.3639 4.82804 15.1779 5.79404 14.1946C8.10204 11.8466 11.0994 10.4553 11.8967 9.91928C12.9674 9.19928 13.5307 8.74995 12.9674 8.49728C12.118 8.11528 10.7034 6.77595 10.1607 5.69061C9.4587 4.28661 10.454 3.17728 11.564 4.28661C12.266 4.98861 13.67 6.39195 15.0727 6.39195C16.9587 6.39195 17.2474 7.09395 18.582 7.09395C19.2847 7.09261 19.986 6.39061 19.986 6.39061Z" fill="#FFCC4D"/>
<path d="M16.6987 10.6113C16.476 10.612 15.7393 10.5113 14.9093 10.128C14.194 9.79867 13.6393 9.20133 13.178 8.7C13.204 8.80733 13.1347 8.936 12.9893 9.08667C13.4433 9.61467 14.138 10.2173 14.7587 10.5173C15.48 10.8673 16.302 11.044 16.6727 11.0287C17.054 11.0127 16.9293 10.614 16.6987 10.6113ZM18.1433 16.3313C16.634 15.6287 15.4353 15.042 17.494 15.8913C18.3453 16.2413 19.6233 14.518 18.3707 13.9467C15.8493 12.796 8.00001 8.5 8.00001 8.5C8.00001 8.5 3.75467 13.458 4.28001 13.776C4.80601 14.092 5.02534 16.342 8.05667 18.3213C10.922 20.1933 12.7067 20.998 13.3773 21.3333C14.782 22.0353 15.6953 20.2147 14.5993 19.7253C12.7107 18.8813 12.7767 18.83 15.5447 19.98C16.5693 20.4067 17.4307 18.48 16.348 17.9927C14.7333 17.2667 14.588 17.1787 17.174 18.344C18.1307 18.7727 19.2227 16.8347 18.1433 16.3313Z" fill="#EF9645"/>
<path d="M4.72661 6.68533C4.16528 6.346 3.41995 6.51466 3.06995 7.09533C2.71995 7.676 1.18461 10.2173 0.857279 10.762C0.529279 11.306 0.614612 12.148 1.19461 12.498C1.77461 12.8487 2.82595 13.4827 3.35195 13.7993C3.87795 14.1173 6.02595 16.784 9.12661 18.652C12.2253 20.524 13.3706 20.8427 14.0679 21.1167C14.7679 21.39 15.6926 19.9947 14.5966 19.506C12.7053 18.6607 11.3726 17.8807 10.6906 17.3693L10.9026 16.9793C10.9026 16.9793 12.7939 18.3927 15.5606 19.5447C16.5853 19.9713 17.4206 18.3753 16.3386 17.8867C14.7233 17.1607 12.7306 15.9573 11.9046 15.36L12.1353 14.9793C12.1353 14.9793 14.7659 16.642 17.3519 17.8073C18.3059 18.2373 19.1066 16.6167 18.0273 16.1127C16.5206 15.41 14.3953 14.1427 13.0979 13.2613L13.3233 12.928C13.3233 12.928 15.7333 14.6287 17.7933 15.4767C18.6446 15.8287 19.6466 14.236 18.3926 13.6627C15.8733 12.5127 13.0166 10.5 12.2673 9.9C11.6553 9.40866 11.4799 8.29133 12.9686 7.79466C15.0739 7.09266 15.7759 5.68933 15.7759 4.98733C15.7759 3.99466 14.8586 3.55666 14.3733 4.28533C12.9686 6.39066 12.2626 5.67333 10.8646 6.39066C9.18861 7.25133 7.22061 8.16533 6.07861 7.476C5.58995 7.182 4.72661 6.68533 4.72661 6.68533Z" fill="#FFDC5D"/>
<path d="M12.632 8.31388L16.2494 6.50588C15.9314 6.43788 15.556 6.39121 15.074 6.39121C13.6714 6.39121 12.2674 4.98788 11.5654 4.28588C10.4554 3.17655 9.46002 4.28588 10.162 5.68988C10.6387 6.64188 11.784 7.78855 12.632 8.31388Z" fill="#FFCC4D"/>
</svg>
