<svg width="34" height="34" viewBox="0 0 34 34" fill="none" xmlns="http://www.w3.org/2000/svg">
<circle cx="17" cy="17.0005" r="17" fill="white"/>
<path d="M13.1344 24.0005H10.2312V14.6536H13.1344V24.0005ZM11.6812 13.3786C10.7531 13.3786 10 12.6099 10 11.6817C10 10.7536 10.7531 10.0005 11.6812 10.0005C12.6094 10.0005 13.3625 10.7536 13.3625 11.6817C13.3625 12.6099 12.6094 13.3786 11.6812 13.3786ZM24 24.0005H21.1031V19.4505C21.1031 18.3661 21.0812 16.9755 19.5937 16.9755C18.0844 16.9755 17.8531 18.1536 17.8531 19.3724V24.0005H14.9531V14.6536H17.7375V15.9286H17.7781C18.1656 15.1942 19.1125 14.4192 20.525 14.4192C23.4625 14.4192 24.0031 16.3536 24.0031 18.8661V24.0005H24Z" fill="#7681A0"/>
</svg>
