<svg width="34" height="34" viewBox="0 0 34 34" fill="none" xmlns="http://www.w3.org/2000/svg">
<circle cx="17" cy="17.0005" r="17" fill="white"/>
<path d="M23.3553 14.2391C23.3655 14.3812 23.3655 14.5233 23.3655 14.6655C23.3655 19.0005 20.066 23.9954 14.0355 23.9954C12.1777 23.9954 10.4518 23.4573 9 22.5233C9.26397 22.5538 9.51775 22.5639 9.79188 22.5639C11.3248 22.5639 12.736 22.0462 13.8629 21.1629C12.4213 21.1325 11.2132 20.1883 10.7969 18.8888C11 18.9192 11.203 18.9396 11.4162 18.9396C11.7107 18.9396 12.0051 18.8989 12.2792 18.8279C10.7767 18.5233 9.64972 17.2035 9.64972 15.6096V15.569C10.0863 15.8127 10.5939 15.965 11.1319 15.9852C10.2487 15.3964 9.67003 14.3913 9.67003 13.2543C9.67003 12.6451 9.83244 12.0868 10.1167 11.5995C11.7309 13.5893 14.1573 14.8888 16.8781 15.0309C16.8274 14.7873 16.7969 14.5335 16.7969 14.2797C16.7969 12.4726 18.2588 11.0005 20.0761 11.0005C21.0203 11.0005 21.873 11.3964 22.472 12.036C23.2131 11.8939 23.9238 11.6198 24.5533 11.2441C24.3096 12.0056 23.7918 12.6452 23.1116 13.0512C23.7715 12.9802 24.4111 12.7974 24.9999 12.5436C24.5533 13.1934 23.9949 13.772 23.3553 14.2391Z" fill="#7681A0"/>
</svg>
