<svg width="24" height="40" viewBox="0 0 24 40" fill="none" xmlns="http://www.w3.org/2000/svg">
<path d="M8.60769 18.1743H15.3939C16.2809 18.1743 17.0025 17.4526 17.0025 16.5656V15.7966C17.0025 14.0231 16.0739 12.4634 14.6781 11.575L14.987 11.002C15.1407 10.7171 15.0342 10.3616 14.7493 10.208C14.4644 10.0544 14.1089 10.1607 13.9553 10.4457L13.6211 11.0657C13.1125 10.8911 12.5679 10.7949 12.0008 10.7949C11.4337 10.7949 10.889 10.8911 10.3805 11.0657L10.0462 10.4457C9.89261 10.1608 9.53713 10.0544 9.25222 10.208C8.96731 10.3615 8.86088 10.7171 9.01451 11.002L9.32341 11.575C7.92761 12.4634 6.99902 14.0231 6.99902 15.7966V16.5656C6.99895 17.4526 7.7206 18.1743 8.60769 18.1743ZM8.1711 15.7966C8.1711 13.685 9.88901 11.967 12.0007 11.967C14.1124 11.967 15.8303 13.6849 15.8303 15.7966V16.5656C15.8303 16.8064 15.6345 17.0021 15.3938 17.0021H8.60761C8.36685 17.0021 8.1711 16.8063 8.1711 16.5656V15.7966Z" fill="#004D40"/>
<path d="M10.3068 15.846C10.6305 15.846 10.8929 15.5836 10.8929 15.2599V14.6969C10.8929 14.3732 10.6305 14.1108 10.3068 14.1108C9.98311 14.1108 9.7207 14.3732 9.7207 14.6969V15.2599C9.7207 15.5836 9.98311 15.846 10.3068 15.846Z" fill="#004D40"/>
<path d="M13.6935 15.846C14.0172 15.846 14.2796 15.5836 14.2796 15.2599V14.6969C14.2796 14.3732 14.0172 14.1108 13.6935 14.1108C13.3698 14.1108 13.1074 14.3732 13.1074 14.6969V15.2599C13.1074 15.5836 13.3698 15.846 13.6935 15.846Z" fill="#004D40"/>
<path d="M8.1663 25.8836V28.2061C8.1663 29.1193 8.90913 29.862 9.82216 29.862C10.7352 29.862 11.478 29.1192 11.478 28.2061V25.9188H12.5217V28.2061C12.5217 29.1193 13.2645 29.862 14.1776 29.862C15.0906 29.862 15.8334 29.1192 15.8334 28.2061V25.8836C16.5005 25.7373 17.0015 25.1426 17.0015 24.4323V24.2589C17.0015 23.9352 16.7391 23.6728 16.4155 23.6728C16.0918 23.6728 15.8294 23.9352 15.8294 24.2589V24.4323C15.8294 24.6057 15.6883 24.7467 15.5149 24.7467H15.2474H8.75222H8.48465C8.31125 24.7467 8.1702 24.6057 8.1702 24.4323V20.3143C8.1702 20.1409 8.31125 19.9999 8.48465 19.9999H15.515C15.6884 19.9999 15.8295 20.1409 15.8295 20.3143V21.5238C15.8295 21.8475 16.0919 22.1099 16.4155 22.1099C16.7392 22.1099 17.0016 21.8475 17.0016 21.5238V20.3143C17.0016 19.4946 16.3347 18.8277 15.515 18.8277H8.48465C7.66493 18.8277 6.99805 19.4946 6.99805 20.3143V24.4323C6.9982 25.1426 7.49926 25.7373 8.1663 25.8836ZM13.694 25.9189H14.6615V28.2062C14.6615 28.473 14.4445 28.6899 14.1778 28.6899C13.9111 28.6899 13.6941 28.4729 13.6941 28.2062V25.9189H13.694ZM9.33845 25.9189H10.3059V28.2062C10.3059 28.473 10.0889 28.6899 9.82224 28.6899C9.55554 28.6899 9.33853 28.4729 9.33853 28.2062V25.9189H9.33845Z" fill="#004D40"/>
<path d="M17.791 22.6801C17.791 23.5932 18.5338 24.336 19.4469 24.336C20.3599 24.336 21.1027 23.5932 21.1027 22.6801V20.4838C21.1027 19.5707 20.3599 18.828 19.4469 18.828C18.5338 18.828 17.791 19.5708 17.791 20.4838V22.6801ZM18.9632 20.4838C18.9632 20.217 19.1802 20.0001 19.4469 20.0001C19.7136 20.0001 19.9306 20.2171 19.9306 20.4838V22.6801C19.9306 22.9469 19.7136 23.1638 19.4469 23.1638C19.1802 23.1638 18.9632 22.9468 18.9632 22.6801V20.4838Z" fill="#004D40"/>
<path d="M4.5543 24.3361C5.46741 24.3361 6.21017 23.5932 6.21017 22.6802V20.4838C6.21017 19.5707 5.46733 18.828 4.5543 18.828C3.64127 18.828 2.89844 19.5708 2.89844 20.4838V22.6801C2.89836 23.5932 3.64119 24.3361 4.5543 24.3361ZM4.07052 20.4838C4.07052 20.217 4.28752 20.0001 4.55423 20.0001C4.82093 20.0001 5.03794 20.2171 5.03794 20.4838V22.6801C5.03794 22.9469 4.82093 23.1638 4.55423 23.1638C4.28752 23.1638 4.07052 22.9468 4.07052 22.6801V20.4838Z" fill="#004D40"/>
<path d="M21.3011 3.8147e-06H7.79361C7.46994 3.8147e-06 7.20753 0.262411 7.20753 0.586082C7.20753 0.909754 7.46994 1.17216 7.79361 1.17216H21.3011C22.0098 1.17216 22.5864 1.74871 22.5864 2.45747V5.11358H1.41434V2.45747C1.41434 1.74871 1.99097 1.17216 2.69965 1.17216H5.08468C5.40835 1.17216 5.67076 0.909754 5.67076 0.586082C5.67076 0.262411 5.40835 3.8147e-06 5.08468 3.8147e-06H2.69965C1.34456 3.8147e-06 0.242188 1.10238 0.242188 2.45747V37.5425C0.242188 38.8975 1.34456 39.9999 2.69965 39.9999H21.3011C22.6562 39.9999 23.7585 38.8975 23.7585 37.5425V2.45747C23.7585 1.10238 22.6562 3.8147e-06 21.3011 3.8147e-06V3.8147e-06ZM22.5864 37.5425C22.5864 38.2513 22.0098 38.8278 21.3011 38.8278H2.69965C1.99097 38.8278 1.41434 38.2513 1.41434 37.5425V34.8864H22.5865V37.5425H22.5864ZM22.5864 33.7142H1.41434V6.28573H22.5865V33.7142H22.5864Z" fill="#004D40"/>
<path d="M11.0558 37.4432H12.9452C13.2688 37.4432 13.5312 37.1808 13.5312 36.8571C13.5312 36.5335 13.2688 36.2711 12.9452 36.2711H11.0558C10.7321 36.2711 10.4697 36.5335 10.4697 36.8571C10.4697 37.1808 10.7321 37.4432 11.0558 37.4432Z" fill="#004D40"/>
<path d="M9.53007 3.92001C9.95927 3.92001 10.3072 3.57207 10.3072 3.14287C10.3072 2.71367 9.95927 2.36573 9.53007 2.36573C9.10087 2.36573 8.75293 2.71367 8.75293 3.14287C8.75293 3.57207 9.10087 3.92001 9.53007 3.92001Z" fill="#004D40"/>
<path d="M15.2477 3.72894C15.5714 3.72894 15.8338 3.46654 15.8338 3.14286C15.8338 2.81919 15.5714 2.55679 15.2477 2.55679H12.0001C11.6765 2.55679 11.4141 2.81919 11.4141 3.14286C11.4141 3.46654 11.6765 3.72894 12.0001 3.72894H15.2477Z" fill="#004D40"/>
<path d="M17.5646 9.35428C17.8883 9.35428 18.1507 9.09187 18.1507 8.7682V8.41007C18.1507 8.0864 17.8883 7.82399 17.5646 7.82399C17.2409 7.82399 16.9785 8.0864 16.9785 8.41007V8.7682C16.9785 9.09187 17.2409 9.35428 17.5646 9.35428Z" fill="#004D40"/>
<path d="M19.3634 9.35428C19.6871 9.35428 19.9495 9.09188 19.9495 8.7682V8.05186C19.9495 7.72819 19.6871 7.46578 19.3634 7.46578C19.0398 7.46578 18.7773 7.72819 18.7773 8.05186V8.7682C18.7773 9.09188 19.0398 9.35428 19.3634 9.35428Z" fill="#004D40"/>
<path d="M21.1622 9.35428C21.4859 9.35428 21.7483 9.09188 21.7483 8.7682V7.69373C21.7483 7.37006 21.4859 7.10765 21.1622 7.10765C20.8386 7.10765 20.5762 7.37006 20.5762 7.69373V8.7682C20.5762 9.09188 20.8386 9.35428 21.1622 9.35428Z" fill="#004D40"/>
</svg>
