<svg width="40" height="40" viewBox="0 0 40 40" fill="none" xmlns="http://www.w3.org/2000/svg">
<path d="M27.7419 7.74194C27.7419 3.4729 24.269 0 20 0C15.731 0 12.2581 3.4729 12.2581 7.74194H0V40H12.9032H27.0968H40V7.74194H27.7419ZM20 1.29032C23.5574 1.29032 26.4516 4.18452 26.4516 7.74194C26.4516 11.2994 23.5574 14.1935 20 14.1935C16.4426 14.1935 13.5484 11.2994 13.5484 7.74194C13.5484 4.18452 16.4426 1.29032 20 1.29032ZM25.8064 38.7097H14.1935V24.5161H25.8064V38.7097ZM38.7097 38.7097H27.0968V23.2258H12.9032V38.7097H1.29032V17.6187C2.41226 19.0645 4.16194 20 6.12903 20C7.77548 20 9.33871 19.3361 10.4806 18.1845C11.5548 20.0774 13.5813 21.2903 15.8065 21.2903C17.3755 21.2903 18.869 20.6916 20 19.6284C21.131 20.6916 22.6245 21.2903 24.1935 21.2903C26.4187 21.2903 28.4452 20.0774 29.5194 18.1845C30.6613 19.3361 32.2245 20 33.871 20C35.8381 20 37.5877 19.0645 38.7097 17.6187V38.7097ZM38.7097 13.871C38.7097 16.5394 36.5394 18.7097 33.871 18.7097C32.2845 18.7097 30.7961 17.9277 29.8903 16.6187L29.1723 15.5813L28.7516 16.7716C28.069 18.7019 26.2374 20 24.1935 20C22.7652 20 21.4168 19.371 20.4935 18.2755L20 17.6903L19.5065 18.2755C18.5832 19.371 17.2348 20 15.8065 20C13.7626 20 11.931 18.7019 11.2484 16.771L10.8277 15.5806L10.1097 16.6181C9.20387 17.9277 7.71548 18.7097 6.12903 18.7097C3.46064 18.7097 1.29032 16.5394 1.29032 13.871V9.03226H12.3748C12.9916 12.6877 16.1716 15.4839 20 15.4839C23.8284 15.4839 27.0084 12.6877 27.6252 9.03226H38.7097V13.871Z" fill="#004D40"/>
<path d="M18.064 30.9677H15.4834V32.2581H18.064V30.9677Z" fill="#004D40"/>
<path d="M3.22559 30.9677H10.9675V23.2258H3.22559V30.9677ZM7.74172 24.5161H9.6772V26.4516H7.74172V24.5161ZM7.74172 27.7419H9.6772V29.6774H7.74172V27.7419ZM4.51591 24.5161H6.45139V26.4516H4.51591V24.5161ZM4.51591 27.7419H6.45139V29.6774H4.51591V27.7419Z" fill="#004D40"/>
<path d="M29.0322 30.9677H36.7742V23.2258H29.0322V30.9677ZM33.5484 24.5161H35.4838V26.4516H33.5484V24.5161ZM33.5484 27.7419H35.4838V29.6774H33.5484V27.7419ZM30.3225 24.5161H32.258V26.4516H30.3225V24.5161ZM30.3225 27.7419H32.258V29.6774H30.3225V27.7419Z" fill="#004D40"/>
<path d="M19.0325 11.6129H19.3551V12.9032H20.6454V11.6129H20.968C22.2131 11.6129 23.226 10.6 23.226 9.35484C23.226 8.10968 22.2131 7.09678 20.968 7.09678H19.0325C18.4989 7.09678 18.0647 6.66258 18.0647 6.12903C18.0647 5.59549 18.4989 5.16129 19.0325 5.16129H20.968C21.5015 5.16129 21.9357 5.59549 21.9357 6.12903V6.45161H23.226V6.12903C23.226 4.88387 22.2131 3.87097 20.968 3.87097H20.6454V2.58065H19.3551V3.87097H19.0325C17.7873 3.87097 16.7744 4.88387 16.7744 6.12903C16.7744 7.37419 17.7873 8.3871 19.0325 8.3871H20.968C21.5015 8.3871 21.9357 8.82129 21.9357 9.35484C21.9357 9.88839 21.5015 10.3226 20.968 10.3226H19.0325C18.4989 10.3226 18.0647 9.88839 18.0647 9.35484V9.03226H16.7744V9.35484C16.7744 10.6 17.7873 11.6129 19.0325 11.6129Z" fill="#004D40"/>
<path d="M11.6127 10.3226H5.16113V11.6129H11.6127V10.3226Z" fill="#004D40"/>
<path d="M3.87138 10.3226H2.58105V11.6129H3.87138V10.3226Z" fill="#004D40"/>
<path d="M34.8383 10.3226H28.3867V11.6129H34.8383V10.3226Z" fill="#004D40"/>
<path d="M37.4192 10.3226H36.1289V11.6129H37.4192V10.3226Z" fill="#004D40"/>
</svg>
