<svg width="22" height="22" viewBox="0 0 22 22" fill="none" xmlns="http://www.w3.org/2000/svg">
<path d="M19.4409 4.30935C19.4064 4.23172 19.3511 4.16511 19.2812 4.11685C18.2618 2.9079 16.9901 1.93676 15.5554 1.27164C14.1207 0.606518 12.5578 0.263538 10.9764 0.266785C9.39502 0.270031 7.83352 0.619425 6.40156 1.29043C4.9696 1.96144 3.70189 2.93778 2.68746 4.15091C2.65568 4.17876 2.62726 4.21022 2.60277 4.24466C2.5984 4.25091 2.5959 4.25779 2.59215 4.26404C1.00993 6.19839 0.145508 8.62048 0.145508 11.1195C0.145508 13.6185 1.00993 16.0406 2.59215 17.975C2.59621 17.9812 2.59871 17.9884 2.60277 17.9947C2.62736 18.0291 2.65589 18.0606 2.68777 18.0884C3.70241 19.3014 4.97029 20.2775 6.40236 20.9483C7.83443 21.619 9.39599 21.9682 10.9774 21.9711C12.5587 21.9741 14.1216 21.6309 15.5562 20.9655C16.9908 20.3001 18.2623 19.3288 19.2815 18.1197C19.3501 18.0719 19.4041 18.0061 19.4378 17.9297C20.9988 16.0023 21.8506 13.5974 21.8506 11.1172C21.8506 8.63695 20.9988 6.23198 19.4378 4.30466L19.4409 4.30935ZM18.8196 16.954C18.0969 16.5193 17.3297 16.1631 16.5312 15.8915C16.8953 14.5122 17.0952 13.0947 17.1268 11.6684H20.7431C20.6377 13.5815 19.9684 15.4206 18.8196 16.954ZM1.25715 11.6678H4.87246C4.90416 13.094 5.10419 14.5116 5.4684 15.8909C4.6699 16.1625 3.90273 16.5187 3.17996 16.9534C2.03107 15.42 1.3617 13.5809 1.25621 11.6678H1.25715ZM3.18027 5.2881C3.90304 5.72282 4.67021 6.07901 5.46871 6.3506C5.10459 7.72995 4.90467 9.14748 4.87308 10.5737H1.25621C1.36161 8.66063 2.03087 6.82152 3.17965 5.2881H3.18027ZM11.5471 7.2256C12.87 7.19072 14.1846 7.00536 15.4656 6.6731C15.8059 7.94683 15.9957 9.25609 16.0309 10.574H11.5465L11.5471 7.2256ZM11.5471 6.13185V1.4231C13.0159 1.74654 14.319 3.35279 15.1384 5.63185C13.9634 5.93166 12.7587 6.09988 11.5465 6.13341L11.5471 6.13185ZM10.4534 1.42154V6.13341C9.24141 6.09973 8.03693 5.93141 6.86215 5.63154C7.6809 3.35279 8.98277 1.74654 10.4528 1.4231L10.4534 1.42154ZM10.4534 7.2256V10.5725H5.9684C6.00415 9.2549 6.1943 7.94606 6.53496 6.67279C7.81565 7.00552 9.13004 7.19141 10.4528 7.22685L10.4534 7.2256ZM5.9684 11.6678H10.4528V15.0147C9.12989 15.0495 7.81528 15.2349 6.53433 15.5672C6.19391 14.294 6.00397 12.9852 5.9684 11.6678ZM10.4528 16.1084V20.8187C8.98402 20.4953 7.6809 18.889 6.86152 16.61C8.03631 16.3102 9.2408 16.142 10.4528 16.1084ZM11.5465 20.819V16.1084C12.7585 16.1421 13.963 16.3104 15.1378 16.6103C14.3184 18.889 13.0165 20.4953 11.5465 20.8187V20.819ZM11.5465 15.015V11.6678H16.0309C15.9951 12.9854 15.805 14.2942 15.4643 15.5675C14.1836 15.2352 12.8692 15.0497 11.5465 15.0147V15.015ZM17.1268 10.5744C17.0952 9.14798 16.8951 7.73035 16.5309 6.35091C17.3294 6.07935 18.0966 5.72316 18.8193 5.28841C19.9682 6.82199 20.6375 8.66134 20.7428 10.5747L17.1268 10.5744ZM18.1043 4.44029C17.5013 4.79022 16.8658 5.08105 16.2068 5.30873C15.7996 4.07482 15.157 2.93155 14.3146 1.94216C15.7562 2.46624 17.0543 3.32186 18.1043 4.43998V4.44029ZM7.68496 1.94185C6.84264 2.93124 6.20006 4.07451 5.79277 5.30841C5.13367 5.08073 4.49812 4.7899 3.89496 4.43998C4.94502 3.32171 6.24328 2.46598 7.68496 1.94185ZM3.89496 17.8018C4.49812 17.4519 5.13367 17.1611 5.79277 16.9334C6.20006 18.1673 6.84264 19.3106 7.68496 20.3C6.24329 19.7758 4.94503 18.9201 3.89496 17.8018ZM14.314 20.3C15.1564 19.3105 15.799 18.1671 16.2062 16.9331C16.8653 17.1608 17.5009 17.4516 18.104 17.8015C17.0541 18.9199 15.7559 19.7757 14.3143 20.3H14.314Z" fill="#004D40"/>
</svg>
