<svg width="30" height="30" viewBox="0 0 30 30" fill="none" xmlns="http://www.w3.org/2000/svg">
<path d="M29.1421 4.10113C28.7008 3.65904 27.9847 3.65828 27.5434 4.09926L13.9793 17.6275L9.08548 12.3123C8.66261 11.8533 7.94765 11.8235 7.48787 12.2463C7.02843 12.6692 6.99902 13.3845 7.42189 13.8439L13.1129 20.0245C13.3213 20.251 13.613 20.3825 13.9205 20.3889C13.9288 20.3893 13.9368 20.3893 13.9447 20.3893C14.2435 20.3893 14.5311 20.2705 14.7429 20.0595L29.1399 5.70021C29.5823 5.2593 29.5831 4.54322 29.1421 4.10113Z" fill="#004D40"/>
<path d="M28.8693 13.8693C28.2448 13.8693 27.7387 14.3754 27.7387 15C27.7387 22.0244 22.0244 27.7387 15 27.7387C7.97602 27.7387 2.26131 22.0244 2.26131 15C2.26131 7.97602 7.97602 2.26131 15 2.26131C15.6245 2.26131 16.1307 1.75518 16.1307 1.13068C16.1307 0.506133 15.6245 0 15 0C6.72891 0 0 6.72891 0 15C0 23.2707 6.72891 30 15 30C23.2707 30 30 23.2707 30 15C30 14.3755 29.4939 13.8693 28.8693 13.8693Z" fill="#004D40"/>
</svg>
