<svg width="40" height="40" viewBox="0 0 40 40" fill="none" xmlns="http://www.w3.org/2000/svg">
<g clip-path="url(#clip0)">
<path d="M23.2034 11.8716C22.7713 11.8716 22.4209 12.2217 22.4209 12.6529C22.4209 13.0838 22.7713 13.4338 23.2034 13.4338C23.6354 13.4338 23.9858 13.0838 23.9858 12.6529C23.9858 12.2217 23.6354 11.8716 23.2034 11.8716Z" fill="#004D40"/>
<path d="M18.4572 27.1301C18.7626 26.8247 18.7626 26.3303 18.4572 26.0248C18.1514 25.7202 17.656 25.7202 17.35 26.0248C17.0448 26.3303 17.0448 26.8247 17.35 27.1301C17.656 27.4347 18.1514 27.4347 18.4572 27.1301Z" fill="#004D40"/>
<path d="M9.05287 39.7689C9.3562 40.0741 9.85002 40.0775 10.1573 39.7754L13.9514 36.0449C14.5959 35.4016 14.7919 34.4491 14.5085 33.6212L15.3246 32.8357C15.764 32.4121 16.3425 32.1786 16.954 32.1786H27.3574C29.203 32.1786 30.9474 31.4712 32.2699 30.1867C32.3243 30.1339 31.8568 30.6836 39.3672 21.7248C40.4811 20.4095 40.3145 18.4344 38.9954 17.3214C37.6845 16.2188 35.7209 16.3772 34.6039 17.6699L29.9861 22.4069C29.403 21.6906 28.5138 21.2442 27.5531 21.2442H18.8266C17.5849 20.7257 16.2673 20.4632 14.9078 20.4632C11.1407 20.4632 7.84965 22.1991 6.0832 25.4571C5.33926 25.3164 4.55464 25.541 3.99019 26.1044L0.267399 29.8309C-0.0365394 30.1352 -0.0371509 30.6274 0.266176 30.9323L9.05287 39.7689ZM14.9075 22.0251C16.1061 22.0251 17.265 22.2659 18.3526 22.7407C18.4517 22.7841 18.5584 22.8064 18.6664 22.8064H27.5531C28.4016 22.8064 29.1183 23.497 29.1183 24.3682C29.1183 25.2298 28.4163 25.9304 27.5531 25.9304H21.1682C20.7362 25.9304 20.3857 26.2802 20.3857 26.7114C20.3857 27.1429 20.7362 27.4923 21.1682 27.4923H27.5531C29.2791 27.4923 30.6833 26.091 30.6833 24.3682C30.6833 24.2309 30.6735 24.0948 30.6557 23.9599C35.1228 19.3771 35.7527 18.7332 35.7796 18.7011C36.3373 18.0441 37.3274 17.9608 37.986 18.515C38.6453 19.0713 38.7288 20.0589 38.1695 20.7196L31.1505 29.0942C30.1255 30.0763 28.7798 30.6167 27.3574 30.6167H16.954C15.9346 30.6167 14.9696 31.0058 14.2376 31.7117L13.5725 32.3523L7.44175 26.2338C8.8746 23.551 11.5633 22.0251 14.9075 22.0251ZM5.0977 27.2082C5.35577 26.9506 5.75205 26.9043 6.06669 27.0983C6.18625 27.171 12.8796 33.8678 12.9209 33.923C13.1499 34.2309 13.1172 34.6682 12.849 34.9362L9.61457 38.1164L1.9253 30.3836L5.0977 27.2082Z" fill="#004D40"/>
<path d="M12.2471 16.5579H31.0286C32.3233 16.5579 33.3764 15.5069 33.3764 14.2148C33.3764 12.2461 33.3764 3.75885 33.3764 2.34314C33.3764 1.05103 32.3233 0 31.0286 0H12.2471C10.9525 0 9.89941 1.05103 9.89941 2.34314V14.2148C9.89941 15.5069 10.9525 16.5579 12.2471 16.5579ZM31.8111 6.24817H11.4647V4.68628H31.8111V6.24817ZM31.0286 14.996H12.2471C11.8157 14.996 11.4647 14.6454 11.4647 14.2148V7.81037H31.8111V14.2148C31.8111 14.6454 31.4601 14.996 31.0286 14.996ZM12.2471 1.5622H31.0286C31.4601 1.5622 31.8111 1.91254 31.8111 2.34314V3.12409H11.4647V2.34314C11.4647 1.91254 11.8157 1.5622 12.2471 1.5622Z" fill="#004D40"/>
<path d="M29.4635 11.8716H26.3333C25.9012 11.8716 25.5508 12.2214 25.5508 12.6529C25.5508 13.0841 25.9012 13.4338 26.3333 13.4338H29.4635C29.8958 13.4338 30.2462 13.0841 30.2462 12.6529C30.2462 12.2214 29.8958 11.8716 29.4635 11.8716Z" fill="#004D40"/>
</g>
<defs>
<clipPath id="clip0">
<rect width="40" height="40" fill="white"/>
</clipPath>
</defs>
</svg>
