<svg width="30" height="25" viewBox="0 0 30 25" fill="none" xmlns="http://www.w3.org/2000/svg">
<path d="M15 17.5C14.7437 17.5 14.4987 17.395 14.3225 17.21L7.75998 10.335C7.19123 9.74 7.61373 8.75 8.43748 8.75H11.875V1.5625C11.875 0.70125 12.5762 0 13.4375 0H16.5625C17.4237 0 18.125 0.70125 18.125 1.5625V8.75H21.5625C22.3862 8.75 22.8087 9.74 22.24 10.335L15.6775 17.21C15.5012 17.395 15.2562 17.5 15 17.5Z" fill="#004D40"/>
<path d="M26.25 25H3.75C1.6825 25 0 23.3175 0 21.25V15C0 12.9325 1.6825 11.25 3.75 11.25H5.625C6.315 11.25 6.875 11.81 6.875 12.5C6.875 13.19 6.315 13.75 5.625 13.75H3.75C3.06125 13.75 2.5 14.3113 2.5 15V21.25C2.5 21.9388 3.06125 22.5 3.75 22.5H26.25C26.9387 22.5 27.5 21.9388 27.5 21.25V15C27.5 14.3113 26.9387 13.75 26.25 13.75H24.375C23.685 13.75 23.125 13.19 23.125 12.5C23.125 11.81 23.685 11.25 24.375 11.25H26.25C28.3175 11.25 30 12.9325 30 15V21.25C30 23.3175 28.3175 25 26.25 25Z" fill="#004D40"/>
</svg>
