<svg width="50" height="50" viewBox="0 0 50 50" fill="none" xmlns="http://www.w3.org/2000/svg">
<g clip-path="url(#clip0)">
<path d="M40.17 37.6362C36.5941 35.0091 32.4132 33.3584 28.0232 32.832L29.6151 28.9006C29.715 28.6538 29.9126 28.4588 30.1575 28.3654C32.903 27.3171 35.249 25.4864 36.9427 23.0713C38.6758 20.5998 39.5917 17.6922 39.5917 14.6634C39.5917 10.7666 38.0799 7.09765 35.3348 4.33276C32.5909 1.56901 28.9364 0.0305367 25.0439 0.000400565C21.4429 -0.0301171 17.9627 1.2768 15.2459 3.67205C14.9426 3.93946 14.9132 4.40257 15.181 4.70583C15.4484 5.0091 15.9112 5.03848 16.2144 4.77107C18.6604 2.61462 21.7919 1.43854 25.0325 1.46525C28.5359 1.49233 31.8257 2.87707 34.2953 5.36463C36.7661 7.85373 38.1268 11.1561 38.1268 14.6634C38.1268 17.3897 37.3029 20.0062 35.7434 22.2302C34.2183 24.405 32.1061 26.0533 29.6349 26.997C29.0116 27.2347 28.5096 27.7283 28.2574 28.3509L26.1853 33.4675C26.1826 33.474 26.1799 33.4809 26.1773 33.4878C26.1765 33.4897 26.1757 33.4916 26.175 33.4935L25.3934 35.423C25.2789 35.706 25.0306 35.7361 24.9287 35.7361C24.8273 35.7361 24.5785 35.7056 24.4641 35.423L23.5642 33.2005C23.5604 33.1914 23.557 33.1818 23.5528 33.1727L21.6004 28.3513C21.3479 27.7279 20.8481 27.2351 20.2286 26.9989C15.02 25.0134 11.6063 19.9311 11.7341 14.3532C11.7966 11.6261 12.6923 9.02331 14.3246 6.82605C14.5657 6.50103 14.4978 6.04251 14.1732 5.80142C13.8485 5.55995 13.3896 5.62785 13.1485 5.95248C11.3347 8.39465 10.339 11.2881 10.2696 14.3196C10.1277 20.5162 13.9203 26.1616 19.7068 28.3677C19.9471 28.4596 20.1424 28.6538 20.2427 28.9013L21.8342 32.8316C19.7922 33.0761 17.788 33.5644 15.8627 34.2881C15.4843 34.4304 15.2924 34.8527 15.4347 35.2315C15.5453 35.5252 15.8242 35.7064 16.1206 35.7064C16.206 35.7064 16.2934 35.6911 16.3781 35.6595C17.685 35.1681 19.0308 34.792 20.4007 34.5337C18.6173 36.0959 17.0567 38.5712 15.836 41.7473H12.9914C13.8627 40.6171 14.3689 39.2102 14.3689 37.732C14.3689 34.134 11.4422 31.1844 7.84496 31.157C7.8278 31.1566 7.81101 31.1566 7.79423 31.1566C4.24541 31.1566 1.30122 34.0268 1.21997 37.5779C1.15627 40.3512 2.85076 42.8784 5.43712 43.8718L6.63494 46.8293C6.8272 47.3035 7.28191 47.6102 7.79347 47.6102C8.30502 47.6102 8.75973 47.3035 8.95199 46.8293L10.1494 43.8718C10.603 43.6978 11.0295 43.4754 11.4243 43.2122H15.3138C14.7763 44.8392 14.3216 46.6214 13.9626 48.5352H2.71762C3.1422 47.5827 3.63277 46.6496 4.17904 45.7562C4.38999 45.411 4.28127 44.9601 3.93604 44.7491C3.59081 44.5382 3.13991 44.6469 2.92896 44.9921C2.25452 46.0961 1.65981 47.2562 1.16123 48.4429C1.01588 48.7908 1.05441 49.186 1.26346 49.4996C1.4725 49.8132 1.82193 50.0001 2.19844 50.0001H47.6594C48.0363 50.0001 48.3861 49.8124 48.5951 49.4981C48.8038 49.1837 48.8412 48.7885 48.6947 48.441C46.8892 44.143 43.9412 40.4065 40.17 37.6362ZM9.61575 42.5076C9.2442 42.6491 8.94512 42.9429 8.79521 43.3133L7.79347 45.7875L6.79134 43.3133C6.64143 42.9425 6.34312 42.6491 5.97347 42.5084C3.95664 41.7393 2.63484 39.7717 2.68444 37.6114C2.74776 34.8515 5.03582 32.6214 7.79423 32.6214H7.8339C10.6293 32.6428 12.904 34.9354 12.904 37.7316C12.904 39.8373 11.5826 41.7565 9.61575 42.5076ZM22.6105 34.7481L23.1064 35.973C23.4086 36.7192 24.1238 37.201 24.9287 37.201C25.7336 37.201 26.4489 36.7192 26.751 35.973L27.2465 34.7497C28.4085 35.3974 29.5411 36.5376 30.5554 38.0883C30.6958 38.3034 30.93 38.4202 31.1688 38.4202C31.3061 38.4202 31.4454 38.3813 31.569 38.3004C31.9077 38.0791 32.0023 37.6252 31.7811 37.2864C31.0525 36.1725 30.2762 35.2532 29.4579 34.5345C33.0071 35.2044 36.3705 36.6623 39.3025 38.8165C40.4988 39.6954 41.607 40.6769 42.616 41.747H34.0119C33.7697 41.1175 33.5137 40.5141 33.2455 39.9415C33.0743 39.5749 32.6379 39.4173 32.2716 39.5886C31.9054 39.7603 31.7475 40.1963 31.9192 40.5625C32.0973 40.9436 32.2701 41.3388 32.4364 41.7473H17.4172C18.8134 38.3225 20.6185 35.8506 22.6105 34.7481ZM15.4541 48.5352C15.8272 46.6119 16.3041 44.8258 16.8652 43.2118H32.9888C33.5568 44.8437 34.0348 46.6397 34.4037 48.5352H15.4541ZM35.8948 48.5352C35.5412 46.6546 35.0819 44.8609 34.5353 43.2118H43.8912C45.1943 44.8353 46.288 46.6233 47.1394 48.5352H35.8948Z" fill="#004D40"/>
<path d="M18.8678 23.3879H30.9909C31.7531 23.3879 32.3738 22.7673 32.3738 22.0051V14.0824C32.9326 13.4953 33.2759 12.7014 33.2759 11.829V9.78167C33.2759 9.77938 33.2759 9.77671 33.2759 9.77442C33.2759 9.77175 33.2759 9.76908 33.2756 9.76641C33.2756 9.75992 33.2752 9.75306 33.2752 9.74695C33.2752 9.74657 33.2752 9.74581 33.2752 9.74543C33.2691 9.62527 33.2344 9.51273 33.1775 9.41469L31.211 5.84871C30.9226 5.32648 30.3729 5.00185 29.7763 5.00185H26.7433C26.7364 5.00146 26.7303 5.00146 26.7234 5.00146H23.1345C23.1281 5.00146 23.1216 5.00146 23.1151 5.00185H20.082C19.4854 5.00185 18.9357 5.32648 18.6473 5.84871L16.6805 9.41507C16.6202 9.51884 16.5851 9.639 16.5824 9.76717V9.77251C16.5824 9.77556 16.582 9.77862 16.582 9.78167V11.829C16.582 12.7018 16.9257 13.4957 17.485 14.0827V22.0051C17.485 22.7673 18.1052 23.3879 18.8678 23.3879ZM26.1134 6.46631L26.588 9.04924H23.2704L23.7445 6.46631H26.1134ZM31.8111 11.829C31.8111 12.8243 31.0008 13.6345 30.0052 13.6345C29.0096 13.6345 28.1997 12.8243 28.1997 11.829V10.5141H31.8111V11.829ZM23.1235 10.5145H26.7349V11.829C26.7349 12.8247 25.9246 13.6345 24.929 13.6345C23.9333 13.6345 23.1231 12.8247 23.1231 11.829V10.5145H23.1235ZM21.6586 10.5145V11.829C21.6586 12.8247 20.8484 13.6345 19.8528 13.6345C18.8571 13.6345 18.0469 12.8247 18.0469 11.829V10.5145H21.6586ZM26.4415 21.9231H23.4168V17.3138H26.4415V21.9231ZM27.9064 21.9231V16.7576C27.9064 16.2564 27.4986 15.849 26.9977 15.849H22.8603C22.3594 15.849 21.952 16.2564 21.952 16.7576V21.9231H18.9498V14.9727C19.2367 15.0551 19.5396 15.0994 19.8528 15.0994C20.8759 15.0994 21.7906 14.6271 22.3911 13.8893C22.9911 14.6271 23.9059 15.0994 24.929 15.0994C25.9521 15.0994 26.8669 14.6271 27.4673 13.8893C28.0673 14.6271 28.9821 15.0994 30.0052 15.0994C30.3188 15.0994 30.6217 15.0551 30.9089 14.9723V21.9231H27.9064ZM29.9282 6.55634L31.3034 9.04924H28.0773L27.6027 6.46669H29.7763C29.8397 6.46631 29.8976 6.50064 29.9282 6.55634ZM19.9298 6.55634C19.9603 6.50064 20.0187 6.46631 20.0816 6.46631H22.2553L21.7811 9.04924H18.555L19.9298 6.55634Z" fill="#004D40"/>
<path d="M42.3976 29.9756C43.7354 29.9756 44.8241 28.8869 44.8241 27.549C44.8241 26.2108 43.7358 25.1221 42.3976 25.1221C41.0594 25.1221 39.9707 26.2108 39.9707 27.549C39.9707 28.8869 41.0594 29.9756 42.3976 29.9756ZM42.3976 26.5874C42.9279 26.5874 43.3593 27.0188 43.3593 27.549C43.3593 28.0793 42.9279 28.5107 42.3976 28.5107C41.867 28.5107 41.4355 28.0793 41.4355 27.549C41.4359 27.0184 41.8674 26.5874 42.3976 26.5874Z" fill="#004D40"/>
<path d="M38.4958 23.1453C38.7251 23.4787 39.1809 23.563 39.5143 23.3342C40.3803 22.7391 41.3919 22.4297 42.4379 22.4369C45.2337 22.4583 47.508 24.7509 47.508 27.5471C47.508 29.6528 46.1866 31.572 44.2202 32.3227C43.8486 32.4643 43.5495 32.758 43.3996 33.1284L42.3975 35.603L41.3958 33.1284C41.2455 32.758 40.9471 32.4646 40.5775 32.3239C38.5607 31.5548 37.2389 29.5868 37.2885 27.4266C37.3056 26.6823 37.4807 25.9674 37.8092 25.3014C37.9885 24.9386 37.8393 24.4995 37.4769 24.3206C37.1138 24.1417 36.6747 24.2905 36.4958 24.6533C36.072 25.512 35.8461 26.4336 35.824 27.393C35.7603 30.1663 37.4544 32.6935 40.0415 33.6869L41.239 36.6444C41.4312 37.119 41.8859 37.4253 42.3975 37.4253C42.909 37.4253 43.3641 37.119 43.556 36.6444L44.7538 33.6869C47.278 32.7176 48.9729 30.2517 48.9729 27.5471C48.9729 23.9491 46.0463 20.9996 42.449 20.9721C41.0997 20.9645 39.7989 21.3612 38.6846 22.1268C38.3512 22.3561 38.2669 22.8123 38.4958 23.1453Z" fill="#004D40"/>
<path d="M7.79312 35.307C6.45493 35.307 5.36621 36.3957 5.36621 37.7335C5.36621 39.0717 6.45493 40.1601 7.79312 40.1601C9.13094 40.1601 10.2197 39.0717 10.2197 37.7335C10.2197 36.3957 9.13094 35.307 7.79312 35.307ZM7.79312 38.6952C7.2625 38.6952 6.83106 38.2638 6.83106 37.7335C6.83106 37.2033 7.2625 36.7718 7.79312 36.7718C8.32337 36.7718 8.75481 37.2033 8.75481 37.7335C8.75481 38.2638 8.32337 38.6952 7.79312 38.6952Z" fill="#004D40"/>
</g>
<defs>
<clipPath id="clip0">
<rect width="50" height="50" fill="white"/>
</clipPath>
</defs>
</svg>
