<svg width="40" height="40" viewBox="0 0 40 40" fill="none" xmlns="http://www.w3.org/2000/svg">
<path d="M4.66667 20.3333C4.2985 20.3333 4 20.6318 4 20.9999V31.6666C4 32.0347 4.2985 32.3333 4.66667 32.3333C5.03483 32.3333 5.33333 32.0347 5.33333 31.6666V20.9999C5.33333 20.6318 5.03483 20.3333 4.66667 20.3333Z" fill="#004D40"/>
<path d="M9.62663 15C9.99479 15 10.2933 14.7015 10.2933 14.3333C10.2936 14.2604 10.2799 14.1878 10.2533 14.1201C10.1738 13.863 9.94792 13.679 9.68001 13.6533C8.0625 13.502 6.78971 12.2067 6.66667 10.5866C6.67025 10.5625 6.67025 10.5378 6.66667 10.5133V10.4401C6.66341 10.4046 6.66341 10.3688 6.66667 10.3333V7H9.40007C9.76823 7 10.0667 6.7015 10.0667 6.33333C10.0667 5.96517 9.76823 5.66667 9.40007 5.66667H6C5.63184 5.66667 5.33333 5.96517 5.33333 6.33333V9.30664C4.48698 8.5498 4.00228 7.46875 4 6.33333V2.33333H12C13.3076 2.33398 14.5326 2.97363 15.2799 4.04655C15.4974 4.32715 15.8962 4.38802 16.1875 4.18555C16.4788 3.98307 16.5605 3.58822 16.3734 3.28678C15.377 1.85514 13.7438 1.0013 12 1H4C3.26367 1 2.66667 1.59701 2.66667 2.33333V6.33333C2.65755 8.264 3.69303 10.0492 5.37337 11C5.51432 12.0107 5.98275 12.9476 6.70671 13.6667H4.66667C2.08919 13.6667 0 15.7559 0 18.3333V31.6667C0 32.0348 0.298503 32.3333 0.666667 32.3333C1.03483 32.3333 1.33333 32.0348 1.33333 31.6667V18.3333C1.33333 16.4925 2.82585 15 4.66667 15H9.62663Z" fill="#004D40"/>
<path d="M9.33355 19.5064L8.85341 17.6666H11.0269C11.3951 17.6666 11.6936 17.3681 11.6936 16.9999C11.6936 16.6318 11.3951 16.3333 11.0269 16.3333H8.00022C7.79514 16.3323 7.60081 16.4257 7.47353 16.5865C7.34723 16.749 7.30295 16.9605 7.35341 17.1601L8.02008 19.8268C8.10862 20.1894 8.47418 20.4117 8.83681 20.3232C9.19944 20.235 9.42177 19.8694 9.33355 19.5064Z" fill="#004D40"/>
<path d="M35.3337 20.3333C34.9655 20.3333 34.667 20.6318 34.667 20.9999V31.6666C34.667 32.0347 34.9655 32.3333 35.3337 32.3333C35.7018 32.3333 36.0003 32.0347 36.0003 31.6666V20.9999C36.0003 20.6318 35.7018 20.3333 35.3337 20.3333Z" fill="#004D40"/>
<path d="M37.3335 14.1201V7.66667C37.3335 3.9847 34.3488 1 30.6668 1H29.3335C27.368 1.00358 25.504 1.87467 24.24 3.37988C24.0665 3.55957 24.0079 3.82096 24.088 4.05729C24.1681 4.29362 24.3735 4.46549 24.6202 4.5026C24.8673 4.53971 25.1141 4.43587 25.2602 4.2334C26.2716 3.03092 27.7622 2.33561 29.3335 2.33333H30.6668C33.6124 2.33333 36.0001 4.72103 36.0001 7.66667V13.7132C35.8491 13.7132 35.6958 13.6999 35.5402 13.6732H33.2736C34.1684 12.7926 34.6704 11.5889 34.6668 10.3333V6.33333C34.6668 5.96517 34.3683 5.66667 34.0001 5.66667H28.9868C28.6186 5.66667 28.3201 5.96517 28.3201 6.33333C28.3201 6.7015 28.6186 7 28.9868 7H33.3335V10.3333C33.3413 12.0563 32.035 13.5013 30.3201 13.6667C30.0522 13.6924 29.8263 13.8763 29.7469 14.1335C29.7202 14.2012 29.7065 14.2738 29.7068 14.3467C29.7068 14.7148 30.0053 15.0133 30.3735 15.0133H32.2L29.6668 19.5667C29.4881 19.8887 29.6046 20.2949 29.9269 20.4733C30.0265 20.5299 30.1388 20.5596 30.2534 20.5599C30.4939 20.5596 30.7156 20.4297 30.8335 20.2201L33.7267 15H35.4803C35.81 15.013 36.1359 15.0758 36.4467 15.1865H36.5001C37.8113 15.6764 38.6769 16.9336 38.6668 18.3333V31.6667C38.6668 32.0348 38.9653 32.3333 39.3335 32.3333C39.7016 32.3333 40.0001 32.0348 40.0001 31.6667V18.3333C39.9988 16.5319 38.9611 14.8919 37.3335 14.1201Z" fill="#004D40"/>
<path d="M25.9997 20.3334H23.7663C24.8053 19.4949 25.5352 18.3334 25.8395 17.0333C27.5768 16.1085 28.6634 14.3015 28.6663 12.3334V11.0001C28.6663 8.05444 26.2786 5.66675 23.333 5.66675H12.6663C11.93 5.66675 11.333 6.26375 11.333 7.00008V12.3334C11.3359 14.3015 12.4225 16.1085 14.1598 17.0333C14.4642 18.3334 15.194 19.4949 16.2331 20.3334H13.9997C11.4222 20.3334 9.33301 22.4226 9.33301 25.0001V38.3334C9.33301 38.7016 9.63151 39.0001 9.99967 39.0001C10.3678 39.0001 10.6663 38.7016 10.6663 38.3334V25.0001C10.6663 23.1593 12.1589 21.6667 13.9997 21.6667H25.9997C27.8405 21.6667 29.333 23.1593 29.333 25.0001V38.3334C29.333 38.7016 29.6315 39.0001 29.9997 39.0001C30.3678 39.0001 30.6663 38.7016 30.6663 38.3334V25.0001C30.6663 22.4226 28.5771 20.3334 25.9997 20.3334ZM12.6663 12.3334V7.00008H23.333C25.542 7.00008 27.333 8.7911 27.333 11.0001V12.3334C27.3307 13.4688 26.846 14.5499 25.9997 15.3067V10.3334C25.9997 9.96525 25.7012 9.66675 25.333 9.66675H14.6663C14.2982 9.66675 13.9997 9.96525 13.9997 10.3334V15.3067C13.1533 14.5499 12.6686 13.4688 12.6663 12.3334ZM15.4131 16.5466C15.4167 16.5225 15.4167 16.4978 15.4131 16.4734C15.3714 16.2397 15.3447 16.0037 15.333 15.7667V11.0001H24.6663V15.7667C24.6566 16.0037 24.6322 16.2397 24.5931 16.4734C24.5892 16.4978 24.5892 16.5225 24.5931 16.5466C24.179 18.7537 22.252 20.3529 20.0062 20.3529C17.7607 20.3529 15.8337 18.7537 15.4196 16.5466H15.4131Z" fill="#004D40"/>
<path d="M22.1603 23C21.8032 22.9118 21.4422 23.1295 21.3534 23.4866L20.8136 25.6666H19.1867L18.6668 23.5065C18.6174 23.2672 18.4409 23.0742 18.2072 23.0036C17.9732 22.9326 17.7196 22.9954 17.5454 23.1673C17.3716 23.3388 17.3058 23.5918 17.3735 23.8268L18.0402 26.3867L17.3335 33.86C17.3153 34.0722 17.3996 34.2803 17.5601 34.4199L19.5601 36.1666C19.8117 36.3877 20.1886 36.3877 20.4403 36.1666L22.4403 34.4199C22.6008 34.2803 22.6851 34.0722 22.6668 33.86L22.0002 26.3867L22.6668 23.8268C22.7147 23.6494 22.6877 23.4606 22.5916 23.304C22.4959 23.1478 22.3397 23.0377 22.1603 23ZM20.0002 34.7799L18.6668 33.6666L19.2534 27H20.6935L21.3335 33.6666L20.0002 34.7799Z" fill="#004D40"/>
<path d="M13.9997 27C13.6315 27 13.333 27.2985 13.333 27.6667V38.3333C13.333 38.7015 13.6315 39 13.9997 39C14.3678 39 14.6663 38.7015 14.6663 38.3333V27.6667C14.6663 27.2985 14.3678 27 13.9997 27Z" fill="#004D40"/>
<path d="M25.9997 27C25.6315 27 25.333 27.2985 25.333 27.6667V38.3333C25.333 38.7015 25.6315 39 25.9997 39C26.3678 39 26.6663 38.7015 26.6663 38.3333V27.6667C26.6663 27.2985 26.3678 27 25.9997 27Z" fill="#004D40"/>
</svg>
