<svg width="40" height="40" viewBox="0 0 40 40" fill="none" xmlns="http://www.w3.org/2000/svg">
<path d="M3.61719 27.0644C3.76031 27.515 3.93719 27.9625 4.14219 28.3938L5.27156 27.8569C5.09031 27.4769 4.93469 27.0832 4.80906 26.6863L3.61719 27.0644Z" fill="#004D40"/>
<path d="M7.09875 17.3207L6.66062 16.875L6.2 16.4519C4.21688 18.435 3.125 21.0713 3.125 23.8757C3.125 24.4988 3.18 25.1244 3.28938 25.735L4.52 25.515C4.42375 24.9769 4.375 24.4257 4.375 23.8757C4.375 21.405 5.33688 19.0825 7.08 17.3394L7.09875 17.3207Z" fill="#004D40"/>
<path d="M16.8945 13.8184L17.7784 12.9345L18.6623 13.8184L17.7784 14.7022L16.8945 13.8184Z" fill="#004D40"/>
<path d="M18.6621 15.5857L19.546 14.7018L20.4303 15.5861L19.5464 16.47L18.6621 15.5857Z" fill="#004D40"/>
<path d="M22.3863 20.2451L23.5363 19.7557C23.3638 19.3507 23.1619 18.9507 22.9375 18.5688L21.8594 19.2026C22.0575 19.5382 22.235 19.8888 22.3863 20.2451Z" fill="#004D40"/>
<path d="M21.2057 18.2318L22.1945 17.4668C21.9264 17.12 21.632 16.785 21.3189 16.47L20.4326 17.3512C20.7089 17.63 20.9689 17.9262 21.2057 18.2318Z" fill="#004D40"/>
<path d="M14.375 26.875H13.125V28.125C12.0912 28.125 11.25 28.9662 11.25 30C11.25 31.0337 12.0912 31.875 13.125 31.875H14.375C14.72 31.875 15 32.1556 15 32.5C15 32.8444 14.72 33.125 14.375 33.125H12.5V32.5H11.25V34.375H13.125V35.625H14.375V34.375C15.4088 34.375 16.25 33.5337 16.25 32.5C16.25 31.4662 15.4088 30.625 14.375 30.625H13.125C12.78 30.625 12.5 30.3444 12.5 30C12.5 29.6556 12.78 29.375 13.125 29.375H15V30H16.25V28.125H14.375V26.875Z" fill="#004D40"/>
<path d="M38.125 14.3751C38.125 15.957 37.2719 17.562 35.5888 19.1438C33.2356 21.3551 30.1712 22.7045 26.8325 23.0382C26.6313 19.8826 25.3188 16.9357 23.0675 14.6845L18.3837 10.0001L21.875 6.50884V6.25009C21.875 4.86634 20.84 3.69384 19.4669 3.52259L18.3156 3.37884L18.9156 1.42884L15.3737 0.543213L13.7794 2.66821L12.7875 1.18009L8.5575 2.02634L9.015 3.39946L8.03187 3.52259C6.66 3.69384 5.625 4.86634 5.625 6.25009V6.50884L9.11625 10.0001L4.4325 14.6838C1.97688 17.1388 0.625 20.4038 0.625 23.8757C0.625 28.2288 2.77938 32.2507 6.39188 34.6732C7.68688 37.4451 10.4937 39.3751 13.75 39.3751H39.375V14.3751H38.125ZM25.2025 24.3751C25.7656 24.3751 26.3231 24.347 26.875 24.2945V38.1251H24.375V24.3751H25.2025ZM28.125 24.1276C28.98 23.9826 29.8162 23.777 30.625 23.5076V38.1251H28.125V24.1276ZM31.875 23.0307C32.75 22.6563 33.5856 22.2057 34.375 21.6845V38.1251H31.875V23.0307ZM19.3119 4.76259C19.9794 4.84634 20.5006 5.36384 20.605 6.01071L17.2413 9.37509H16.4713L17.9431 4.59134L19.3119 4.76259ZM12.2119 2.57009L13.72 4.83196L15.8756 1.95696L17.3337 2.32134L15.1631 9.37509H12.325L10.1919 2.97384L12.2119 2.57009ZM8.18812 4.76259L9.41938 4.60884L11.0081 9.37509H10.2587L6.89437 6.01071C6.99875 5.36446 7.52 4.84634 8.18812 4.76259ZM1.875 23.8757C1.875 20.7376 3.09687 17.787 5.31625 15.5676L10.2587 10.6251H17.2413L22.1838 15.5676C24.2162 17.6001 25.4019 20.2595 25.5863 23.1076C25.4575 23.1107 25.3319 23.1251 25.2025 23.1251H13.75C9.27 23.1251 5.625 26.7701 5.625 31.2501C5.625 31.7057 5.67188 32.1501 5.74438 32.5857C3.29688 30.3751 1.875 27.2357 1.875 23.8757ZM6.875 31.2501C6.875 27.4595 9.95938 24.3751 13.75 24.3751C17.5406 24.3751 20.625 27.4595 20.625 31.2501C20.625 35.0407 17.5406 38.1251 13.75 38.1251C9.95938 38.1251 6.875 35.0407 6.875 31.2501ZM21.875 31.2501C21.875 28.3538 20.3475 25.8138 18.06 24.3751H23.125V38.1251H18.06C20.3475 36.6863 21.875 34.1463 21.875 31.2501ZM35.625 38.1251V20.7663C35.905 20.5382 36.1806 20.3032 36.445 20.0545C37.125 19.4151 37.6806 18.7651 38.125 18.1076V38.1251H35.625Z" fill="#004D40"/>
<path d="M34.3755 4.00896V11.2502H35.6255V4.00896L37.0586 5.44208L37.9423 4.55833L35.0005 1.61646L32.0586 4.55833L32.9423 5.44208L34.3755 4.00896Z" fill="#004D40"/>
<path d="M28.7505 8.38395V15.6252H30.0005V8.38395L31.4336 9.81708L32.3173 8.93333L29.3755 5.99146L26.4336 8.93333L27.3173 9.81708L28.7505 8.38395Z" fill="#004D40"/>
</svg>
